<?xml version="1.0" standalone="no"?>
<!DOCTYPE svg PUBLIC "-//W3C//DTD SVG 1.1//EN" "http://www.w3.org/Graphics/SVG/1.1/DTD/svg11.dtd" >
<svg>
<metadata>
Created by FontForge 20090914 at Tue Feb  3 06:58:31 2015
 By www-data
Copyright 1988-1991 Adobe Systems Inc.
</metadata>
<defs>
<font id="ACaslon-Regular" horiz-adv-x="1024" >
  <font-face 
    font-family="ACaslon Regular"
    font-weight="400"
    font-stretch="normal"
    units-per-em="2048"
    panose-1="2 2 5 0 0 0 0 0 0 0"
    ascent="1638"
    descent="-410"
    x-height="859.999"
    cap-height="1456"
    bbox="-158 -563 2326 1896"
    underline-thickness="102"
    underline-position="-154"
    unicode-range="U+0020-U+F002"
  />
<missing-glyph horiz-adv-x="0" 
 />
    <glyph glyph-name=".notdef" horiz-adv-x="0" 
 />
    <glyph glyph-name="equal" unicode=" " horiz-adv-x="520" 
 />
    <glyph glyph-name="greater" unicode="!" horiz-adv-x="520" 
d="M268 -25c31.333 1.33301 58.667 12.332 82 32.999c22 19.333 33 46 33 80c-1.33301 39.333 -13 70 -35 92c-23.333 20.667 -50 31 -80 31c-48.667 -1.33301 -82 -15.666 -100 -42.999c-19.333 -27.333 -29 -51.333 -29 -72c1.33301 -46 17.666 -78 48.999 -96
c28.667 -16.667 55.334 -25 80.001 -25v0zM264.001 1399c-27.333 -1.33301 -49.666 -12.999 -66.999 -34.999c-20.667 -23.333 -31 -52 -31 -86c1.33301 -58.667 11.666 -183.667 30.999 -375c16 -191.333 26 -345 30 -461c-1.33301 -13.333 3.66699 -20 15 -20h37
c9.33301 0 14 4.66699 14 14c5.33301 118.667 18.333 277.667 39 477c10.667 93.333 18.667 174.666 24 243.999c7.33301 68 11 108.333 11 121c2.66699 44.667 -6.33301 76 -27 94s-46 27 -76 27v0z" />
    <glyph glyph-name="question" unicode="&#x22;" horiz-adv-x="758" 
d="M252 944c5.33301 61.333 16.334 142.665 33.001 243.998c16 100.667 24.667 170.334 26 209.001c0 56 -31.333 84 -94 84s-94.667 -28.667 -96 -86c1.33301 -37.333 11.666 -106.333 30.999 -207c16 -101.333 26 -182.666 30 -243.999h70zM577.001 943.999
c6 61.333 17 142.666 33 243.999l23 129c4 38 6 64.667 6 80c0 56 -32 84 -96 84c-61.333 0 -93 -28.667 -95 -86c2 -37.333 12.333 -106.333 31 -207c16.667 -101.333 27 -182.666 31 -243.999h67z" />
    <glyph glyph-name="at" unicode="#" 
d="M592 539h-223l67 317h221zM477 -8c-5.33301 -15.333 -2.66602 -23.002 8.00098 -23.002h92c11.333 0 18.333 8.33301 21 25l90 436h227c15.333 0 23.666 3.33301 24.999 10l20 82c1.33301 11.333 -6 17 -22 17h-227l67 317h215c20.667 0 31 4.66699 31 14l18 80
c1.33301 10 -4.66699 15 -18 15h-223l86 411c2.66699 15.333 -1 23 -11 23h-90c-12 -1.33301 -18.667 -7.66602 -20 -18.999l-86 -415h-221l86 413c4 14 1.33301 21 -8 21h-91c-10.667 -1.33301 -16 -7.66602 -16 -18.999l-92 -415h-221c-14 0 -23 -5 -27 -15l-16 -80
c-4 -9.33301 5.33301 -14 28 -14h213l-65 -317h-223c-12.667 0 -20.334 -5 -23.001 -15l-20 -76c-2.66699 -12 1.33301 -18 12 -18h231l-94 -432c-5.33301 -19.333 -2.66602 -29 8.00098 -29h92c11.333 0 18.333 11 21 33l92 428h223z" />
    <glyph glyph-name="A" unicode="$" 
d="M594 -88c9.33301 0 14.001 6.66602 14.001 19.999l2 109c87.333 22 155.666 67 204.999 135c50.667 68.667 76 144.334 76 227.001c-4 191.333 -91.333 308.333 -262 351l16 456c14 -10.667 28.333 -23 43 -37c27.333 -25.333 48 -55.333 62 -90c12 -34 20 -66 24 -96
c2.66699 -5.33301 6.66699 -7.33301 12 -6l29 6c6.66699 1.33301 10 6 10 14c-4 83.333 -6 177 -6 281c0 6.66699 -0.666992 13.334 -2 20.001c-1.33301 7.33301 -6 11 -14 11c-8.66699 0 -18.334 -4.33301 -29.001 -13l-20 -20c-10 -8 -22.333 -8.66699 -37 -2
c-14 6.66699 -38.667 14.667 -74 24l4 119c0 16.667 -4.66699 25 -14 25h-41c-10 1.33301 -15 -5.66699 -15 -21l-2 -110c-35.333 6.66699 -71.333 8 -108 4l2 106c0 14 -4.66699 21 -14 21h-41c-10 0 -15 -7 -15 -21l-4 -116c-35.333 -10 -75.666 -33.333 -120.999 -70
c-31.333 -26 -60 -58.667 -86 -98c-27.333 -40 -41 -88.667 -41 -146c0 -109.333 32.333 -192.666 97 -249.999c23.333 -20 47.666 -36.333 72.999 -49c23.333 -13.333 44 -23.333 62 -30l-14 -523c-24.667 11.333 -53.334 40 -86.001 86
c-24.667 45.333 -40 83.666 -46 114.999c-6.66699 31.333 -10 60 -10 86c0 9.33301 -4 14 -12 14l-31 2c-9.33301 0 -14 -4.66699 -14 -14l-14 -158c-7.33301 -74.667 -13.666 -127 -18.999 -157c-1.33301 -18 5 -27 19 -27c12 -1.33301 23.333 5.66699 34 21
c10 18.667 20.333 28 31 28c6.66699 0 21 -7.33301 43 -22c41.333 -30 75.333 -50 102 -60l-4 -125c-1.33301 -13.333 3.66699 -20 15 -20h41c9.33301 0 14 6 14 18l4 111c38 -6.66699 75 -9.33398 111 -8.00098l-2 -101c-1.33301 -13.333 3.33398 -20 14.001 -20h39z
M561.001 767.999c-48 8 -84 17.001 -108 27.001l12 458c36.667 5.33301 72.667 0.666016 108 -14.001zM393.001 1235l-7.99902 -416c-6.66699 5.33301 -15.667 11.666 -27 18.999c-12 5.33301 -24 16 -36 32c-28.667 45.333 -42.334 100 -41.001 164
c0 36.667 9.33301 74.334 28 113.001c18 38 46 67.333 84 88v0zM448.002 643c14 -1.33301 29.332 -3.99902 45.999 -7.99902c16 -4 37 -10.333 63 -19l-12 -514c-19.333 0 -40 0.666992 -62 2c-23.333 3.33301 -39.666 7.66602 -48.999 12.999zM625.001 594.001
c39.333 -18 72 -47.332 98 -87.999c23.333 -42.667 35 -97.334 35 -164.001c-1.33301 -62.667 -16.333 -112.667 -45 -150c-30 -36.667 -63.667 -61.667 -101 -75z" />
    <glyph glyph-name="B" unicode="%" horiz-adv-x="1536" 
d="M348 602c-17.333 0 -38.333 8.99902 -63 26.999c-26 16 -47.333 40.333 -64 73c-24.667 58.667 -37 141.334 -37 248.001c0 48 2.66699 102 8 162c6 60 17.667 111.333 35 154c14 25.333 30.333 44.333 49 57c19.333 9.33301 38 14 56 14c36.667 0 66 -11.667 88 -35
c20.667 -22.667 37 -53.334 49 -92.001c19.333 -78.667 28.333 -162 27 -250c0 -125.333 -9.66699 -216.666 -29 -273.999c-14 -35.333 -31.667 -58.666 -53 -69.999c-23.333 -10.667 -45.333 -15.334 -66 -14.001v0zM338 1399
c-101.333 -2.66699 -176.333 -48.666 -225 -137.999c-48 -88.667 -72 -191.667 -72 -309c0 -30 4 -66.667 12 -110c6.66699 -45.333 21 -91.333 43 -138c22 -46 53.333 -84 94 -114c41.333 -32.667 94 -49 158 -49c186 2.66699 285 146 297 430
c-1.33301 46 -6.66602 93.667 -15.999 143c-10 49.333 -26.333 95.666 -49 138.999c-22 44 -53 79.667 -93 107c-40.667 26 -90.334 39 -149.001 39v0zM1225 1339c5.33301 8.66699 7.99902 15 7.99902 19c2.66699 4 -9 13.333 -35 28c-18 8.66699 -29 13 -33 13
c-6.66699 -1.33301 -12 -7 -16 -17l-832 -1347c-6.66699 -10 -10 -18.333 -10 -25c-1.33301 -5.33301 8.33398 -13.333 29.001 -24c22 -11.333 34.333 -17 37 -17c5.33301 0 12 9 20 27zM1198 43c-18 0 -39.001 8.99805 -63.001 26.998c-26 16 -47.333 40.333 -64 73
c-24.667 58.667 -37 141.334 -37 248.001c0 48 2.66699 102 8 162c6 60 17.667 111.333 35 154c14 25.333 30.333 44.333 49 57c19.333 9.33301 38 14 56 14c36.667 0 66 -11.667 88 -35c20 -22.667 36.333 -53.334 49 -92.001
c18.667 -79.333 27.334 -162.666 26.001 -249.999c0 -125.333 -9.33301 -216.666 -28 -273.999c-14 -35.333 -31.667 -58.666 -53 -69.999c-23.333 -10.667 -45.333 -15.334 -66 -14.001v0zM1188 839.998c-101.333 -2.66699 -176.667 -48.667 -226 -138
c-47.333 -88.667 -71 -191.667 -71 -309c0 -30 4 -66.667 12 -110c6.66699 -45.333 21 -91.333 43 -138c22 -46 53.333 -84 94 -114c41.333 -31.333 94 -47.666 158 -48.999c186 4 285 147.333 297 430c-1.33301 46 -6.66602 93.667 -15.999 143
c-10 49.333 -26.667 95.666 -50 138.999c-21.333 44 -52 79.667 -92 107c-40.667 26 -90.334 39 -149.001 39v0z" />
    <glyph glyph-name="C" unicode="&#x26;" horiz-adv-x="1689" 
d="M1454 -31c60 1.33301 112.669 12.334 158.002 33.001c44.667 19.333 82 44 112 74c31.333 30 56 58.667 74 86c19.333 27.333 31.666 49 36.999 65c4 11.333 4 17.666 0 18.999l-31 18c-6.66699 5.33301 -12 4.66602 -16 -2.00098c-5.33301 -13.333 -28 -41.333 -68 -84
c-17.333 -19.333 -39.666 -36.333 -66.999 -51c-27.333 -16.667 -57.333 -25 -90 -25c-33.333 0 -63 6.33301 -89 19c-28.667 10.667 -54.334 24.334 -77.001 41.001c-22 16 -42.667 32.333 -62 49c-17.333 18 -33.666 33 -48.999 45l-76 84l-80 88
c37.333 39.333 90 109 158 209c70 99.333 111.667 160 125 182c15.333 26 33 42.333 53 49c19.333 7.33301 53.666 11 102.999 11h34c10 0 15 4.66699 15 14v43c0 9.33301 -5 14 -15 14c-38 -2.66699 -108 -4.66699 -210 -6c-92 2.66699 -158.333 4.66699 -199 6
c-10.667 0 -15.334 -3.33301 -14.001 -10v-45c-1.33301 -9.33301 3.33398 -14 14.001 -14h35c21.333 0 38.333 -6.33301 51 -19c10.667 -12 14.667 -27 12 -45c0 -14.667 -7.33301 -35.667 -22 -63c-15.333 -28.667 -34 -60.334 -56 -95.001
c-46 -70.667 -87.667 -129.334 -125 -176.001v0c-124 170.667 -268 304 -432 400c49.333 26 98 65.333 146 118c23.333 27.333 42.333 55.333 57 84c15.333 27.333 23 54 23 80c0 74 -27.333 139 -82 195c-56 58.667 -124.333 88.667 -205 90
c-28.667 0 -62 -10.333 -100 -31c-37.333 -20.667 -73.666 -48 -108.999 -82c-35.333 -32.667 -64 -70 -86 -112c-24.667 -41.333 -37 -83 -37 -125c0 -80.667 71 -166 213 -256c-86 -45.333 -165 -101.333 -237 -168c-42.667 -40 -80.334 -88.667 -113.001 -146
c-34 -60 -51.667 -126.667 -53 -200c2.66699 -117.333 50.334 -206.333 143.001 -267c87.333 -61.333 183 -92.666 287 -93.999c65.333 1.33301 124.666 13.666 177.999 36.999c52 22 98.333 49.333 139 82c41.333 34 78.333 69.667 111 107l82 100v0l78 -96
c28.667 -37.333 60 -73.666 94 -108.999c35.333 -34 75.666 -62 120.999 -84c43.333 -23.333 92.333 -35.666 147 -36.999v0zM582.002 92.001c-82 1.33301 -157.332 31.998 -225.999 91.998c-32.667 28.667 -59.334 61.667 -80.001 99
c-20 36.667 -31.333 75.334 -34 116.001c1.33301 84.667 28.666 162.667 81.999 234c52.667 70.667 117.334 126.667 194.001 168v0c97.333 -57.333 185.333 -130.333 264 -219c76.667 -87.333 139 -167.333 187 -240l-54 -63c-22.667 -27.333 -50.667 -55.333 -84 -84
c-32.667 -27.333 -69.334 -50.666 -110.001 -69.999c-41.333 -22 -87.666 -33 -138.999 -33v0zM596.003 1376c52 -2.66699 92.999 -27.999 122.999 -75.999c28.667 -46 43 -89 43 -129c-1.33301 -76 -19 -133.333 -53 -172c-15.333 -20 -31.333 -36.333 -48 -49
c-16 -13.333 -31.667 -25.666 -47 -36.999v0c-48.667 31.333 -95 67.666 -139 108.999c-20.667 20.667 -37 41 -49 61c-14 19.333 -21 38 -21 56c0 61.333 20 115.666 60 162.999c36.667 48 80.334 72.667 131.001 74v0z" />
    <glyph glyph-name="D" unicode="'" horiz-adv-x="422" 
d="M248 944c5.33301 61.333 16.333 142.665 33 243.998c16 100.667 24.667 170.334 26 209.001c0 56 -31.333 84 -94 84s-94.667 -28.667 -96 -86c1.33301 -37.333 11.333 -106.333 30 -207c16.667 -101.333 27 -182.666 31 -243.999h70z" />
    <glyph glyph-name="E" unicode="(" horiz-adv-x="676" 
d="M123 588c0 -216 39.667 -401.667 119 -557c44.667 -87.333 93 -160.333 145 -219c53.333 -62 101 -112 143 -150c15.333 -10.667 28.333 -16 39 -16c11.333 1.33301 21 5.33301 29 12s12 12.667 12 18c0 11.333 -5.33301 23.666 -16 36.999
c-100 100 -179.333 221.667 -238 365c-62.667 142 -94 312 -94 510c0 200.667 31.333 372 94 514c58.667 142 137.334 262.667 236.001 362c12 15.333 18 27.666 18 36.999c0 6.66699 -4 13.667 -12 21c-8 5.33301 -17.667 8 -29 8c-10.667 0 -23.667 -5 -39 -15
c-42 -39.333 -87.667 -89.666 -137 -150.999c-50.667 -61.333 -95 -133.666 -133 -216.999c-88.667 -164 -134.334 -350.333 -137.001 -559v0z" />
    <glyph glyph-name="F" unicode=")" horiz-adv-x="676" 
d="M553 588c-1.33301 216.667 -40.999 402.333 -118.999 557c-44.667 90 -92.334 165 -143.001 225c-52 58.667 -100.667 107 -146 145c-14.667 10 -27.667 15 -39 15c-8 0 -16.667 -2.66699 -26 -8c-9.33301 -7.33301 -14 -14.333 -14 -21c0 -12 5.33301 -25 16 -39
c99.333 -99.333 180 -220 242 -362c58.667 -142 88.667 -312.667 90 -512c-1.33301 -199.333 -31.333 -370 -90 -512c-60.667 -142 -140.667 -263.667 -240 -365c-12 -13.333 -18 -25 -18 -35c0 -5.33301 4.66699 -11.333 14 -18s18 -10.667 26 -12
c11.333 0 24.333 5.33301 39 16c44 40 91.333 91.333 142 154c47.333 61.333 90.333 132.333 129 213c42 87.333 75.333 175.333 100 264s37 187 37 295v0z" />
    <glyph glyph-name="G" unicode="*" horiz-adv-x="672" 
d="M336 817c27.333 0 45.6699 8.33301 55.0029 25c6.66699 16 10 31.667 10 47c-1.33301 22 -10 65.667 -26 131c-16.667 65.333 -27.667 103.666 -33 114.999l4 4c8 -10 36 -38 84 -84c22 -22 42.333 -40.667 61 -56c18 -16 29 -26.667 33 -32
c18 -10 36.667 -14.333 56 -13c18.667 0 33.667 9 45 27c10.667 16 16.667 30.333 18 43c1.33301 10.667 0 19 -4 25c-9.33301 13.333 -22.333 22.666 -39 27.999c-18 8 -61 21.667 -129 41c-30 8 -56.667 15.667 -80 23c-23.333 5.33301 -37 8 -41 8v4
c14 1.33301 53.667 11.666 119 30.999l80 22c23.333 6.66699 38.333 11.667 45 15c17.333 10.667 29.666 22.667 36.999 36c6.66699 15.333 3 34 -11 56c-10.667 17.333 -24 28 -40 32c-16.667 1.33301 -33.334 -2 -50.001 -10c-16 -12 -48 -41.333 -96 -88
c-49.333 -46 -78.666 -74.667 -87.999 -86l-4 4c5.33301 12.667 16.333 51.667 33 117c8 30 14.667 58 20 84c4 24.667 6 40.334 6 47.001c1.33301 44 -20.334 66.667 -65.001 68c-45.333 -2.66699 -67.333 -25.334 -66 -68.001
c1.33301 -19.333 11.666 -61.666 30.999 -126.999c8 -30 15.667 -56 23 -78c4 -23.333 6 -37 6 -41l-4 -4l2 -2c0 5.33301 -9 16.333 -27 33l-59 51c-22 22 -42.667 41 -62 57c-18.667 15.333 -31.667 24.333 -39 27c-14.667 9.33301 -31 14 -49 14
c-19.333 -1.33301 -35.666 -12.666 -48.999 -33.999c-10.667 -20.667 -11.334 -38.667 -2.00098 -54c8 -16 19 -27.333 33 -34c20 -7.33301 63.667 -19 131 -35c30 -8.66699 56.667 -15.667 80 -21c22.667 -5.33301 35.667 -9.33301 39 -12v-4
c-14 -1.33301 -53 -11.666 -117 -30.999l-80 -22c-23.333 -8.66699 -39 -15.667 -47 -21c-9.33301 -4 -19.666 -14.333 -30.999 -31c-12 -16 -12 -37 0 -63c12.667 -18 28.334 -27.667 47.001 -29c18 -1.33301 35 3 51 13c15.333 12 45.666 40 90.999 84l88 86h4
c-2.66699 -12.667 -12.334 -51.667 -29.001 -117c-8 -30 -14.667 -56.667 -20 -80c-7.33301 -26 -11 -42.333 -11 -49c0 -19.333 5.66699 -35 17 -47c10.667 -16.667 27 -25 49 -25v0z" />
    <glyph glyph-name="H" unicode="+" 
d="M575 82v352h334v115h-334v352h-122v-352h-338v-115h338v-352h122z" />
    <glyph glyph-name="I" unicode="," horiz-adv-x="520" 
d="M236 236c-37.333 0 -65.3311 -9.00195 -83.998 -27.002c-20.667 -19.333 -31 -42.666 -31 -69.999c1.33301 -48.667 18.333 -82.667 51 -102c15.333 -9.33301 29 -16.333 41 -21c10.667 -5.33301 19 -9.33301 25 -12c21.333 -9.33301 32.666 -29.666 33.999 -60.999
c-1.33301 -56 -19 -107.333 -53 -154s-64.667 -81.334 -92 -104.001c-14 -11.333 -20 -21.666 -18 -30.999c0 -12.667 8 -19 24 -19c8 2 15.667 5 23 9c6.66699 4 12.667 7.33301 18 10c10.667 6.66699 29.667 21 57 43c26 20.667 52.667 47.334 80 80.001
c28.667 32.667 52.667 71.667 72 117c19.333 43.333 29.666 91.666 30.999 144.999c-1.33301 65.333 -22 114.333 -62 147c-38 33.333 -76.667 50 -116 50v0z" />
    <glyph glyph-name="J" unicode="-" horiz-adv-x="827" 
d="M106 498c-1.33301 -10 5 -13.667 19 -11h571c16.667 -1.33301 25 3.66699 25 15v78c0 14.667 -7.66699 22 -23 22h-573c-14 0 -20.333 -4.66699 -19 -14v-90z" />
    <glyph glyph-name="K" unicode="." horiz-adv-x="520" 
d="M266 -25c34 1.33301 61.3301 12.332 81.9971 32.999c22 19.333 33 46 33 80c0 39.333 -11 70 -33 92c-23.333 20.667 -50.666 31 -81.999 31c-49.333 -1.33301 -82.666 -15.666 -99.999 -42.999c-19.333 -27.333 -28.333 -51.333 -27 -72c1.33301 -46 17 -78 47 -96
c28.667 -16.667 55.334 -25 80.001 -25v0z" />
    <glyph glyph-name="L" unicode="/" horiz-adv-x="717" 
d="M4 33c-6.66699 -15.333 -5.99902 -24.334 2.00098 -27.001l70 -35c9.33301 -5.33301 18 0.333984 26 17.001l613 1441c5.33301 14 2.66602 23.667 -8.00098 29l-66 27c-12 4 -21 -0.333008 -27 -13z" />
    <glyph glyph-name="M" unicode="0" 
d="M522 -31c285.333 4 431.33 246.335 437.997 727.002c0 79.333 -8 160.666 -24 243.999c-18 82 -45.333 157 -82 225c-34 71.333 -79 128 -135 170c-57.333 42.667 -123.666 64 -198.999 64c-132 -1.33301 -240.333 -73 -325 -215c-86 -140.667 -130 -330.667 -132 -570
c-1.33301 -134.667 34.334 -272.334 107.001 -413.001c36.667 -67.333 84.334 -122 143.001 -164c57.333 -44 127 -66.667 209 -68v0zM523.997 43.002c-35.333 -1.33301 -71.3359 11 -108.003 37c-37.333 26 -72.333 71.667 -105 137c-46 94 -69 238 -69 432
c-1.33301 88.667 3.33398 185 14.001 289c9.33301 100.667 32 188.667 68 264c24 46.667 51 79.334 81 98.001c28.667 16.667 63 25 103 25c44.667 0 84.334 -15.667 119.001 -47c35.333 -31.333 64 -75 86 -131c47.333 -113.333 71 -248.666 71 -405.999
c0 -284 -21 -468.333 -63 -553c-27.333 -58.667 -58.666 -97.334 -93.999 -116.001c-36 -20.667 -70.333 -30.334 -103 -29.001v0z" />
    <glyph glyph-name="N" unicode="1" 
d="M463 666l0.000976562 -242.002v-154c0 -44.667 -0.666992 -72 -2 -82c0 -51.333 -7 -83.333 -21 -96c-14.667 -13.333 -55 -19.333 -121 -18h-94c-18.667 0 -28 -4.33301 -28 -13v-51c0 -10.667 5.33301 -16 16 -16c102.667 2.66699 208.334 4.66699 317.001 6
c105.333 -1.33301 210.666 -3.33301 315.999 -6c12 0 18 5.33301 18 16v47c0 11.333 -6.66699 17 -20 17h-74c-62.667 -1.33301 -102.334 6 -119.001 22c-17.333 15.333 -25.333 48.333 -24 99c-1.33301 162 -2 323.667 -2 485v86c2.66699 324.667 4.66699 526 6 604
c0 18 -5 27.667 -15 29c-9.33301 -1.33301 -18.666 -5.66602 -27.999 -12.999l-424 -243c-14 -8.66699 -18 -17 -12 -25l16 -37c5.33301 -6.66699 12 -8.66699 20 -6l144 47c34 11.333 61.333 17 82 17c35.333 -1.33301 51.666 -39.666 48.999 -114.999v-285v-73z" />
    <glyph glyph-name="O" unicode="2" 
d="M645 0c62.667 1.33301 100.332 -8.33008 112.999 -28.9971c4 -8 7.33301 -12.667 10 -14c4 -4 9.33301 -6 16 -6c18 0 27 1.33301 27 4s1.33301 8.66699 4 18l133 320c6.66699 12 1.33398 21.667 -15.999 29c-18 10.667 -30.333 7 -37 -11
c-20.667 -39.333 -48 -76.666 -82 -111.999c-18 -16.667 -39 -30.334 -63 -41.001c-26 -12.667 -57 -19 -93 -19h-415l178 150c70.667 60 141.667 129.667 213 209c46 52.667 85.667 101.667 119 147c32.667 45.333 58.334 89 77.001 131c38.667 82 58 165.333 58 250
c-2.66699 118.667 -40.334 210 -113.001 274c-73.333 64.667 -155.333 97.667 -246 99c-66.667 0 -124.667 -11.667 -174 -35c-47.333 -23.333 -87.666 -52 -120.999 -86c-30 -34 -54.333 -68.333 -73 -103c-19.333 -34 -33 -61.667 -41 -83
c-6.66699 -16.667 -6.66699 -26.334 0 -29.001l28 -12c10 -7.33301 18.333 -4 25 10l35 59c13.333 22 30.333 43.333 51 64c23.333 21.333 50 39.666 80 54.999c30 13.333 66 20 108 20c75.333 1.33301 137.666 -23 186.999 -73c49.333 -50.667 75.333 -122.334 78 -215.001
c1.33301 -172 -82.667 -342.667 -252 -512c-180.667 -184.667 -327.667 -326 -441 -424c-9.33301 -8 -11.333 -18.333 -6 -31c5.33301 -8 13 -12 23 -12c9.33301 0 30.333 1.33301 63 4s67 4 103 4h444z" />
    <glyph glyph-name="P" unicode="3" 
d="M379 -31c143.333 1.33301 263.997 43.666 361.997 126.999c97.333 82 147.333 190 150 324c-1.33301 91.333 -33.333 169.666 -96 234.999c-62 64.667 -129.667 105.667 -203 123c56 32.667 107.667 77.667 155 135c48 57.333 72.667 129.666 74 216.999
c0 58.667 -21.667 116.667 -65 174c-24.667 27.333 -56.334 50 -95.001 68c-38 18 -85.667 27 -143 27c-114.667 -2.66699 -203.334 -39.667 -266.001 -111c-65.333 -70.667 -105 -144.334 -119 -221.001c-2.66699 -18 -2 -28.333 2 -31l37 -8
c8 -2.66699 14.667 4.33301 20 21c22 61.333 54.333 113 97 155c42 44 100.667 66.667 176 68c66.667 -1.33301 118.334 -23.333 155.001 -66c36 -42 54 -96.667 54 -164c-1.33301 -77.333 -28.666 -141.333 -81.999 -192c-54.667 -52 -116 -84.667 -184 -98
c-18 -1.33301 -26.333 -11 -25 -29c-1.33301 -12.667 0.666992 -19.667 6 -21c2.66699 -2.66699 13 -6 31 -10c86 -17.333 156.333 -57 211 -119c54.667 -61.333 82.667 -143.666 84 -246.999c0 -74 -26 -138.333 -78 -193
c-53.333 -57.333 -127.666 -86.666 -222.999 -87.999c-34.667 0 -63.334 4 -86.001 12c-24.667 7.33301 -44 15 -58 23c-13.333 10.667 -23.333 20.334 -30 29.001c-7.33301 9.33301 -13 16 -17 20c-1.33301 9.33301 -6.66602 26.333 -15.999 51
c-5.33301 11.333 -13.666 21 -24.999 29c-9.33301 6.66699 -23.666 10 -42.999 10c-42 -1.33301 -64.333 -30.666 -67 -87.999c-1.33301 -31.333 19.667 -65.333 63 -102c24.667 -16.667 56.667 -30.334 96 -41.001c40 -11.333 89.333 -17.666 148 -18.999v0z" />
    <glyph glyph-name="Q" unicode="4" 
d="M768 0c20.667 0 30.332 9.66602 28.999 28.999v354h157c14 0 23.667 2 29 6c2.66699 4 4 8.66699 4 14v99c-1.33301 10.667 -9.66602 16 -24.999 16h-165v819c0 24.667 -2.33301 41.667 -7 51c-4 7.33301 -10.667 11 -20 11c-16.667 -1.33301 -31.667 -12.333 -45 -33
l-666 -918c-13.333 -17.333 -20 -30.666 -20 -39.999c0 -16.667 10.333 -25 31 -25h571v-360c-1.33301 -15.333 7 -23 25 -23h102zM642.998 507.999l-401.001 0.000976562c-36 0 -41 18.333 -15 55l377 520c10.667 15.333 20.334 21.666 29.001 18.999
c6.66699 -4 10 -14.333 10 -31v-563z" />
    <glyph glyph-name="R" unicode="5" 
d="M326 1210l426.002 -0.00390625c31.333 0 52.333 2.66699 63 8c10.667 6 19 17 25 33l73 205c4 9.33301 -5.33301 17.666 -28 24.999c-11.333 5.33301 -19.666 1.66602 -24.999 -11.001c-14.667 -32.667 -30.334 -57 -47.001 -73c-16.667 -19.333 -42.667 -29 -78 -29
h-438c-23.333 0 -34.333 -11 -33 -33l-74 -577c-2.66699 -11.333 1 -19 11 -23c13.333 -6.66699 25.666 -8 36.999 -4c27.333 4 64.666 3.33301 111.999 -2c46.667 -5.33301 98 -19.666 154 -42.999c122.667 -61.333 182.667 -165.666 180 -312.999
c-1.33301 -91.333 -34 -166 -98 -224c-64.667 -60 -138.334 -90.667 -221.001 -92c-32 0 -63 5 -93 15c-28.667 6.66699 -51.667 14.667 -69 24c-15.333 11.333 -31 21 -47 29c-18 8 -36.667 12 -56 12c-30 -1.33301 -45 -19 -45 -53c0 -30 26 -56 78 -78
c49.333 -23.333 112.333 -35.666 189 -36.999c144.667 2.66699 266 51.334 364 146.001c98 92.667 148.667 213.334 152 362.001c-3.33301 192.667 -108.666 319.667 -315.999 381c-26 6.66699 -63.333 12.667 -112 18c-50.667 4.66699 -91 6.33398 -121 5.00098z" />
    <glyph glyph-name="S" unicode="6" 
d="M516 -31c124 0 220.998 40.999 290.998 122.999c38 35.333 68.667 79.666 92 132.999s35 126.333 35 219c0 74 -28 151.333 -84 232c-28.667 38 -65.667 69.333 -111 94c-46 23.333 -102 35 -168 35c-117.333 -1.33301 -208 -32.666 -272 -93.999v0
c32.667 169.333 99.667 308.333 201 417c100.667 108 195.334 180.333 284.001 217c12.667 6 19 17 19 33c-1.33301 14 -9.66602 21 -24.999 21c-16 0 -41.333 -7.66699 -76 -23c-96.667 -36.667 -197 -102.667 -301 -198c-210 -217.333 -313.667 -457 -311 -719
c0 -54.667 9.66699 -117 29 -187c17.333 -69.333 51.333 -132.666 102 -189.999c60 -74 158.333 -111.667 295 -113v0zM527.998 34.999c-61.333 0 -109.001 14.3359 -143.001 43.0029c-35.333 26 -62 58.667 -80 98c-17.333 40 -28.333 79.667 -33 119
c-5.33301 39.333 -8 72 -8 98c0 91.333 15 165.666 45 222.999c12.667 27.333 34.667 50.666 66 69.999c32.667 19.333 78.334 29.666 137.001 30.999c80.667 -1.33301 142 -34.333 184 -99c42.667 -64 64 -143 64 -237c0 -79.333 -9 -142.333 -27 -189
c-19.333 -47.333 -42.333 -82 -69 -104c-27.333 -22 -53.333 -36.333 -78 -43s-44 -10 -58 -10v0z" />
    <glyph glyph-name="T" unicode="7" 
d="M399 1368c-50 0 -82.667 3.33301 -98 10c-14.667 5.33301 -20.667 15 -18 29c4 26 -5 38.333 -27 37c-20.667 0 -31.667 -5 -33 -15l-127 -329c-2.66699 -7.33301 -3.33398 -13 -2.00098 -17s6.33301 -8.66699 15 -14c14.667 -9.33301 27.334 -8 38.001 4
c28.667 46.667 56 82.334 82 107.001c26 24 68.333 36 127 36h486l-508 -980l-45 -95c-18 -35.333 -27 -67.333 -27 -96c0 -49.333 26.667 -74.666 80 -75.999c19.333 0 38.333 7.66699 57 23c18 13.333 33 40.666 45 81.999c48 150 102.667 298 164 444
c60 144.667 97.667 232.667 113 264c121.333 268 208 445 260 531c9.33301 17.333 14 29.666 14 36.999c-1.33301 12 -8 18 -20 18h-576z" />
    <glyph glyph-name="U" unicode="8" 
d="M510 -31c125.333 2.66699 223.669 42.998 295.002 120.998c70.667 75.333 106.667 155.333 108 240c-1.33301 92.667 -28.666 168.334 -81.999 227.001c-52.667 56 -121.334 103 -206.001 141c107.333 72.667 181.666 140.334 222.999 203.001
c39.333 62.667 59 140.667 59 234c-1.33301 70.667 -35.333 132 -102 184c-67.333 52 -149.333 78.667 -246 80c-144.667 -2.66699 -254 -45.667 -328 -129c-73.333 -80.667 -110 -169 -110 -265c1.33301 -76 29.333 -142.667 84 -200
c53.333 -57.333 118.666 -107.333 195.999 -150c-86 -53.333 -151.333 -110 -196 -170c-46.667 -61.333 -70 -135.666 -70 -222.999c0 -32.667 7 -65.334 21 -98.001c13.333 -35.333 34.333 -67.333 63 -96c56 -63.333 153 -96.333 291 -99v0zM522.003 38.998
c-62.667 0 -119.998 21.002 -171.998 63.002c-56 41.333 -84.667 105.666 -86 192.999c1.33301 135.333 69.666 242.333 204.999 321v0c83.333 -40.667 153.666 -84.334 210.999 -131.001c56 -48.667 84.667 -114 86 -196c-4 -168 -85.333 -251.333 -244 -250v0z
M526.005 1315c74 -1.33301 134.332 -23.998 180.999 -67.998c44.667 -46 66.334 -107.333 65.001 -184c-6.66699 -68.667 -30.667 -131 -72 -187c-42 -55.333 -89.667 -100.333 -143 -135v0c-90 50.667 -158.333 98.667 -205 144c-47.333 42 -71 98.667 -71 170
c0 73.333 23 134.666 69 183.999c45.333 49.333 104 74.666 176 75.999v0z" />
    <glyph glyph-name="V" unicode="9" 
d="M504 1399c-90 0 -176.663 -35.668 -259.996 -107.001c-18 -16 -36.667 -37 -56 -63c-17.333 -27.333 -33.666 -56.666 -48.999 -87.999c-31.333 -66 -47 -120.667 -47 -164c0 -48 7 -96 21 -144c8 -24 16.667 -47 26 -69c11.333 -22 23.666 -43.333 36.999 -64
c30 -39.333 69.667 -70.666 119 -93.999c48 -26 106.667 -39 176 -39c61.333 0 112 11 152 33c39.333 19.333 72 42 98 68l2 -4c-28.667 -170.667 -94.334 -310 -197.001 -418c-102 -109.333 -201.667 -182.333 -299 -219c-12 -4.66699 -18 -14.334 -18 -29.001
c1.33301 -19.333 11.666 -29 30.999 -29c17.333 1.33301 38.333 6.33301 63 15c104 31.333 202.333 88.666 295 171.999c120 108.667 206 229.334 258 362.001c50.667 132.667 76 268.667 76 408c0 16 -0.666992 37.667 -2 65c-2.66699 27.333 -8.33398 56 -17.001 86
c-14.667 64 -45.334 123.333 -92.001 178c-43.333 52 -89 89 -137 111s-108 33 -180 33v0zM510.004 1333c46.667 0 86.332 -9.66699 118.999 -29c30 -18.667 53.667 -45.667 71 -81c31.333 -71.333 47 -154 47 -248c2 -83.333 -8 -151 -30 -203
c-12.667 -27.333 -35.334 -53.333 -68.001 -78c-34 -26 -80.333 -39 -139 -39c-71.333 0 -130.666 31.667 -177.999 95c-50.667 61.333 -76 140.333 -76 237c1.33301 116 29.333 202.667 84 260c50.667 57.333 107.334 86 170.001 86v0z" />
    <glyph glyph-name="W" unicode=":" horiz-adv-x="520" 
d="M266 -25c34 1.33301 61.3301 12.332 81.9971 32.999c22 19.333 33 46 33 80c0 39.333 -11 70 -33 92c-23.333 20.667 -50.666 31 -81.999 31c-49.333 -1.33301 -82.666 -15.666 -99.999 -42.999c-19.333 -27.333 -28.333 -51.333 -27 -72c1.33301 -46 17 -78 47 -96
c28.667 -16.667 55.334 -25 80.001 -25v0zM265.997 642.999c34 0 61.3301 10.999 81.9971 32.999c22 18.667 33 45.334 33 80.001c0 39.333 -11 70 -33 92c-23.333 20.667 -50.666 31 -81.999 31c-49.333 -2 -82.666 -16.333 -99.999 -43
c-19.333 -27.333 -28.333 -51.333 -27 -72c1.33301 -46.667 17 -78.667 47 -96c28.667 -18 55.334 -26.333 80.001 -25v0z" />
    <glyph glyph-name="X" unicode=";" horiz-adv-x="520" 
d="M236 236c-37.333 0 -65.3311 -9.00195 -83.998 -27.002c-20.667 -19.333 -31 -42.666 -31 -69.999c1.33301 -48.667 18.333 -82.667 51 -102c15.333 -9.33301 29 -16.333 41 -21c10.667 -5.33301 19 -9.33301 25 -12c21.333 -9.33301 32.666 -29.666 33.999 -60.999
c-1.33301 -56 -19 -107.333 -53 -154s-64.667 -81.334 -92 -104.001c-14 -11.333 -20 -21.666 -18 -30.999c0 -12.667 8 -19 24 -19c8 2 15.667 5 23 9c6.66699 4 12.667 7.33301 18 10c10.667 6.66699 29.667 21 57 43c26 20.667 52.667 47.334 80 80.001
c28.667 32.667 52.667 71.667 72 117c19.333 43.333 29.666 91.666 30.999 144.999c-1.33301 65.333 -22 114.333 -62 147c-38 33.333 -76.667 50 -116 50v0zM236.002 642.998c34 0 60.999 10.999 80.999 32.999c22 18.667 33 45.334 33 80.001c0 39.333 -11 70 -33 92
c-22.667 20.667 -49.667 31 -81 31c-48 -2 -81 -16.333 -99 -43c-18.667 -27.333 -28 -51.333 -28 -72c1.33301 -46.667 17 -78.667 47 -96c28.667 -18 55.334 -26.333 80.001 -25v0z" />
    <glyph glyph-name="Y" unicode="&#x3c;" 
d="M809 82v139l-453 273v10l453 262v135v0l-637 -375v-65z" />
    <glyph glyph-name="Z" unicode="=" 
d="M115 711v-115h794v115h-794zM115 401v-114h794v114h-794z" />
    <glyph glyph-name="bracketleft" unicode="&#x3e;" 
d="M215 901v-139l453 -273v-10l-453 -262v-135v0l637 375v65z" />
    <glyph glyph-name="backslash" unicode="?" horiz-adv-x="758" 
d="M295 594c-1.33301 10.667 3.99805 16 15.998 16c31.333 1.33301 68.333 4 111 8c42 4.66699 83 13.667 123 27c40.667 14 74.667 38.667 102 74c26 34 39 82.333 39 145c-1.33301 64 -17.666 127.667 -48.999 191c-34 62.667 -76.333 120 -127 172
c-50.667 51.333 -103.334 93 -158.001 125c-54.667 31.333 -103.667 47 -147 47c-20.667 0 -37 -3.66699 -49 -11c-12.667 -6.66699 -23 -14 -31 -22c-14 -20.667 -20.333 -36.334 -19 -47.001c0 -27.333 14.333 -50.666 43 -69.999c26 -20.667 60.333 -31 103 -31
c40.667 0 79 -5.33301 115 -16c32.667 -12 73.334 -39.333 122.001 -82c30 -22 56 -48 78 -78s33 -65.333 33 -106c-2.66699 -62.667 -30 -105.667 -82 -129c-23.333 -12.667 -46.666 -21 -69.999 -25c-24 -5.33301 -45 -8 -63 -8c-40.667 -1.33301 -85.667 0.666992 -135 6
c-15.333 6.66699 -23 0.666992 -23 -18v-387c0 -10 5 -15 15 -15h39c9.33301 0 14 5 14 15v219zM278.998 -25c36.667 1.33301 65.333 12.998 86 34.998c20 22 30 46.667 30 74c0 31.333 -11 58 -33 80c-22.667 18.667 -49 29 -79 31c-36 -2 -63.333 -12.333 -82 -31
c-22 -20.667 -33 -48 -33 -82c0 -31.333 11.667 -56.666 35 -75.999c22 -19.333 47.333 -29.666 76 -30.999v0z" />
    <glyph glyph-name="bracketright" unicode="@" horiz-adv-x="1610" 
d="M545 518c0 46.667 14.334 102 43.001 166c26 62.667 59.333 124.667 100 186c42.667 63.333 87.667 115.333 135 156c46.667 40.667 91 61.667 133 63c27.333 -1.33301 48.666 -11.333 63.999 -30c14.667 -22 22 -48 22 -78c0 -34 -18.333 -87.333 -55 -160
c-22 -43.333 -75.333 -113 -160 -209c-39.333 -42 -79.333 -78 -120 -108c-41.333 -34 -79 -51 -113 -51c-32.667 0 -49 21.667 -49 65v0zM1120 133c-57.333 -35.333 -119.332 -57.665 -185.999 -66.998c-68.667 -11.333 -136.334 -17 -203.001 -17
c-148.667 1.33301 -270.667 47 -366 137c-98.667 90.667 -148.667 219 -150 385c2.66699 209.333 75 398.666 217 567.999c138 173.333 314 262.666 528 267.999c290 0 437.667 -150.333 443 -451c-4 -173.333 -45.667 -302.333 -125 -387c-78 -86 -148.333 -129 -211 -129
c-39.333 0 -59 13.667 -59 41c0 16.667 4 38.667 12 66c6.66699 26 14 52.667 22 80c20.667 58.667 38 104.334 52 137.001c9.33301 24.667 32.333 80.667 69 168c35.333 84.667 62 144 80 178c6.66699 12 3.33398 18.667 -9.99902 20h-78
c-6.66699 0 -13.334 -4.66699 -20.001 -14l-27 -39c-5.33301 16.667 -17 32.334 -35 47.001c-19.333 15.333 -49.333 23.666 -90 24.999c-60 -1.33301 -123.333 -23.333 -190 -66c-67.333 -42 -130.333 -97.333 -189 -166c-58.667 -66.667 -106.334 -139 -143.001 -217
c-40 -76 -60 -149.667 -60 -221c0 -38 11.667 -67.333 35 -88c20.667 -20.667 44 -31 70 -31c39.333 0 80.333 11.667 123 35c40.667 22 81 49.333 121 82c78.667 70 140 136.333 184 199l8 -4c-26 -70 -44.333 -124 -55 -162c-11.333 -41.333 -17 -68.666 -17 -81.999
c0 -16.667 8.33301 -31.667 25 -45c14.667 -15.333 31.667 -23 51 -23c184.667 4.66699 327.334 67.667 428.001 189c101.333 116 152.666 244.333 153.999 385c-1.33301 356 -183 538.333 -545 547c-238.667 -4.66699 -449 -99.667 -631 -285
c-186.667 -182.667 -283 -400.334 -289 -653.001c0 -170.667 56.667 -308 170 -412c110.667 -106.667 266.334 -160.667 467.001 -162c100 1.33301 191 13.666 273 36.999c83.333 22 141.333 47.333 174 76z" />
    <glyph glyph-name="asciicircum" unicode="A" horiz-adv-x="1522" 
d="M952 569c8.66699 -20 19 -49.332 31 -87.999c13.333 -38 26.333 -79 39 -123c28.667 -92.667 48.334 -161.334 59.001 -206.001c15.333 -53.333 -5 -79.333 -61 -78h-51c-12.667 0 -19 -5 -19 -15v-47c0 -12 5.66699 -18 17 -18c35.333 2.66699 131.333 4.66699 288 6
c82 -0 140 -0.666992 174 -2c33.333 -2.66699 57.333 -4 72 -4c14 0 21 4.66699 21 14v51c0 10 -5.66699 15 -17 15h-67c-54.667 -1.33301 -101.334 29.334 -140.001 92.001c-17.333 42 -49.333 130 -96 264c-22 62.667 -42.333 124 -61 184l-52 152l-237 719
c-4 23.333 -11.667 35 -23 35c-8 -2 -16.667 -8.33301 -26 -19c-12.667 -16 -36.667 -35 -72 -57c-34 -22 -66.667 -37 -98 -45c-14 -6 -20.333 -12.333 -19 -19c0 -8 5 -16.667 15 -26c8 -11.333 10.667 -23 8 -35c-2.66699 -12.667 -6 -24.334 -10 -35.001l-199 -537
c-96.667 -260.667 -171 -453.667 -223 -579c-14 -32.667 -29.667 -56 -47 -70c-18 -16 -42 -24 -72 -24h-72c-9.33301 0 -14.666 -5 -15.999 -15v-49c0 -10.667 4.66699 -16 14 -16c14 2.66699 88.667 4.66699 224 6c61.333 -0 112.333 -0.666992 153 -2
c39.333 -2.66699 66 -4 80 -4c10.667 0 16 6 16 18v47c0 10 -6.66699 15 -20 15h-96c-46.667 0 -70 15 -70 45c0 13.333 2 28.333 6 45c9.33301 32.667 32.666 99.667 69.999 201c16 46 31.667 88 47 126c13.333 38.667 22 64.667 26 78h504zM475 643.001l113 311.001
l106 291c6.66699 19.333 14.334 29.666 23.001 30.999c5.33301 -1.33301 10.666 -11 15.999 -29l195 -604h-453z" />
    <glyph glyph-name="underscore" unicode="B" horiz-adv-x="1352" 
d="M283 649c0 -90 -0.666016 -185.665 -1.99902 -286.998c-1.33301 -100.667 -4.33301 -166.667 -9 -198c-1.33301 -16.667 -3.33301 -29.667 -6 -39c-1.33301 -12.667 -5.33301 -23 -12 -31c-10.667 -13.333 -32 -20 -64 -20h-98c-13.333 0 -19.333 -5 -18 -15v-53
c-1.33301 -8 8 -12 28 -12c56 2.66699 143.667 4.66699 263 6c74.667 -1.33301 177 -3.33301 307 -6c181.333 0 311.666 24.667 390.999 74c48 32.667 87 79 117 139c27.333 58.667 41 114.667 41 168c-2 108 -32.333 194.667 -91 260s-139 113.666 -241 144.999l-6 4
c40.667 22 76.667 43.333 108 64c31.333 17.333 57.333 38.333 78 63s37 54 49 88c9.33301 33.333 14 74.333 14 123c3.33301 121.333 -49 214.333 -157 279c-76.667 38 -197.667 56.333 -363 55c-90 -2.66699 -176.667 -4.66699 -260 -6
c-147.333 2.66699 -238 4.66699 -272 6c-11.333 0 -17 -4.66699 -17 -14v-52c0 -9.33301 5.66699 -14 17 -14h63c46.667 1.33301 80.334 -4 101.001 -16c20 -14 30.667 -49.667 32 -107c3.33301 -100.667 5.66602 -221.334 6.99902 -362.001v-242zM463.001 741.002
l65 0.000976562c48 0 96 -1.33301 144 -4c46 -4 89.667 -14 131 -30c132 -48 200.333 -155.333 205 -322c-2 -118.667 -35 -203.334 -99 -254.001c-64 -49.333 -141 -73.333 -231 -72c-82 0 -138.667 22.667 -170 68c-31.333 42 -46.333 110.333 -45 205v282v127z
M463.001 962.003c0 194 1.33301 324 4 390c0 18.667 9.66699 30.667 29 36c16 1.33301 38.333 2 67 2c109.333 2 203 -21 281 -69c38 -27.333 64.667 -60 80 -98c13.333 -38.667 20 -77.667 20 -117c0 -45.333 -8.33301 -89 -25 -131c-17.333 -44 -47.333 -82.333 -90 -115
c-51.333 -35.333 -137.333 -53 -258 -53c-34 0 -70 1.33301 -108 4v151z" />
    <glyph glyph-name="grave" unicode="C" horiz-adv-x="1528" 
d="M836 -31c146 2.66699 268.664 38.3281 367.997 106.995c100 66.667 180.667 145.667 242 237c5.33301 10 4 16.333 -4 19l-27 20c-5.33301 6.66699 -10.666 4.66699 -15.999 -6c-48 -68 -115 -127.333 -201 -178c-86 -53.333 -187.667 -80.666 -305 -81.999
c-66.667 -1.33301 -131.667 8.33398 -195 29.001c-62.667 20 -128.667 67.667 -198 143c-78 91.333 -130.667 187 -158 287c-27.333 96.667 -40.333 176.334 -39 239.001c-1.33301 157.333 38.334 299.333 119.001 426c80.667 128.667 211.667 195 393 199
c80.667 0 150.334 -15 209.001 -45c56 -28.667 105 -66.334 147 -113.001c42.667 -43.333 77 -87.666 103 -132.999c24.667 -44.667 43.667 -85 57 -121c5.33301 -14.667 12.333 -20 21 -16l30 8c8.66699 2.66699 11.334 9.66699 8.00098 21l-28 206
c-15.333 98.667 -23 162.334 -23 191.001c0 13.333 -0.666992 23 -2 29c-4 2.66699 -10.667 4 -20 4c-16.667 1.33301 -25.667 -3 -27 -13l-16 -59c-2.66699 -15.333 -16.334 -15.333 -41.001 0c-36.667 24.667 -90.667 49.334 -162 74.001
c-72.667 24.667 -156.667 37.667 -252 39c-112 -1.33301 -211.667 -21.333 -299 -60c-88.667 -40.667 -159.667 -89.667 -213 -147c-142 -164 -211.667 -345 -209 -543c0 -100.667 18.667 -203 56 -307c36.667 -105.333 91 -194 163 -266
c60.667 -56 132.334 -101 215.001 -135c83.333 -34.667 184.666 -52.667 303.999 -54v0z" />
    <glyph glyph-name="a" unicode="D" horiz-adv-x="1665" 
d="M293 786c0 -94 -1.3291 -217.997 -3.99609 -371.997c0 -72.667 -1.33301 -135.667 -4 -189c-1.33301 -54.667 -3.33301 -88.667 -6 -102c-2 -16.667 -8.33301 -29 -19 -37s-26.334 -12 -47.001 -12h-137c-11.333 0 -17 -4.33301 -17 -13v-53c0 -9.33301 5 -14 15 -14
c21.333 2.66699 117.333 4.66699 288 6c108 -1.33301 233.667 -3.33301 377 -6c41.333 0 88.666 1.33301 141.999 4c51.333 2.66699 105.666 11 162.999 25c119.333 21.333 230 84 332 188c135.333 135.333 203 315 203 539c-5.33301 236 -81 410 -227 522
c-90.667 76 -191 126.333 -301 151c-110.667 23.333 -232.334 34.333 -365.001 33c-98 -2.66699 -199.667 -4.66699 -305 -6c-91.333 0 -161 1.33301 -209 4c-48 1.33301 -78.667 2 -92 2c-9.33301 0 -14 -3.33301 -14 -10v-56c0 -10.667 5.33301 -15.334 16 -14.001h113
c28.667 0 49.667 -3.33301 63 -10c15.333 -6.66699 23.666 -22.334 24.999 -47.001c2.66699 -27.333 5.33398 -88 8.00098 -182c1.33301 -94.667 2 -160.334 2 -197.001v-154zM481.004 887.003c0 102 0.666992 230.998 2 386.998c0 44.667 13 76.667 39 96
c20.667 10.667 47.334 16.667 80.001 18s60.667 2 84 2c232 -4 403.333 -69.333 514 -196c108 -126 164 -277 168 -453c-4 -193.333 -54 -346.666 -150 -459.999c-106 -143.333 -266.333 -217.333 -481 -222c-52 0 -96.333 6.33301 -133 19
c-39.333 10.667 -67.333 26.334 -84 47.001c-24.667 38 -36.334 76.333 -35.001 115c-2.66699 216.667 -4 383.667 -4 501v146z" />
    <glyph glyph-name="b" unicode="E" horiz-adv-x="1413" 
d="M487 1384l364.997 -8.00195c58.667 -5.33301 110.667 -23.666 156 -54.999c13.333 -6.66699 31.666 -21.667 54.999 -45c20.667 -23.333 42.334 -49.333 65.001 -78c49.333 -62.667 77.333 -99.667 84 -111c4 -5.33301 9.66699 -7.33301 17 -6l30 17
c7.33301 4 9.66602 10 6.99902 18l-105 330c-1.33301 6.66699 -6.66602 10 -15.999 10c-16.667 -2.66699 -44 -4 -82 -4c-202 -1.33301 -404.667 -2 -608 -2h-90c-128.667 2.66699 -212.667 4.66699 -252 6c-10 0 -15 -3.33301 -15 -10v-56
c0 -10.667 5.66699 -15.334 17 -14.001h73c38.667 0 65.334 -4.66699 80.001 -14c8.66699 -5.33301 15 -13.666 19 -24.999c2.66699 -10.667 4.66699 -24.334 6 -41.001c2.66699 -16 4.66699 -71.333 6 -166v-280v-201v-485c0 -35.333 -4.66699 -59.333 -14 -72
c-12.667 -13.333 -42 -19.333 -88 -18h-82c-14 0 -21 -3.66699 -21 -11v-55c0 -9.33301 6.33301 -14 19 -14c28.667 2.66699 116 4.66699 262 6c312.667 0 527 -0.666992 643 -2c114.667 -2.66699 173.334 -4 176.001 -4c24.667 1.33301 39.667 11.666 45 30.999l108 301
c7.33301 14.667 6 24 -4 28l-32 19c-11.333 4 -19.666 -0.333008 -24.999 -13c-18 -27.333 -46 -66 -84 -116c-39.333 -50.667 -67.333 -83.667 -84 -99c-28.667 -21.333 -60 -37.666 -94 -48.999c-35.333 -12 -63.333 -19.333 -84 -22c-64 -4 -124 -6 -180 -6
s-106.667 4.66699 -152 14c-31.333 5.33301 -58 20.333 -80 45c-21.333 24.667 -33.666 63 -36.999 115c-2.66699 82 -4 198.667 -4 350v127c58.667 0 149 -3.33301 271 -10c27.333 -1.33301 47.666 -9.66602 60.999 -24.999c12.667 -13.333 21.667 -31.666 27 -54.999
c8 -30 15.333 -62.333 22 -97c1.33301 -13.333 7 -19.333 17 -18l45 6c8 1.33301 12 7 12 17c-6.66699 57.333 -10.667 128.333 -12 213c0 21.333 0.666992 60 2 116c0 14 1.33301 27 4 39v33v45c2.66699 9.33301 -1.33301 14.666 -12 15.999l-52 2
c-9.33301 0 -14 -4.66699 -14 -14c-2.66699 -42 -8 -75.333 -16 -100c-11.333 -56 -43 -86 -95 -90c-20 -1.33301 -63.667 -3.66602 -131 -6.99902c-69.333 -4 -112.333 -6 -129 -6v600z" />
    <glyph glyph-name="c" unicode="F" horiz-adv-x="1225" 
d="M287 770c0 -372.667 -2.66211 -589.666 -7.99512 -650.999c1.33301 -31.333 -22.667 -46.333 -72 -45h-92c-10 0 -15 -3.66699 -15 -11v-55c0 -9.33301 4.33301 -14 13 -14c24 2.66699 113.333 4.66699 268 6c87.333 0 153.666 -0.666992 198.999 -2
c43.333 -2.66699 69.666 -4 78.999 -4c11.333 0 17 5.33301 17 16v51c0 8.66699 -6.33301 13 -19 13h-100c-32.667 0 -53.667 4.66699 -63 14c-11.333 8 -17 25 -17 51c-1.33301 130 -2 275.333 -2 436v76c61.333 1.33301 154.333 -2.66699 279 -12
c43.333 -5.33301 71.333 -32 84 -80c9.33301 -36.667 16.666 -70 21.999 -100c1.33301 -11.333 6 -16.333 14 -15l39 9c10 1.33301 15 6.66602 15 15.999c-7.33301 54.667 -11 125.667 -11 213c0 20.667 0.666992 59.667 2 117c0 56 1 94.667 3 116c0 10 -4.33301 15 -13 15
l-41 2c-8 0 -12.667 -5 -14 -15c-6.66699 -40.667 -13.667 -74 -21 -100c-8 -30 -18.667 -51 -32 -63c-16.667 -14 -36 -23 -58 -27c-20 -1.33301 -63.667 -3.33301 -131 -6c-69.333 -2.66699 -115 -4 -137 -4v102c0 237.333 0.666992 425 2 563
c42.667 0 117.667 -0.666992 225 -2c49.333 -1.33301 94 -3.33301 134 -6c39.333 -2.66699 65.666 -6 78.999 -10c60 -15.333 108 -47.333 144 -96c64 -86 107.667 -149 131 -189c5.33301 -12 10.666 -16.667 15.999 -14l37 14c4 1.33301 5.33301 6.33301 4 15
c-31.333 130.667 -58.666 252 -81.999 364c-10.667 -1.33301 -53.667 -2 -129 -2c-76 -2.66699 -163.333 -4 -262 -4c-217.333 -1.33301 -349 -2 -395 -2c-97.333 0 -169 1.33301 -215 4c-45.333 0 -73.333 0.666992 -84 2c-9.33301 0 -14 -4 -14 -12v-56
c0 -8 4.66699 -12 14 -12h119c56 0 84 -19.667 84 -59c1.33301 -101.333 2.66602 -236 3.99902 -404v-143z" />
    <glyph glyph-name="d" unicode="G" horiz-adv-x="1675" 
d="M1255 301c0 -52 -2.66504 -91.668 -7.99805 -119.001c-6.66699 -27.333 -22.334 -47.666 -47.001 -60.999c-34 -20.667 -77.667 -37 -131 -49c-54.667 -14 -123 -21 -205 -21c-135.333 0 -255.333 48.667 -360 146c-130 130.667 -195 321.667 -195 573
c2.66699 191.333 62.667 348.333 180 471c62 65.333 125.667 109.666 191 132.999c64 22 131 33 201 33c92.667 -1.33301 170.334 -19 233.001 -53c61.333 -36 107.666 -74.333 138.999 -115c37.333 -44 65.333 -87.667 84 -131c18 -44 31 -81 39 -111
c2.66699 -10.667 8.33398 -16 17.001 -16l36 4c7.33301 0 11 6 11 18l-7 392c0 14.667 -6 22.667 -18 24c-10.667 -1.33301 -20.334 -7.33301 -29.001 -18l-30 -37c-11.333 -18 -27 -18.667 -47 -2c-36 28.667 -89.333 55.334 -160 80.001
c-72.667 24.667 -154 37.667 -244 39c-241.333 -1.33301 -433 -66.333 -575 -195c-154.667 -147.333 -232 -320.666 -232 -519.999c0 -240.667 63 -428.334 189 -563.001c74.667 -80.667 165.334 -139.334 272.001 -176.001c106.667 -38.667 207 -58 301 -58
c218.667 1.33301 405 45 559 131c22 7.33301 33 18.333 33 33c-4 16.667 -6.66699 38.667 -8 66v270c0 32.667 6.66699 54.334 20 65.001c11.333 8.66699 25.666 13 42.999 13h80c9.33301 0 14 5.33301 14 16v49c0 10 -5.33301 15 -16 15
c-20.667 -2.66699 -101.334 -5 -242.001 -7c-142 3.33301 -228.667 5.66602 -260 6.99902c-9.33301 0 -13.333 -5.66699 -12 -17v-51c0 -8 4.66699 -12 14 -12h86c57.333 2.66699 85.333 -28.666 84 -93.999v-152z" />
    <glyph glyph-name="e" unicode="H" horiz-adv-x="1747" 
d="M274 719c-1.33301 -161.333 -3.33008 -343.665 -5.99707 -546.998c0 -26 -2.66699 -48.667 -8 -68c-6.66699 -20 -23 -30 -49 -30h-121c-9.33301 0 -14 -4.33301 -14 -13v-53c0 -9.33301 4.66699 -14 14 -14c30 2.66699 125 4.66699 285 6c72 0 129.333 -0.666992 172 -2
c39.333 -2.66699 68 -4 86 -4c10.667 0 16 4.66699 16 14v51c0 10 -5.33301 15 -16 15h-101c-42 -1.33301 -63.667 21.667 -65 69c-2.66699 216 -4 387.333 -4 514v43c-1.33301 14 8 21 28 21h750c19.333 0 31.666 -0.666992 36.999 -2
c5.33301 -2.66699 8 -10.334 8 -23.001v-28c-1.33301 -156 -3.33301 -322.667 -6 -500c0 -27.333 -2.66699 -49.333 -8 -66c-7.33301 -18.667 -23 -28 -47 -28h-129c-11.333 0 -17 -5 -17 -15v-51c0 -8 4.33301 -12.667 13 -14c43.333 2.66699 145 4.66699 305 6
c74.667 0 132 -0.666992 172 -2c39.333 -2.66699 68 -4 86 -4c10.667 0 16 5.33301 16 16v49c0 10 -6 15 -18 15h-90c-56 -1.33301 -83.333 32.667 -82 102c-4.66699 216 -7 406.333 -7 571v70c2 173.333 3.66699 323.666 5 450.999c-1.33301 36.667 2.66699 64.667 12 84
c8 16 25.667 24 53 24h92c11.333 -1.33301 17 3.33398 17 14.001v50c0 10.667 -5.66699 16 -17 16c-36.667 -2.66699 -124 -4.66699 -262 -6c-138 2.66699 -228 4.66699 -270 6c-10 0 -14 -4 -12 -12v-54c0 -9.33301 4.66699 -14 14 -14h106c30 0 49.333 -8.66699 58 -26
c6.66699 -19.333 10 -45.333 10 -78c2.66699 -96 4.66699 -238 6 -426v-21c0 -21.333 -13.667 -31.333 -41 -30h-758c-17.333 0 -25.333 5.33301 -24 16v35c1.33301 181.333 2.66602 319 3.99902 413c0 41.333 5.33301 71.666 16 90.999c10 17.333 31.333 26 64 26h104
c11.333 0 17 5.66699 17 17v53c0 6.66699 -7 10 -21 10c-30 -2.66699 -120.667 -4.66699 -272 -6c-88.667 0 -153.667 1.33301 -195 4c-42 1.33301 -72.667 2 -92 2c-10.667 0 -16 -4.66699 -16 -14v-49c-1.33301 -11.333 2.66699 -17 12 -17h96
c38.667 0 64 -8.66699 76 -26c9.33301 -19.333 14 -55 14 -107c1.33301 -98 2.66602 -243.333 3.99902 -436v-88z" />
    <glyph glyph-name="f" unicode="I" horiz-adv-x="760" 
d="M287 715c0 -68.667 -0.666016 -174.666 -1.99902 -317.999c-2.66699 -144.667 -5.66699 -232.667 -9 -264c-4 -26 -14.667 -42.333 -32 -49c-18 -6.66699 -38 -10 -60 -10h-114c-11.333 0 -17 -4.33301 -17 -13v-55c0 -8 5.66699 -12 17 -12
c16 2.66699 117.667 4.66699 305 6c90 0 156.667 -0.666992 200 -2c45.333 -2.66699 73.333 -4 84 -4c12.667 0 19 4 19 12v53c0 10 -5.66699 15 -17 15h-84c-31.333 0 -55 4.66699 -71 14c-16.667 9.33301 -25 29 -25 59c-2.66699 174 -4.66699 346.333 -6 517v157
c2.66699 168 4.66699 334 6 498c0 20.667 7.66699 35.667 23 45c12 8 28.333 12 49 12h96c11.333 0 17 4.66699 17 14v52c0 9.33301 -5 14 -15 14c-14.667 -2.66699 -106.667 -4.66699 -276 -6c-94.667 0 -168.334 1.33301 -221.001 4c-53.333 1.33301 -86.333 2 -99 2
c-9.33301 0 -14 -4 -14 -12v-56c0 -8 5.33301 -12 16 -12h119c38 0 64.667 -4.66699 80 -14c13.333 -12.667 21 -31 23 -55c4 -140.667 6.66699 -290.334 8 -449.001v-143z" />
    <glyph glyph-name="g" unicode="J" horiz-adv-x="680" 
d="M258 680c1.33301 -92.667 3.33301 -240.667 6 -444c0 -94.667 -2 -183 -6 -265c-5.33301 -82 -15 -142.667 -29 -182c-26 -69.333 -63.333 -112.333 -112 -129c-11.333 32.667 -32 59.334 -62 80.001c-30 19.333 -62.667 29 -98 29c-32.667 0 -60 -8.33301 -82 -25
c-20.667 -18 -31.667 -42.667 -33 -74c2.66699 -43.333 22 -74 58 -92c32.667 -17.333 60 -26 82 -26c78.667 1.33301 151.667 30 219 86c66.667 54 120.334 118 161.001 192c53.333 98 78.666 212 75.999 342c2.66699 62.667 5.33398 232 8.00098 508v94
c0 288 2.33301 469 7 543c-1.33301 39.333 23.667 59 75 59h103c10.667 0 16 5.66699 16 17v51c0 8 -5.33301 12 -16 12c-20.667 -2.66699 -113 -4.66699 -277 -6c-95.333 0 -165 1.33301 -209 4c-44.667 1.33301 -72.667 2 -84 2c-10.667 0 -15.334 -4.66699 -14.001 -14
v-56c0 -6.66699 4.66699 -10 14 -10h91c39.333 0 66.333 -5.33301 81 -16c14 -12.667 20.333 -30.334 19 -53.001c4 -188.667 6 -350 6 -484v-143z" />
    <glyph glyph-name="h" unicode="K" horiz-adv-x="1458" 
d="M274 756v-410.002v-160c-1.33301 -43.333 -3.33301 -68.333 -6 -75c-1.33301 -23.333 -19.666 -35.666 -54.999 -36.999h-84c-9.33301 0 -14 -4.33301 -14 -13v-53c0 -9.33301 4.66699 -14 14 -14c10.667 2.66699 92.667 4.66699 246 6c72 0 126 -0.666992 162 -2
c35.333 -2.66699 58.333 -4 69 -4c8 1.33301 12 6 12 14v53c0 8.66699 -5.33301 13 -16 13h-90c-27.333 0 -43 15 -47 45c-4 108 -6 252 -6 432v147h39c28.667 1.33301 58.667 -8.66699 90 -30c9.33301 -6 34.666 -34.667 75.999 -86l133 -177l133 -178
c38 -53.333 59.667 -86.666 65 -99.999c6.66699 -10.667 8 -21.667 4 -33c-5.33301 -14.667 -17.666 -22 -36.999 -22h-30c-8.66699 0 -13 -4.33301 -13 -13v-53c0 -8 4.33301 -12 13 -12c22 2.66699 114.667 4.66699 278 6c78 -0 136.667 -0.666992 176 -2
c41.333 -2.66699 66.666 -4 75.999 -4c11.333 0 17 4.66699 17 14v51c0 10 -5 15 -15 15h-71c-24.667 0 -50 3.33301 -76 10c-26 8 -48.667 21.667 -68 41l-549 680c54.667 69.333 136.667 166.333 246 291l139 153c42.667 45.333 73.667 74.666 93 87.999
c18.667 15.333 39 25.666 61 30.999c19.333 5.33301 36.333 8 51 8h43c11.333 0 17 4.66699 17 14v56c0 6.66699 -5 10 -15 10c-34 -2.66699 -85.667 -4.66699 -155 -6c-102.667 2.66699 -170.334 4.66699 -203.001 6c-8 0 -12 -4.66699 -12 -14v-47
c0 -10 3.33301 -15 10 -15h28c28.667 -1.33301 35 -17.666 19 -48.999c-22 -31.333 -91.667 -120.666 -209 -267.999l-145 -178l-54 -64c-16 -16 -27.333 -27 -34 -33c-26 -18.667 -54 -28 -84 -28h-37v102c2.66699 186 4.66699 336.333 6 451
c0 24.667 4.66699 41.667 14 51c8 8 22.333 12 43 12h86c10 0 15 4.66699 15 14v54c0 8 -5.66699 12 -17 12c-22 -2.66699 -99 -4.66699 -231 -6c-75.333 0 -130.666 1.33301 -165.999 4c-38 1.33301 -62.667 2 -74 2c-10.667 0 -16 -4 -16 -12v-54
c0 -9.33301 5.33301 -14 16 -14h72c26 0 43 -4.66699 51 -14c6.66699 -11.333 10 -23 10 -35c2.66699 -140.667 4.66699 -291.667 6 -453v-118z" />
    <glyph glyph-name="i" unicode="L" horiz-adv-x="1356" 
d="M287 803c-2.66699 -268 -4.66406 -492.669 -5.99707 -674.002c0 -13.333 -5 -25.666 -15 -36.999c-10.667 -12 -35.334 -18 -74.001 -18h-98c-10.667 0 -15.334 -5 -14.001 -15v-51c-1.33301 -9.33301 4 -14 16 -14c20.667 2.66699 108 4.66699 262 6h496
c199.333 -1.33301 321.666 -3.33301 366.999 -6l22 88c4 20.667 9.33301 42.334 16 65.001c6 23.333 11 46 15 68c26 105.333 41.667 167.333 47 186c2.66699 11.333 1.33398 17.666 -3.99902 18.999l-33 12c-6.66699 4 -12 1.33301 -16 -8
c-16.667 -48 -50.334 -113 -101.001 -195c-24.667 -38 -51.334 -70.667 -80.001 -98c-30 -27.333 -60.667 -44.333 -92 -51c-44.667 -2.66699 -132 -4 -262 -4c-130.667 0 -214.667 1.33301 -252 4c-5.33301 211.333 -7.33301 398.333 -6 561v176
c2.66699 218.667 4.66699 378.334 6 479.001c-1.33301 30 3 51.333 13 64c9.33301 10.667 29 16 59 16h123c13.333 0 20 5.66699 20 17v47c1.33301 10.667 -4.66699 16 -18 16c-11.333 -2.66699 -112.333 -4.66699 -303 -6c-83.333 0 -145.666 1.33301 -186.999 4
c-42 1.33301 -68.333 2 -79 2c-11.333 0 -16.333 -4.66699 -15 -14v-45c-1.33301 -14 3.66699 -21 15 -21h96c30 0 50.333 -5.33301 61 -16c10 -12.667 15 -32 15 -58c2.66699 -80 4.66699 -208.333 6 -385v-114z" />
    <glyph glyph-name="j" unicode="M" horiz-adv-x="2009" 
d="M543 1421c-7.33301 23.333 -25.335 34.999 -54.002 34.999c-21.333 -2.66699 -79.333 -4.66699 -174 -6c-159.333 2.66699 -242.333 4.66699 -249 6c-11.333 -1.33301 -16.333 -5.33301 -15 -12v-54c-1.33301 -9.33301 3.66699 -14 15 -14h124
c22 0 39.333 -0.666992 52 -2c10.667 -4 18 -9.33301 22 -16c8 -14 11.333 -33.333 10 -58c1.33301 -147.333 2 -279.666 2 -396.999c0 -35.333 -1.33301 -139 -4 -311c-5.33301 -172 -14 -303.667 -26 -395c-4 -36 -13.667 -64.667 -29 -86
c-14.667 -24.667 -41.334 -37 -80.001 -37h-108c-10 -1.33301 -14.333 -5.66602 -13 -12.999v-49c-1.33301 -12 5 -18 19 -18c10.667 2.66699 98.667 4.66699 264 6c156.667 -1.33301 239.334 -3.33301 248.001 -6c13.333 1.33301 19.333 6 18 14v51
c0 10 -4.66699 15 -14 15h-103c-31.333 -1.33301 -53 9.33398 -65 32.001c-14 22 -23.667 61 -29 117c-1.33301 53.333 -2 148.333 -2 285c-1.33301 135.333 -2 216.666 -2 243.999c0 32.667 1.33301 128 4 286c2.66699 70 4.66699 133 6 189c0 56 0.666992 88 2 96
c10 -8 26.667 -36.667 50 -86c22.667 -49.333 47.667 -108 75 -176c62 -146 105 -251.333 129 -316l279 -686c4 -9.33301 9.33301 -17.333 16 -24c4 -8 9 -12 15 -12c8 0 16 6 24 18c6.66699 10.667 12.334 21 17.001 31l247 565c18 36.667 70.667 152 158 346l109 231
c31.333 67.333 49.666 105.666 54.999 114.999h4c2.66699 -5.33301 4.66699 -28 6 -68v-147v-303v-131v-313v-146c0 -40.667 -1.33301 -65.334 -4 -74.001c-1.33301 -30 -6 -49.667 -14 -59c-10 -9.33301 -24.333 -14 -43 -14h-140c-12 0 -17.333 -5 -16 -15v-47
c-1.33301 -12 4 -18 16 -18c18 2.66699 116.333 4.66699 295 6c196.667 -1.33301 292.334 -3.33301 287.001 -6c14 0 20 6 18 18v47c0 10 -4.66699 15 -14 15h-121c-47.333 -1.33301 -70.333 35.334 -69 110.001c-2.66699 128.667 -4.66699 287 -6 475v144
c2.66699 202 4.66699 365 6 489c-1.33301 24.667 2.66699 45.334 12 62.001c6.66699 14.667 25 22 55 22h90c11.333 0 17 6.33301 17 19v47c0 9.33301 -4.33301 14 -13 14c4.66699 -2.66699 -116.666 -4.66699 -363.999 -6c-10.667 0 -20.334 -0.666992 -29.001 -2
c-9.33301 -2.66699 -15.333 -10.334 -18 -23.001c-1.33301 -12 -13.666 -44 -36.999 -96l-80 -182l-80 -176l-47 -97c-4 -8 -17 -38 -39 -90l-80 -180c-30 -65.333 -56.333 -125.333 -79 -180c-24.667 -53.333 -42 -85.333 -52 -96z" />
    <glyph glyph-name="k" unicode="N" horiz-adv-x="1628" 
d="M276 836c0 -376 -2.66699 -588.333 -8 -637c-4 -48 -12.667 -81 -26 -99c-14 -18.667 -36 -27.334 -66 -26.001h-70c-9.33301 -1.33301 -13.333 -5.66602 -12 -12.999v-53c0 -9.33301 3.33301 -14 10 -14c57.333 2.66699 125.666 4.66699 204.999 6
c32.667 -0 71 -0.666992 115 -2c42 -2.66699 70 -4 84 -4c10.667 0 16 5.33301 16 16v45c0 12.667 -5.33301 19 -16 19h-62c-48.667 0 -73.667 39.333 -75 118c-11.333 113.333 -18.333 302 -21 566v454h12l203 -252l139 -170c41.333 -48.667 64.666 -78 69.999 -88
c9.33301 -9.33301 44.333 -51 105 -125l200 -253l174 -215c48 -62 73.333 -95.667 76 -101c4 -5.33301 10 -11.333 18 -18c8.66699 -8.66699 19 -13.667 31 -15c6.66699 1.33301 10 18 10 50v765c-1.33301 156 1.66699 314 9 474c1.33301 74.667 28 112 80 112h55
c8 0 12 4.66699 12 14v52c0 9.33301 -5.33301 14 -16 14c-18 -2.66699 -84.333 -4.66699 -199 -6c-65.333 0 -115 1.33301 -149 4c-37.333 1.33301 -62.666 2 -75.999 2c-8 0 -12 -4 -12 -12v-54c0 -9.33301 4 -14 12 -14h65c58.667 -1.33301 96.334 -28 113.001 -80
c6.66699 -23.333 12.667 -69.666 18 -138.999c4.66699 -70.667 7 -129.334 7 -176.001c4 -88.667 6 -217 6 -385v-244h-9l-417 518l-430 557c-15.333 18 -35.333 27 -60 27c-23.333 -2.66699 -69 -4 -137 -4s-116.333 1.33301 -145 4c-28.667 0 -48 0.666992 -58 2
c-9.33301 0 -13.333 -4 -12 -12v-54c-1.33301 -9.33301 2.66699 -14 12 -14l84 -2c38.667 0 71 -16.333 97 -49c25.333 -32.667 38 -79.667 38 -141v-348z" />
    <glyph glyph-name="l" unicode="O" horiz-adv-x="1681" 
d="M840 -31c140.667 1.33301 259.333 29.334 356 84.001c95.333 53.333 173 121.666 233 204.999c104 146 155.333 295.667 154 449c-1.33301 140 -29.333 261.333 -84 364c-53.333 102.667 -119 185.334 -197 248.001c-80 65.333 -159.667 109.666 -239 132.999
c-80.667 19.333 -153.667 29 -219 29c-86 1.33301 -177 -14.667 -273 -48c-96.667 -34 -190.667 -104.667 -282 -212c-75.333 -96 -126.666 -189 -153.999 -279c-26 -88.667 -38.333 -165.667 -37 -231c1.33301 -150.667 33.666 -277.667 96.999 -381
c61.333 -105.333 129.333 -181.333 204 -228c84.667 -47.333 166.667 -81.333 246 -102c78 -20.667 143 -31 195 -31v0zM855.999 47.001c-44 0 -96.668 12.998 -158.001 38.998s-121.333 67.667 -180 125s-107.667 133 -147 227c-42.667 92.667 -64 205.334 -64 338.001
c0 86 17.667 175.333 53 268c33.333 90.667 84 170 152 238c39.333 36.667 77 64 113 82c35.333 17.333 67.333 29 96 35c30 5.33301 55.333 8 76 8c18.667 -2.66699 31.667 -4 39 -4c122.667 -1.33301 242.667 -63.666 360 -186.999c120 -124 182 -299.333 186 -526
c0 -46.667 -5.33301 -104.667 -16 -174c-14 -70.667 -39.333 -141.667 -76 -213c-35.333 -70.667 -88.666 -130 -159.999 -178c-70.667 -50.667 -162 -76.667 -274 -78v0z" />
    <glyph glyph-name="m" unicode="P" horiz-adv-x="1243" 
d="M461 649c69.333 -6.66699 143.671 -9.99805 223.004 -9.99805c341.333 5.33301 514.666 144.666 519.999 417.999c-2.66699 124 -54.334 223 -155.001 297c-54.667 40.667 -115.667 68.667 -183 84c-68 12 -159.333 18 -274 18c-90 -2.66699 -165 -4.66699 -225 -6
c-183.333 2.66699 -280.333 4.66699 -291 6c-10 0 -14.333 -4.66699 -13 -14v-49c-1.33301 -11.333 3 -17 13 -17h116c29.333 0 49.333 -2 60 -6c12 -5.33301 18.667 -18.333 20 -39c2.66699 -14.667 4 -63 4 -145v-234v-235c0 -127.333 -0.666992 -250.333 -2 -369v-141
c-1.33301 -38.667 -3.33301 -61.334 -6 -68.001c-1.33301 -26 -7.33301 -43 -18 -51c-14 -9.33301 -38 -14 -72 -14h-88c-9.33301 0 -13.333 -5 -12 -15v-51c-1.33301 -8 4 -12.667 16 -14c15.333 2.66699 109.666 4.66699 282.999 6
c95.333 -0 163.666 -0.666992 204.999 -2c40.667 -2.66699 67 -4 79 -4c14 0 20.333 5.33301 19 16v49c0 10 -5.33301 15 -16 15h-132c-42 0 -64.333 21.667 -67 65c-2.66699 101.333 -4 236 -4 404v106zM461.005 1376c23.333 8 51.333 12.666 84 13.999h75
c32 0 69 -4.66699 111 -14c20.667 -4 41.334 -10 62.001 -18c20 -10 39.667 -21.667 59 -35c39.333 -24.667 72.666 -59.667 99.999 -105c26 -44.667 39 -100.334 39 -167.001c0 -36 -2.66699 -71.667 -8 -107c-8 -35.333 -23 -68.666 -45 -99.999
c-27.333 -37.333 -66.333 -68.666 -117 -93.999c-50.667 -30.667 -108 -46 -172 -46c-82 0 -144.667 6.33301 -188 19v653z" />
    <glyph glyph-name="n" unicode="Q" horiz-adv-x="1669" 
d="M823 1481c-57.333 2.66699 -131.664 -11.0029 -222.997 -41.0029c-94 -33.333 -182.667 -85.333 -266 -156c-156 -148.667 -234.667 -326.667 -236 -534c5.33301 -247.333 71.666 -427.666 198.999 -540.999c96.667 -97.333 184.667 -161 264 -191
c36.667 -16 68.667 -28 96 -36l54 -19c301.333 -138 563.333 -235.667 786 -293c176 -43.333 304.333 -70.666 385 -81.999c80.667 -9.33301 134.667 -14 162 -14c60 2.66699 117.333 27.334 172 74.001c27.333 22 49.666 41 67 57l35 35c8 6.66699 10 13.334 6 20.001
l-14 21c-5.33301 6.66699 -11.333 6 -18 -2c-12.667 -8 -29.334 -17 -50 -27c-22.667 -10.667 -48.334 -16.667 -77.001 -18c-10 -1.33301 -56 0.666992 -138 6c-81.333 5.33301 -247.666 34.666 -498.999 87.999c-139.333 26 -314.333 75.667 -525 149v9
c123.333 35.333 242.333 109 357 221c133.333 130.667 203.666 310 210.999 538c6.66699 191.333 -59 363.333 -197 516c-126.667 142 -310.334 215.333 -551.001 220v0zM842.002 34.9971c-27.333 -1.33301 -67.667 7.33105 -121 25.998c-26 12.667 -55.333 30 -88 52
c-32.667 20 -69 48 -109 84c-52 48.667 -100.333 121.667 -145 219c-48 96.667 -72.667 213.334 -74 350.001c0 88.667 13.667 178 41 268c26 90 71.667 170 137 240c30 28.667 59.333 52.334 88 71.001c28.667 18 56.667 31 84 39c56 15.333 108 23 156 23
c139.333 0 265.666 -58 378.999 -174c114.667 -112 173.334 -295.667 176.001 -551c0 -45.333 -7.66699 -102.666 -23 -171.999c-14.667 -71.333 -42.667 -143 -84 -215c-38 -72.667 -91 -133.334 -159 -182.001c-68.667 -50.667 -154.667 -76.667 -258 -78v0z" />
    <glyph glyph-name="o" unicode="R" horiz-adv-x="1427" 
d="M285 733c0 -192.667 -1.33105 -389.333 -3.99805 -590c-3.33301 -48.667 -30 -71.667 -80 -69h-84c-8.66699 0 -12.334 -5.66699 -11.001 -17v-47c-1.33301 -10.667 4.33398 -16 17.001 -16c4 2.66699 89.333 4.66699 256 6c176 -1.33301 265.333 -3.33301 268 -6
c9.33301 0 16.333 2 21 6c1.33301 2.66699 2 6.66699 2 12v45c0 11.333 -5.66699 17 -17 17h-129c-14.667 0 -26.334 8 -35.001 24c-4 8.66699 -6.66699 17.667 -8 27c-4 8 -6.66699 17.667 -8 29c-2.66699 81.333 -4 208 -4 380v115c27.333 4 50 6 68 6
c58.667 0 104.334 -10.667 137.001 -32c31.333 -23.333 59.333 -52 84 -86c16 -19.333 39.667 -52.333 71 -99c33.333 -47.333 53.333 -78 60 -92c10.667 -14.667 33 -52.334 67 -113.001c34.667 -62.667 58 -103.334 70 -122.001l43 -60c18 -26 32.333 -45 43 -57
c40.667 4 96 6 166 6c44.667 0 80.667 -0.666992 108 -2c26 -2.66699 43.333 -4 52 -4c10.667 0 16 6 16 18v45c0 10 -5.33301 15.667 -16 17c-56 -2.66699 -105.333 9 -148 35c-23.333 21.333 -56.666 62 -99.999 122c-42.667 58.667 -69.334 96.334 -80.001 113.001
c-12 22 -41.333 66.333 -88 133l-60 84c-18.667 23.333 -31.334 38.333 -38.001 45c-8.66699 12.667 -19.667 26.334 -33 41.001c-16.667 15.333 -37.334 27.666 -62.001 36.999v4c131.333 26 227.666 69.667 288.999 131c60 61.333 90 154.333 90 279
c-1.33301 83.333 -36.666 161 -105.999 233c-82 80.667 -209.667 122.334 -383 125.001c-75.333 -2.66699 -189.333 -4.66699 -342 -6c-161.333 2.66699 -246 4.66699 -254 6c-9.33301 0 -13.333 -4.66699 -12 -14v-52c-1.33301 -9.33301 2.66699 -14 12 -14h82
c50.667 0 76.667 -34 78 -102c1.33301 -68.667 2 -182.667 2 -342v-199zM469.002 1309c0 32.667 8.33301 54.335 25 65.002c20 10.667 43 16 69 16c84.667 0 153 -6.66699 205 -20c52 -16.667 97 -41.334 135 -74.001c65.333 -54.667 99.333 -132.334 102 -233.001
c0 -22 -4.66699 -50.667 -14 -86c-10.667 -38.667 -32.334 -77 -65.001 -115c-31.333 -38 -76.666 -70.667 -135.999 -98c-58.667 -28.667 -135 -43 -229 -43c-34 0 -64.667 2.66699 -92 8v580z" />
    <glyph glyph-name="p" unicode="S" horiz-adv-x="1122" 
d="M598 -31c135.333 2.66699 238.999 47.667 310.999 135c71.333 84.667 107 189.334 107 314.001c0 66.667 -8.33301 122.667 -25 168c-16 43.333 -37.667 80 -65 110c-37.333 44 -84 79 -140 105c-54.667 23.333 -118 45 -190 65c-31.333 11.333 -69.666 27 -114.999 47
c-46 22 -85.667 47.333 -119 76c-24 27.333 -40.333 56.666 -49 87.999c-9.33301 31.333 -14 61.333 -14 90c-1.33301 56 17.667 109.333 57 160c38.667 52 102.334 78.667 191.001 80c95.333 0 169.666 -29.333 222.999 -88c42 -42.667 72 -83.667 90 -123
c18 -38 30.333 -72.667 37 -104c2.66699 -6 6.66699 -8.33301 12 -7l25 7c6.66699 1.33301 10 6.66602 10 15.999c-1.33301 28.667 -5.33301 79.667 -12 153c-11.333 74 -17 131.333 -17 172c0 22 -5.33301 33.667 -16 35c-8 0 -17 -4 -27 -12l-26 -25
c-8.66699 -10.667 -21.667 -11.334 -39 -2.00098c-16.667 10 -46 21 -88 33c-42.667 11.333 -94 17.666 -154 18.999c-113.333 1.33301 -208.666 -31.667 -285.999 -99c-32 -28.667 -61 -66 -87 -112c-26.667 -48 -40 -98 -40 -150c0 -134 34 -233.667 102 -299
c48 -44.667 101.333 -80 160 -106c58.667 -27.333 105 -47.333 139 -60c40.667 -13.333 81 -29 121 -47c38 -17.333 71.333 -39.666 100 -66.999c30 -26 53.333 -57.667 70 -95c16 -38 24 -83.667 24 -137c0 -44.667 -8 -83.667 -24 -117c-18 -32.667 -40.667 -59 -68 -79
c-58.667 -42.667 -120.667 -64 -186 -64c-56 0 -109.333 13.667 -160 41c-52 27.333 -94.333 64.333 -127 111c-31.333 52 -51 97 -59 135c-8.66699 36.667 -13.667 70.667 -15 102c0 11.333 -4 17 -12 17l-31 2c-8 1.33301 -12.667 -3 -14 -13l-14 -186
c-8.66699 -87.333 -15.667 -148.666 -21 -183.999c-1.33301 -22 5 -33 19 -33c13.333 -1.33301 25.333 7 36 25c11.333 21.333 22.333 32.666 33 33.999c8.66699 0 24.334 -8 47.001 -24c41.333 -31.333 88.666 -56.666 141.999 -75.999
c51.333 -19.333 112.666 -29.666 183.999 -30.999v0z" />
    <glyph glyph-name="q" unicode="T" horiz-adv-x="1438" 
d="M608 850l0.00292969 -353.999v-238c-1.33301 -70.667 -3.33301 -115.667 -6 -135c-2.66699 -31.333 -25.334 -47.666 -68.001 -48.999h-139c-10.667 0 -15.334 -7 -14.001 -21v-39c-1.33301 -12 4.66699 -18.667 18 -20c20.667 2.66699 124.667 4.66699 312 6
c185.333 -1.33301 280.666 -3.33301 285.999 -6c15.333 0 22.333 5.33301 21 16v43c1.33301 14 -5.66699 21 -21 21h-129c-44.667 0 -67.667 27.333 -69 82v321c-1.33301 173.333 -2 278.666 -2 315.999v583h57c56 0 120 -1.33301 192 -4c36 -2.66699 68.333 -6 97 -10
c28.667 -5.33301 50.334 -12.333 65.001 -21c18 -8 35 -21.667 51 -41c16.667 -20 31 -43 43 -69c14 -24.667 25 -48 33 -70s14.333 -38.333 19 -49c4 -12 9.33301 -16.667 16 -14l33 8c10.667 1.33301 14.667 6.66602 12 15.999c-26 156 -45.667 279 -59 369
c-2.66699 23.333 -9 34.333 -19 33c-6.66699 0 -14.667 -3 -24 -9l-39 -24c-30 -19.333 -65.667 -29 -107 -29c-74.667 -6.66699 -211.667 -10.667 -411 -12h-99c-170.667 1.33301 -299.667 5.33301 -387 12c-50 0 -88.667 11.667 -116 35l-27 18c-6.66699 6 -15 9 -25 9
c-8 1.33301 -14.667 -9.66699 -20 -33c-4 -19.333 -17.667 -72.666 -41 -159.999l-55 -201c-2.66699 -10.667 0 -16 8 -16l37 -10c9.33301 -2.66699 16 0.666016 20 9.99902c15.333 36.667 38 81 68 133c16 24.667 33.667 46.667 53 66
c19.333 18.667 39.666 31.667 60.999 39c45.333 12 102 19.333 170 22c66 1.33301 117.333 2 154 2h51v-526z" />
    <glyph glyph-name="r" unicode="U" horiz-adv-x="1528" 
d="M758 -31c176 1.33301 304.336 42.333 385.003 123c109.333 97.333 166.666 229 171.999 395c6.66699 182 10 337.667 10 467c0 26 0.666992 84 2 174c0 41.333 0.666992 77.666 2 108.999v57c2.66699 14 9.66699 31 21 51c9.33301 19.333 31.666 29.666 66.999 30.999h84
c8 0 12 7 12 21v45c1.33301 8 -5.33398 12.667 -20.001 14c-14 -2.66699 -89 -4.66699 -225 -6c-68.667 0 -124.667 1.33301 -168 4c-45.333 1.33301 -73.333 2 -84 2c-11.333 0 -16.333 -4.66699 -15 -14v-49c-1.33301 -11.333 3.66699 -17 15 -17h90
c54.667 -1.33301 85.334 -31.333 92.001 -90c6.66699 -56 10 -164.667 10 -326v-438c1.33301 -152.667 -34 -272.667 -106 -360c-35.333 -37.333 -80.333 -64.666 -135 -81.999c-54.667 -20.667 -112 -31 -172 -31c-60.667 0 -120.334 11 -179.001 33
s-107.667 60.333 -147 115c-22 35.333 -38.333 76 -49 122c-10 44 -15.667 90 -17 138c-5.33301 122.667 -8.66602 267.334 -9.99902 434.001v135c0 132.667 1.33301 221.334 4 266.001c5.33301 53.333 38.333 81.333 99 84h102c10.667 0 16 4.66699 16 14v54
c1.33301 8 -4.66699 12 -18 12c-24.667 -2.66699 -118.334 -4.66699 -281.001 -6c-78.667 0 -142 1.33301 -190 4c-49.333 1.33301 -79.333 2 -90 2c-14 0 -20.333 -5.33301 -19 -16v-45c-1.33301 -14 3.66699 -20.333 15 -19h96c54.667 0 80.667 -34.667 78 -104v-488
c-1.33301 -254 9.66699 -419.667 33 -497c28.667 -128.667 109.667 -220.334 243 -275.001c72.667 -28.667 165 -43 277 -43v0z" />
    <glyph glyph-name="s" unicode="V" horiz-adv-x="1446" 
d="M57 1390c0 -9.33301 3.66602 -14.002 10.999 -14.002h53c39.333 0 67.333 -22.333 84 -67c16 -38.667 42.667 -112 80 -220l92 -284l20 -70l258 -729l17 -33c4 -8 10 -12.667 18 -14c11.333 1.33301 21 10.333 29 27c5.33301 9.33301 21.666 48 48.999 116l96 236
c80.667 199.333 132 328.333 154 387l121 295l75 174c23.333 50.667 42 84.667 56 102c20 24.667 41 44.667 63 60c22 13.333 49.333 20 82 20h55c10 0 15 4.66699 15 14v52c0 9.33301 -5 14 -15 14c-6.66699 -2.66699 -79.667 -4.66699 -219 -6c-64 0 -117 1.33301 -159 4
c-44 1.33301 -71.333 2 -82 2c-10 0 -14.333 -4.66699 -13 -14v-47c0 -12.667 3.66699 -19 11 -19h53c26 0 43.667 -4 53 -12c8 -11.333 12 -23 12 -35c-1.33301 -27.333 -10.666 -66.333 -27.999 -117l-68 -200l-61 -181c-60 -163.333 -133 -351.666 -219 -564.999h-5
c-74.667 209.333 -138 394.333 -190 555c-20.667 64 -44 142 -70 234l-32 118c-11.333 34.667 -19 61.334 -23 80.001c-5.33301 30 -8 53.333 -8 70c0 35.333 28.667 53 86 53h98c11.333 0 17 6.33301 17 19v47c1.33301 9.33301 -5.66699 14 -21 14
c-18 -2.66699 -112.333 -4.66699 -283 -6c-77.333 0 -135.333 1.33301 -174 4c-39.333 1.33301 -63.666 2 -72.999 2c-11.333 0 -16.333 -4.66699 -15 -14v-52z" />
    <glyph glyph-name="t" unicode="W" horiz-adv-x="2140" 
d="M358 1302c-12 48 8.00195 72.6709 60.002 74.0039h35c10.667 0 16 5.66699 16 17v51c0 6.66699 -5.33301 10.667 -16 12c-20.667 -2.66699 -104.667 -4.66699 -252 -6c-68.667 0 -120 1.33301 -154 4c-35.333 1.33301 -57 2 -65 2c-11.333 0 -17 -4.66699 -17 -14v-49
c0 -11.333 4 -17 12 -17h70c20.667 0 37.667 -4.66699 51 -14c15.333 -11.333 27.666 -31.333 36.999 -60l457 -1310c8 -22 20.333 -33 37 -33c17.333 1.33301 31 14.333 41 39c6.66699 12 29 72 67 180l133 375l203 575h4l379 -1124c8 -28.667 23 -43.667 45 -45
c12.667 1.33301 22.334 8.33301 29.001 21c5.33301 10.667 10 21.334 14 32.001l254 682l156 426c44.667 122.667 69.667 189.667 75 201c19.333 35.333 46.666 53.666 82 54.999h49c11.333 0 16.333 4.66699 15 14v52c0 9.33301 -5 14 -15 14
c-13.333 -2.66699 -76.666 -4.66699 -190 -6c-62.667 0 -111.667 1.33301 -147 4c-37.333 1.33301 -61.333 2 -72 2c-12.667 0 -18 -4.66699 -16 -14v-47c-2 -12.667 2.66699 -19 14 -19h55c28.667 0 47.667 -6 57 -18c10 -12.667 15 -27.667 15 -45
c-1.33301 -32.667 -16.333 -100.334 -45 -203.001c-30 -102.667 -65 -215.334 -105 -338.001l-108 -330c-32.667 -96.667 -53.334 -155.334 -62.001 -176.001h-4l-319 1028c-5.33301 19.333 -3.33301 38 6 56c9.33301 17.333 26.333 26 51 26h82c9.33301 0 14 4.66699 14 14
v52c0 9.33301 -4.66699 14 -14 14c-13.333 -2.66699 -103.333 -4.66699 -270 -6c-79.333 0 -138 1.33301 -176 4c-40 1.33301 -64.667 2 -74 2c-10.667 0 -15.334 -4.66699 -14.001 -14v-49c-1.33301 -11.333 2.66699 -17 12 -17h51c36.667 0 64 -13 82 -39
c10.667 -12 19 -25 25 -39c6.66699 -14.667 8.66699 -27 6 -37c-4 -24 -21.333 -85.333 -52 -184l-108 -332l-107 -319c-13.333 -44 -25.333 -79.667 -36 -107c-10 -28.667 -16.333 -46.334 -19 -53.001h-4z" />
    <glyph glyph-name="u" unicode="X" horiz-adv-x="1427" 
d="M469 61c0 7.33301 -5.33789 11.666 -16.0049 12.999h-80c-49.333 1.33301 -62.333 32 -39 92c16 30 64.333 103.667 145 221l191 277v0c32.667 -45.333 93.334 -140.333 182.001 -285l104 -174c30 -50.667 47.333 -81.334 52 -92.001c10.667 -26 -6 -39 -50 -39h-79
c-10 0 -14.333 -5 -13 -15v-51c-1.33301 -8 4.33398 -12.667 17.001 -14c21.333 2.66699 117.333 4.66699 288 6c165.333 -1.33301 252 -3.33301 260 -6c11.333 1.33301 17 6.66602 17 15.999v49c0 10 -5.66699 15 -17 15h-67c-41.333 -1.33301 -86.333 17 -135 55
c-7.33301 9.33301 -31.333 46.333 -72 111l-145 219l-146 225c-42 66.667 -68.667 105.667 -80 117l238 305l133 164c38 44.667 62 71.334 72 80.001c9.33301 6.66699 21 13.334 35 20.001c12 4 29 6 51 6h86c8 -1.33301 12 5 12 19v47c0 8 -5.33301 12.667 -16 14
c-23.333 -2.66699 -92.333 -4.66699 -207 -6c-121.333 2.66699 -195.666 4.66699 -222.999 6c-11.333 0 -16.333 -4.66699 -15 -14v-47c-1.33301 -12.667 3 -19 13 -19h43c25.333 -1.33301 42.333 -9.33301 51 -24c5.33301 -18 2 -38 -10 -60
c-18 -28.667 -64.667 -94.667 -140 -198l-170 -230v0c-31.333 46.667 -77.666 121 -138.999 223c-27.333 49.333 -52 91.666 -74 126.999c-21.333 37.333 -35.666 59.333 -42.999 66c-5.33301 12 -9.33301 24.333 -12 37c-4 10.667 -4 20 0 28c4 19.333 28 29.666 72 30.999
h71c14 0 20.333 6.33301 19 19v47c0 8 -5.66699 12.667 -17 14c-9.33301 -2.66699 -112.333 -4.66699 -309 -6c-87.333 0 -155 1.33301 -203 4c-48.667 1.33301 -78 2 -88 2c-6.66699 0 -10 -5.33301 -10 -16v-47c0 -11.333 3.33301 -17 10 -17h90
c41.333 -1.33301 72.333 -11.666 93 -30.999c13.333 -12 40 -44.667 80 -98l126 -186l222 -332c-54.667 -69.333 -128.667 -169.666 -222 -300.999c-92.667 -131.333 -173.667 -229.666 -243 -294.999c-20.667 -16 -40.667 -29.667 -60 -41c-20 -12 -39 -18 -57 -18h-80
c-8 0 -12 -5 -12 -15v-47c0 -10.667 4 -16.667 12 -18c23.333 2.66699 97 4.66699 221 6c83.333 -0 146.333 -0.666992 189 -2c42 -2.66699 68 -4 78 -4c10.667 0 16 6 16 18v49z" />
    <glyph glyph-name="v" unicode="Y" horiz-adv-x="1362" 
d="M756 649l258.004 370.996l147 207c42.667 60 69.334 94.667 80.001 104c35.333 30 68.666 45 99.999 45h52c10.667 0 16 6.33301 16 19v49c0 8 -5.33301 12 -16 12c-10 -2.66699 -71.667 -4.66699 -185 -6c-68 0 -122.667 1.33301 -164 4
c-40.667 1.33301 -66.334 2 -77.001 2c-11.333 0 -16.333 -4 -15 -12v-49c-1.33301 -12.667 3.66699 -19 15 -19h55c40.667 -1.33301 64.667 -9.33301 72 -24c4 -18 2.33301 -36.667 -5 -56c-2.66699 -9.33301 -19 -38.666 -49 -87.999l-110 -170l-211 -323v0l-178 329
l-95 177c-27.333 48.667 -43 78 -47 88c-5.33301 24 -3.33301 41.667 6 53c7.33301 9.33301 26 14 56 14h67c10 0 15 6.33301 15 19v51c0 6.66699 -5 10 -15 10c-6.66699 -2.66699 -108.334 -4.66699 -305.001 -6c-132 2.66699 -211.667 4.66699 -239 6
c-10 0 -15 -4 -15 -12v-54c0 -9.33301 5 -14 15 -14h51c38 -1.33301 73.333 -17.666 106 -48.999c18 -19.333 48 -62.333 90 -129l138 -227c107.333 -183.333 173.333 -298.666 198 -345.999v-119c-1.33301 -207.333 -3.33301 -334.333 -6 -381
c0 -15.333 -4.66699 -27 -14 -35c-12.667 -10.667 -32 -16 -58 -16h-100c-10.667 0 -15.334 -5 -14.001 -15v-49c0 -10.667 4 -16 12 -16c9.33301 2.66699 99.333 4.66699 270 6c86 0 151 -0.666992 195 -2c43.333 -2.66699 70.666 -4 81.999 -4
c10.667 0 15.334 6 14.001 18v47c1.33301 10 -3.33398 15 -14.001 15h-80c-26 -1.33301 -46.333 2.66699 -61 12c-7.33301 5.33301 -13 13 -17 23c-5.33301 8 -9.33301 20 -12 36c-5.33301 50.667 -8 129.334 -8 236.001v268z" />
    <glyph glyph-name="w" unicode="Z" horiz-adv-x="1438" 
d="M559 0c252.667 0 463.669 -7.66699 633.002 -23c26 -4 43 -6.66699 51 -8c12 0 21 7.66699 27 23c12 36.667 35 96.667 69 180s59.333 141.333 76 174c4 8 2.66699 14.333 -4 19l-29 16c-6.66699 4 -12.667 2.66699 -18 -4c-18 -23.333 -59 -72 -123 -146
c-28.667 -34 -58 -64.667 -88 -92c-28.667 -30 -54 -51.667 -76 -65h-721c56 82 220 308 492 678l487 661c23.333 31.333 18.666 47.666 -14.001 48.999c-71.333 0 -143.666 -2 -216.999 -6c-74 -4 -147.667 -6 -221 -6c-90.667 0 -191.667 0.666992 -303 2
c-112 1.33301 -196 4.66602 -252 9.99902c-18 2.66699 -31.667 4 -41 4c-10 0 -18.333 -7.33301 -25 -22l-129 -369c-4 -9.33301 -2.66699 -15.333 4 -18l27 -13c6.66699 -5.33301 12.667 -4.66602 18 2.00098c26 40 67.667 95.333 125 166
c27.333 34.667 52.666 64 75.999 88c22 26 38.333 43.333 49 52c27.333 21.333 54.666 32 81.999 32h555c-6.66699 -12 -53 -78 -139 -198l-310 -428c-260.667 -359.333 -434 -593.666 -520 -702.999c-9.33301 -12 -13.333 -25 -12 -39c0 -8 4.66699 -12.667 14 -14
c8.66699 -1.33301 17 -2 25 -2h432z" />
    <glyph glyph-name="x" unicode="[" horiz-adv-x="725" 
d="M207 1530c-14 0 -20.999 -6.33203 -20.999 -18.999v-1843c0 -14.667 7.66699 -22 23 -22h432c12 0 18 5.33301 18 16v43c0 12.667 -5.33301 19 -16 19h-303c-10.667 0 -15.334 9.33301 -14.001 28v1677c0 15.333 6.66699 23 20 23h277c10.667 0 16 5.33301 16 16v49
c0 7.33301 -4 11.666 -12 12.999h-420z" />
    <glyph glyph-name="y" unicode="\" horiz-adv-x="717" 
d="M709 0c8 1.33301 9.33301 9.66699 4 25l-607 1449c-4 10 -10.667 13.667 -20 11l-78 -33c-6.66699 -2.66699 -8 -9.66699 -4 -21l604 -1437c10 -22 18.333 -30.333 25 -25z" />
    <glyph glyph-name="z" unicode="]" horiz-adv-x="725" 
d="M516 -354c15.333 0 23 7.33203 23 21.999v1843c0 12.667 -7 19 -21 19h-420c-8 -1.33301 -12 -5.66602 -12 -12.999v-49c0 -10.667 5.33301 -16 16 -16h279c12 0 18 -7.66699 18 -23v-1681c0 -16 -4 -24 -12 -24h-305c-12.667 0 -18 -6.33301 -16 -19v-43
c0 -10.667 6 -16 18 -16h432z" />
    <glyph glyph-name="braceleft" unicode="^" 
d="M47 532h127l326 672h10l336 -672h133l-434 867h-66z" />
    <glyph glyph-name="bar" unicode="_" 
d="M0 -256h1024v102h-1024v-102z" />
    <glyph glyph-name="braceright" unicode="`" horiz-adv-x="684" 
d="M410 1018c4 2.66699 4.66797 6 2.00098 10l-197 244c-8 12 -19 23.667 -33 35c-13.333 10.667 -30.333 16 -51 16c-31.333 -1.33301 -52.333 -16.333 -63 -45c-12.667 -28.667 -1.33398 -58.667 33.999 -90l271 -193c4 -4 8 -4 12 0z" />
    <glyph glyph-name="asciitilde" unicode="a" horiz-adv-x="874" 
d="M688 365l-0.00488281 312.997c0 28.667 -1.33301 55.334 -4 80.001c-5.33301 23.333 -19 45 -41 65c-13.333 15.333 -31.666 28.333 -54.999 39c-23.333 11.333 -59.666 17 -108.999 17c-86 0 -169.333 -24 -250 -72c-40.667 -24.667 -74 -54 -100 -88
c-27.333 -35.333 -41 -70.333 -41 -105c0 -44.667 16.333 -66.334 49 -65.001c42.667 0 71.334 11 86.001 33c15.333 20 23 48 23 84c-1.33301 18.667 -2.66602 36.334 -3.99902 53.001c-2.66699 14.667 2 28.334 14 41.001c16.667 13.333 37.667 24.333 63 33
c26 6.66699 49.333 10 70 10c60 -1.33301 101 -16.333 123 -45c6.66699 -7.33301 12 -15 16 -23c2.66699 -9.33301 4.66699 -19.666 6 -30.999c3.33301 -9.33301 5.66602 -19.333 6.99902 -30v-31v-131c-18 -15.333 -49 -33 -93 -53
c-43.333 -23.333 -89.666 -45.333 -138.999 -66c-78 -35.333 -132 -73.333 -162 -114c-30 -41.333 -44.333 -86 -43 -134c1.33301 -62.667 15.666 -107 42.999 -133c27.333 -24.667 54 -37 80 -37c44 0 84.333 4.33301 121 13c92.667 31.333 160.334 73 203.001 125h4
c10.667 -42.667 28.334 -75.667 53.001 -99c24.667 -24.667 55.334 -37.667 92.001 -39c53.333 1.33301 91.666 15 114.999 41c12 11.333 22.333 22.333 31 33c5.33301 11.333 10 20.333 14 27c9.33301 18.667 10 31 2 37l-20 16
c-7.33301 5.33301 -14.333 2.66602 -21 -8.00098c-12 -19.333 -35.667 -29.666 -71 -30.999c-18 0 -32.333 11.667 -43 35c-12.667 22 -19 61.667 -19 119v121zM538.995 450.997l0.000976562 -252c-1.33301 -28.667 -21.333 -56 -60 -82c-38 -30 -74 -45 -108 -45
c-68.667 0 -104.334 37.333 -107.001 112c0 42.667 11.667 79 35 109c22 28.667 47.333 51.667 76 69c31.333 19.333 62 36 92 50c28.667 13.333 52.667 26.333 72 39v0z" />
    <glyph glyph-name="Adieresis" unicode="b" horiz-adv-x="1032" 
d="M147 348v-217.002c0 -69.333 -1.33301 -113 -4 -131c-2.66699 -9.33301 0.333008 -14.666 9 -15.999l24 -7c10.667 -1.33301 19.667 1 27 7l82 45c24.667 -14 57.334 -26.333 98.001 -37c38 -11.333 85.667 -17 143 -17c120.667 3.33301 221 51.333 301 144
c82 91.333 123.667 198.333 125 321c-2.66699 147.333 -42.334 258 -119.001 332c-76 71.333 -161.333 107 -256 107c-50 0 -100.333 -8.33301 -151 -25c-53.333 -19.333 -97 -45.333 -131 -78v0v238c0 98 0.666992 191.333 2 280v152
c2.66699 23.333 -2.66602 35 -15.999 35c-14 -1.33301 -28.333 -7.66602 -43 -18.999c-68.667 -40.667 -141.334 -78 -218.001 -112c-10.667 -6 -16 -11.667 -16 -17v-16c-1.33301 -5.33301 7.66699 -11 27 -17l20 -6c36.667 -9.33301 62.667 -26.333 78 -51
c12 -26 18 -72.333 18 -139v-756zM295 706.998c49.333 47.333 113.999 71.667 193.999 73c101.333 -2.66699 178 -42.334 230 -119.001c50.667 -74.667 76 -164 76 -268c0 -65.333 -8.33301 -120.666 -25 -165.999c-16.667 -44.667 -38.667 -80.667 -66 -108
c-26.667 -26 -56 -45.333 -88 -58c-32.667 -13.333 -64.667 -20 -96 -20c-43.333 0 -83.666 11.667 -120.999 35c-38 18.667 -62.333 41 -73 67c-11.333 31.333 -19 68.333 -23 111c-5.33301 42 -8 104 -8 186v267z" />
    <glyph glyph-name="Aring" unicode="c" horiz-adv-x="842" 
d="M467 813c24.667 1.33301 48.667 -2.66895 72 -12.002c21.333 -11.333 43 -37.333 65 -78c30 -54.667 67.667 -82 113 -82c46 0 71.333 24 76 72c0 26 -20 59.333 -60 100c-20.667 19.333 -48.667 35 -84 47c-36.667 12.667 -81.667 19 -135 19
c-136.667 -3.33301 -243 -53.333 -319 -150c-79.333 -95.333 -119 -206 -119 -332c-1.33301 -44.667 4.66699 -89.667 18 -135c14 -44.667 38.667 -92.334 74 -143.001c48 -57.333 100 -95.666 156 -114.999c54 -19.333 107.667 -29 161 -29c71.333 1.33301 137 18 197 50
c58.667 28.667 103 60.667 133 96c9.33301 10.667 9.33301 19.334 0 26.001l-20 21c-7.33301 5.33301 -13 5.33301 -17 0c-32.667 -31.333 -66 -54 -100 -68c-32.667 -13.333 -74.334 -20 -125.001 -20c-35.333 -1.33301 -72.333 5.33398 -111 20.001
c-39.333 14 -76.666 42 -111.999 84c-27.333 41.333 -51.333 90 -72 146c-22 54.667 -33 110 -33 166c1.33301 106 28 185.667 80 239c48 52 102 78 162 78v0z" />
    <glyph glyph-name="Ccedilla" unicode="d" horiz-adv-x="1067" 
d="M743 848c-61.333 18.667 -134.336 28.9951 -219.003 30.9951c-118.667 0 -220.334 -43 -305.001 -129c-95.333 -101.333 -143 -217.666 -143 -348.999c-1.33301 -66.667 7.33398 -126 26.001 -178c18 -52 52.333 -103 103 -153c49.333 -46.667 93.666 -74 132.999 -82
c39.333 -8.66699 75.333 -13 108 -13c56 1.33301 111.333 12.333 166 33c56 19.333 101 45.333 135 78v0l27 -90c5.33301 -15.333 14.333 -20.666 27 -15.999l231 77c12.667 4 17.334 11.667 14.001 23l-4 16c-1.33301 10 -15 15 -41 15
c-14.667 2.66699 -30.334 6.66699 -47.001 12c-17.333 4 -31.666 11.333 -42.999 22c-8 12.667 -12.667 37.334 -14 74.001c-4 36.667 -6 74.334 -6 113.001v452c0 299.333 2.66699 519.333 8 660c2.66699 23.333 -0.666016 35.666 -9.99902 36.999
c-14 -1.33301 -29.667 -3.66602 -47 -6.99902c-54.667 -9.33301 -130 -23.666 -226 -42.999c-10.667 -1.33301 -16 -6 -16 -14v-35c-1.33301 -8 3.33398 -12.667 14.001 -14c56 -6.66699 92.333 -19 109 -37c14.667 -18 21.334 -46 20.001 -84v-399zM742.997 245.995
c0 -19.333 -3.99902 -42.667 -11.999 -70c-10.667 -27.333 -36 -52 -76 -74c-39.333 -26 -88.333 -39 -147 -39c-64 2 -124.667 40.333 -182 115c-63.333 72.667 -95.666 167.667 -96.999 285c-1.33301 39.333 5 84.333 19 135c13.333 48 38.666 93.667 75.999 137
c27.333 28.667 57.333 48.667 90 60c32.667 9.33301 64.667 14 96 14c61.333 0 109 -11 143 -33s58 -48 72 -78c9.33301 -16 14.666 -32.333 15.999 -49c1.33301 -19.333 2 -36.333 2 -51v-352z" />
    <glyph glyph-name="Eacute" unicode="e" horiz-adv-x="872" 
d="M741 545c16.667 0 30.334 2.00293 41.001 6.00293c11.333 4 17 12.667 17 26c1.33301 49.333 -19.334 110.333 -62.001 183c-22 34 -52 62.667 -90 86c-40.667 22 -90.334 33 -149.001 33c-24.667 0 -49.334 -1 -74.001 -3c-27.333 -2.66699 -53.333 -8 -78 -16
c-49.333 -14.667 -96.333 -44.667 -141 -90c-52 -54.667 -87 -112 -105 -172c-17.333 -58.667 -25.333 -110 -24 -154c-2.66699 -126.667 27.333 -234.334 90 -323.001c39.333 -53.333 88.333 -91 147 -113c57.333 -22 115.333 -33 174 -33
c46.667 1.33301 88.334 9.66602 125.001 24.999c37.333 15.333 69 34.333 95 57c26.667 23.333 49 48 67 74c18 24.667 31 47.334 39 68.001c8 20 8 30 0 30l-27 15c-6.66699 1.33301 -12.667 -2.33398 -18 -11.001c-16.667 -34 -46 -65.333 -88 -94
c-42.667 -30 -96 -45 -160 -45c-83.333 1.33301 -151.666 35.666 -204.999 102.999c-56 64 -84.667 147 -86 249c0 48 2.33301 81 7 99h505zM244 606.003c20 75.333 50 130.001 90 164.001c38 31.333 79.667 47 125 47c34 0 62 -6.66699 84 -20c20 -12.667 35 -30 45 -52
c18.667 -44.667 28 -81.334 28 -110.001c0 -19.333 -18.333 -29 -55 -29h-317z" />
    <glyph glyph-name="Ntilde" unicode="f" horiz-adv-x="635" 
d="M219 524l0.00292969 -385.001c0 -23.333 -2.66699 -41 -8 -53c-6.66699 -12 -20.334 -18 -41.001 -18h-98c-15.333 0 -22.333 -5 -21 -15v-45c0 -9.33301 5.66699 -14 17 -14c30 2.66699 107.667 4.66699 233 6c154 -1.33301 236 -3.33301 246 -6c9.33301 0 14 8 14 24
v33c0 11.333 -7.33301 17 -22 17h-117c-20.667 0 -33.667 5.33301 -39 16c-8 8 -12.667 20.333 -14 37c-1.33301 40.667 -2 191.334 -2 452.001v183h225c16 0 24.667 3.33301 26 10l11 67c4 12.667 -1 19.667 -15 21h-247v41
c-1.33301 75.333 1.33398 151.666 8.00098 228.999c6.66699 76.667 27.667 139.667 63 189c23.333 28.667 48.666 48.334 75.999 59.001c24.667 8 50.667 12 78 12c38 0 69.333 -15.667 94 -47c10.667 -14.667 27 -30.334 49 -47.001c18 -8 37.333 -12 58 -12
c17.333 0 36.333 8.66699 57 26c17.333 16.667 27 37.334 29 62.001c-2 38 -20.667 67.333 -56 88c-36.667 18 -80.334 27 -131.001 27c-114.667 2.66699 -226.667 -51.333 -336 -162c-39.333 -44 -72 -100.667 -98 -170c-26 -68.667 -39 -154 -39 -256v-39h-119
c-14.667 0 -22.667 -4.66699 -24 -14l-8 -62c-4.66699 -16 -1.33398 -23.333 9.99902 -22h141v-232z" />
    <glyph glyph-name="Odieresis" unicode="g" horiz-adv-x="993" 
d="M446 -557c89.333 1.33301 163.331 12.999 221.998 34.999c31.333 9.33301 57.666 20.333 78.999 33c20.667 10.667 37.334 20 50.001 28c50 38.667 86 79 108 121c19.333 41.333 29 85 29 131c1.33301 26 -4.33398 56.667 -17.001 92c-12 36 -40 71 -84 105
c-73.333 60 -190.666 84.333 -351.999 73c-68 -5.33301 -124.667 -4.66602 -170 2.00098c-46 7.33301 -69 30 -69 68c1.33301 28.667 15 53.334 41 74.001c22.667 18.667 45 32.334 67 41.001c27.333 -6.66699 62.333 -10 105 -10c36.667 0 79 10 127 30
c44.667 19.333 81.334 43.333 110.001 72c50.667 65.333 76 139 76 221c0 34 -2.66699 64 -8 90c-6.66699 24.667 -14.334 46.667 -23.001 66c14 6.66699 27 10.667 39 12h27c16 -1.33301 30.333 -7.33301 43 -18c8 -7.33301 18 -14.333 30 -21
c11.333 -6.66699 25 -10 41 -10c24.667 0 44.667 8 60 24c13.333 15.333 20 32.666 20 51.999c2.66699 10.667 2 21.334 -2 32.001c-4 10 -10 19 -18 27c-16.667 18 -42 27 -76 27c-32.667 -1.33301 -66 -9.66602 -100 -24.999c-32.667 -14.667 -63.334 -33 -92.001 -55
c-4.66699 6.66699 -13 16.667 -25 30c-13.333 14 -31 27 -53 39c-20.667 15.333 -46 27.666 -76 36.999c-30 8.66699 -64.667 13 -104 13c-114.667 -3.33301 -201.667 -36.333 -261 -99c-60 -61.333 -90 -127.333 -90 -198c1.33301 -90.667 24 -160.334 68 -209.001
c39.333 -50.667 80.333 -85 123 -103v-4c-38.667 -12 -77.667 -35 -117 -69c-19.333 -16.667 -35 -35.334 -47 -56.001c-14 -20 -21 -43 -21 -69c0 -31.333 13 -60 39 -86c23.333 -27.333 56.333 -46.666 99 -57.999v-8c-52 -20.667 -100 -52 -144 -94
c-20 -20.667 -36.333 -43.334 -49 -68.001c-14.667 -27.333 -22 -55.333 -22 -84c-1.33301 -66.667 33.334 -121.667 104.001 -165c50.667 -26 103.334 -43.333 158.001 -52c54.667 -9.33301 106.334 -14 155.001 -14v0zM433.998 292.999c-46 0 -86.999 17 -122.999 51
c-43.333 48 -65 107.333 -65 178c-1.33301 40 2.66699 81.667 12 125c9.33301 42.667 29.666 81.667 60.999 117c24.667 24.667 49.334 40.334 74.001 47.001s48.667 10 72 10c35.333 -1.33301 68 -16.333 98 -45c19.333 -19.333 33.666 -43.333 42.999 -72
c8 -30 12 -67.333 12 -112c0 -31.333 -2.66699 -64 -8 -98c-5.33301 -34.667 -15.333 -67.667 -30 -99c-14 -28.667 -32.667 -52.334 -56 -71.001c-24.667 -20.667 -54.667 -31 -90 -31v0zM517.999 -491.001c-134 -2 -229.668 16.999 -287.001 56.999
c-20 14.667 -37.667 35.667 -53 63c-17.333 26 -26 52 -26 78c1.33301 56 21 101 59 135c35.333 32.667 70 53.334 104 62.001l197 14c102.667 6.66699 178.334 -9 227.001 -47c46.667 -38 70 -88.667 70 -152c2.66699 -38 -7 -70.667 -29 -98
c-20 -27.333 -47.333 -49 -82 -65c-34 -15.333 -66.667 -27 -98 -35c-32.667 -8 -60 -12 -82 -12v0z" />
    <glyph glyph-name="Udieresis" unicode="h" horiz-adv-x="1104" 
d="M201 498l0.00195312 -233.999c0 -83.333 -2 -138 -6 -164c-3.33301 -12 -11 -20 -23 -24c-12 -5.33301 -27 -8 -45 -8h-43c-22 0 -32.333 -5.66699 -31 -17v-37c0 -13.333 5 -20 15 -20c24 2.66699 90 4.66699 198 6c49.333 0 91.666 -0.666992 126.999 -2
c35.333 -2.66699 58 -4 68 -4c10.667 0 16 7.33301 16 22v35c0 11.333 -7.33301 17 -22 17h-62c-17.333 0 -29 6 -35 18c-6.66699 12 -10 34 -10 66v446c0 19.333 4.66699 38.333 14 57c10 18 19 32.333 27 43c28.667 32.667 60.667 56 96 70
c34.667 10.667 66.334 16 95.001 16c50 0 95 -19 135 -57c30 -27.333 49 -61.333 57 -102c6.66699 -42.667 10 -92.667 10 -150v-166v-203c-1.33301 -16 -9.33301 -26 -24 -30c-16.667 -5.33301 -34.667 -8 -54 -8h-47c-10.667 0 -15.334 -5.66699 -14.001 -17v-35
c-1.33301 -14.667 4.66699 -22 18 -22c23.333 2.66699 87.666 4.66699 192.999 6c58.667 0 104.334 -0.666992 137.001 -2c32.667 -2.66699 52.667 -4 60 -4c10.667 0 16 8 16 24v31c0 12.667 -7.66699 19 -23 19h-34c-20.667 0 -38.667 2.66699 -54 8
c-14.667 4 -22 11.333 -22 22c-2.66699 56 -4 149.667 -4 281v117c1.33301 56 -1.33398 109.667 -8.00098 161c-8.66699 49.333 -35.334 96 -80.001 140c-53.333 54.667 -121 82 -203 82c-46.667 0 -95 -11 -145 -33c-52 -23.333 -97.333 -57 -136 -101h-10v131
c0 67.333 1.33301 168.666 4 303.999c0 64 0.666992 119 2 165v84c2.66699 34.667 -2.66602 52 -15.999 52c-15.333 -1.33301 -31 -7 -47 -17l-213 -112c-18 -8.66699 -26.333 -15.667 -25 -21v-18c-1.33301 -6 3.66699 -10.333 15 -13l34 -12
c37.333 -9.33301 63.333 -25 78 -47c14 -22 21 -63.667 21 -125v-618z" />
    <glyph glyph-name="aacute" unicode="i" horiz-adv-x="547" 
d="M209 295c0 -61.333 -0.667969 -123.332 -2.00098 -185.999c0 -28.667 -11 -42.334 -33 -41.001h-100c-14 0 -21 -5.66699 -21 -17v-41c0 -10.667 5.66699 -16 17 -16c26 2.66699 99.667 4.66699 221 6c44.667 -0 86.334 -0.666992 125.001 -2
c38 -2.66699 61.667 -4 71 -4c12.667 0 19 6.66699 19 20v35c0 12.667 -7 19 -21 19h-94c-20.667 -1.33301 -31.667 16.334 -33 53.001c-1.33301 30 -2 88.667 -2 176v223c0 87.333 0.666992 160.333 2 219c0 58.667 0.666992 97 2 115c3.33301 14.667 0 23 -10 25
c-10.667 0 -23.667 -4.33301 -39 -13c-79.333 -42 -153 -75.333 -221 -100c-9.33301 -4 -14 -8.66699 -14 -14v-19c-1.33301 -8 4.66699 -12.667 18 -14c49.333 -6.66699 81.333 -20.334 96 -41.001c14 -20.667 20.333 -48 19 -82v-301zM228.999 1196
c41.333 0 72.332 13.002 92.999 39.002c17.333 22 26 46.667 26 74c0 24 -8 47 -24 69c-18 19.333 -45.333 29.666 -82 30.999c-41.333 0 -72.333 -11 -93 -33c-21.333 -22 -32 -46.667 -32 -74c1.33301 -32.667 15 -58.334 41 -77.001
c24.667 -19.333 48.334 -29 71.001 -29v0z" />
    <glyph glyph-name="agrave" unicode="j" horiz-adv-x="504" 
d="M199 149c0 -159.333 -3.66504 -305.332 -10.998 -437.999c-12 -121.333 -46 -181.333 -102 -180c-10.667 0 -26.334 10.333 -47.001 31c-18 20 -35.667 36.333 -53 49c-20.667 9.33301 -42 14 -64 14c-47.333 -5.33301 -72 -34 -74 -86c2 -28.667 14.333 -51.667 37 -69
c23.333 -16.667 50.666 -25.667 81.999 -27c82 0 155 28.667 219 86c63.333 56 107 142 131 258c12.667 61.333 20.334 136.333 23.001 225c4 88.667 6 164.667 6 228v256c0 95.333 1.33301 174.333 4 237c0 64 1.33301 101 4 111c2.66699 21.333 -1.33301 33 -12 35
c-10.667 0 -23.667 -5 -39 -15c-76.667 -50.667 -150.334 -87.334 -221.001 -110.001c-10.667 -4.66699 -16 -9.66699 -16 -15v-18c-2 -5.33301 2 -10 12 -14l20 -9c42.667 -12 70 -27.667 82 -47c12.667 -20.667 19 -52.667 19 -96v-406zM233.002 1196
c40 0 71.6689 12.998 95.002 38.998c22.667 23.333 34 50 34 80c-1.33301 44.667 -14 77.334 -38 98.001c-26 19.333 -51.333 29 -76 29c-44 -1.33301 -77.667 -15.666 -101 -42.999c-24 -27.333 -36 -53.333 -36 -78c1.33301 -42.667 15.666 -74 42.999 -94
c27.333 -20.667 53.666 -31 78.999 -31v0z" />
    <glyph glyph-name="acircumflex" unicode="k" horiz-adv-x="1016" 
d="M195 498c0 -172 -1.66504 -299.003 -4.99805 -381.003c0 -31.333 -12 -47.666 -36 -48.999h-76c-14 0 -21 -6.33301 -21 -19v-35c0 -12 3.66699 -18.667 11 -20c17.333 2.66699 82.666 4.66699 195.999 6c52 0 94.333 -0.666992 127 -2
c31.333 -2.66699 49.666 -4 54.999 -4c11.333 0 17 7.33301 17 22v35c0 11.333 -6.33301 17 -19 17h-59c-27.333 0 -41 14.333 -41 43c-1.33301 70.667 -2 141.667 -2 213v90c31.333 0 60.666 -7.66699 87.999 -23c26 -23.333 75 -73.666 147 -150.999
c34.667 -34.667 64.334 -65.667 89.001 -93c22.667 -28.667 34.667 -45.667 36 -51c4.66699 -22 -2.66602 -33 -21.999 -33h-14c-15.333 0 -22.333 -5.33301 -21 -16v-33c0 -13.333 4.66699 -20 14 -20c22 2.66699 96.667 4.66699 224 6
c48.667 0 87.334 -0.666992 116.001 -2c27.333 -2.66699 45.333 -4 54 -4c12 0 18 6 18 18v37c0 12.667 -5.33301 19 -16 19c-28.667 0 -64.334 9.33301 -107.001 28c-9.33301 5.33301 -33.333 27.333 -72 66l-135 127c-109.333 104.667 -180.333 174.334 -213 209.001
l152 141l76 68c21.333 17.333 35.666 28 42.999 32c21.333 15.333 45 27 71 35s49.333 12 70 12h14c11.333 0 17 5.66699 17 17v37c0 13.333 -4.33301 20 -13 20c-12 -2.66699 -67 -4.66699 -165 -6c-52 0 -95 1.33301 -129 4c-34.667 1.33301 -55.334 2 -62.001 2
c-9.33301 0 -14 -5.33301 -14 -16v-39c-1.33301 -12.667 4 -19 16 -19c16.667 1.33301 34.334 -2.66699 53.001 -12c12.667 -8 12.667 -23.667 0 -47c-13.333 -18 -46 -55 -98 -111l-68 -69c-22.667 -23.333 -39.667 -39 -51 -47c-10.667 -7.33301 -25.667 -13 -45 -17
c-18.667 -4 -36.334 -6 -53.001 -6v324c-1.33301 289.333 2 504.333 10 645c2.66699 23.333 -1.33301 35 -12 35c-12 -1.33301 -27 -7 -45 -17l-209 -90c-19.333 -6.66699 -28.333 -13.334 -27 -20.001v-19c-1.33301 -4 8.33398 -8.66699 29.001 -14
c49.333 -11.333 80 -27.666 92 -48.999c11.333 -22 16.333 -54.333 15 -97v-677z" />
    <glyph glyph-name="adieresis" unicode="l" horiz-adv-x="524" 
d="M344 793c0 216.667 2.66602 433.668 7.99902 651.001c2.66699 24.667 -2.66602 37 -15.999 37c-11.333 0 -25.666 -5.66699 -42.999 -17c-82 -47.333 -162 -87 -240 -119c-12 -4 -18 -8.66699 -18 -14v-16c-1.33301 -2.66699 2.66699 -6.33398 12 -11.001l41 -14
c32.667 -9.33301 58 -23 76 -41c16 -20.667 24.667 -48 26 -82c4.66699 -82 7 -210.333 7 -385v-129c0 -206 -0.666992 -384 -2 -534c-4.66699 -35.333 -20 -52.333 -46 -51h-98c-9.33301 0 -16 -0.666992 -20 -2c-4 -3.33301 -6 -9 -6 -17v-35
c0 -12 4.66699 -18.667 14 -20c20.667 2.66699 97.667 4.66699 231 6c64.667 -0 118 -0.666992 160 -2c40.667 -2.66699 64.667 -4 72 -4c8 1.33301 12 8 12 20v35c0 12.667 -7.66699 19 -23 19h-92c-18.667 0 -32.334 6.66699 -41.001 20
c-6.66699 10.667 -10.667 25 -12 43c-1.33301 138 -2 297.667 -2 479v183z" />
    <glyph glyph-name="atilde" unicode="m" horiz-adv-x="1651" 
d="M766 102c0 -24 -15.001 -35.334 -45.001 -34.001h-60c-14.667 0 -21.334 -7 -20.001 -21v-33c0 -13.333 4.66699 -20 14 -20c15.333 2.66699 79.666 4.66699 192.999 6c110.667 -1.33301 171.334 -3.33301 182.001 -6c9.33301 0 14 7.33301 14 22v33
c0 12.667 -7.33301 19 -22 19h-70c-28.667 1.33301 -42.334 17 -41.001 47v354c0 24.667 0.666992 46.334 2 65.001c0 18 0.666992 35.333 2 52c2.66699 16 6.33398 31.667 11.001 47c4 14.667 8.66699 29 14 43c19.333 31.333 46 57.333 80 78c34 18.667 66.667 28 98 28
c62.667 0 113.334 -14.333 152.001 -43c22.667 -17.333 39 -39.666 49 -66.999c6.66699 -28.667 10 -61 10 -97v-303c0 -54.667 -1.33301 -110 -4 -166c-2.66699 -26.667 -16.334 -39.334 -41.001 -38.001h-51c-10 0 -17 -0.666992 -21 -2c-4 -3.33301 -6 -9 -6 -17v-35
c0 -13.333 5.66699 -20 17 -20c18.667 2.66699 82 4.66699 190 6c49.333 -0 88.333 -0.666992 117 -2c28.667 -2.66699 46.334 -4 53.001 -4c9.33301 0 14 6.66699 14 20v35c0 12.667 -7.33301 19 -22 19h-55c-27.333 -1.33301 -41.666 12.334 -42.999 41.001v456
c0 41.333 -2.33301 75.666 -7 102.999c-5.33301 26 -13.333 47.667 -24 65c-19.333 34 -42 62 -68 84c-24.667 24.667 -52 41.667 -82 51c-31.333 7.33301 -65.333 11 -102 11c-62.667 -2 -120 -18 -172 -48c-54.667 -31.333 -97.667 -68 -129 -110h-10
c-45.333 102 -122.666 154.667 -231.999 158c-60 0 -116.667 -15.333 -170 -46c-54.667 -30 -98.334 -66.667 -131.001 -110h-6l-8 119c0 17.333 -6.33301 26.666 -19 27.999c-8 0 -20.667 -4 -38 -12l-181 -92c-6.66699 -2.66699 -10.667 -8 -12 -16v-17
c0 -5.33301 4.66699 -10.666 14 -15.999l43 -23c12.667 -5.33301 23 -12 31 -20c8 -8.66699 13.333 -17 16 -25c7.33301 -19.333 11 -39 11 -59v-365c0 -35.333 -0.666992 -70.666 -2 -105.999c0 -18 -2.33301 -31 -7 -39c-5.33301 -8 -13.333 -12 -24 -12h-70
c-17.333 1.33301 -25.333 -5 -24 -19v-37c0 -12 5.33301 -18 16 -18c18 2.66699 81.667 4.66699 191 6c57.333 0 101 -0.666992 131 -2c28.667 -2.66699 47 -4 55 -4c10.667 0 16 7.33301 16 22v33c1.33301 12.667 -5.33398 19 -20.001 19h-74c-27.333 0 -41 17.667 -41 53
v405c-1.33301 54.667 8.33398 100.667 29.001 138c30 46 63.333 78 100 96c36.667 14.667 68.667 22 96 22c23.333 0 48 -2.66699 74 -8c26 -6.66699 45 -16.334 57 -29.001c18 -12 33.333 -33 46 -63c10.667 -31.333 16 -84 16 -158v-422z" />
    <glyph glyph-name="aring" unicode="n" horiz-adv-x="1089" 
d="M917 639c0 28.667 -10.668 62.666 -32.001 101.999c-22 40 -48.667 70.667 -80 92c-52 30.667 -110 46 -174 46c-53.333 -2 -105.333 -17.333 -156 -46c-50.667 -30 -92.334 -64.667 -125.001 -104h-4l-14 125c-1.33301 16.667 -7 25 -17 25c-8 0 -20 -5 -36 -15
l-177 -98c-12 -4 -18 -11 -18 -21v-10c-1.33301 -5.33301 4 -11.333 16 -18l17 -8c27.333 -12.667 47.666 -27.667 60.999 -45c15.333 -20.667 23 -46 23 -76v-479c0 -16.667 -3 -27.667 -9 -33c-8 -5.33301 -18.667 -8 -32 -8h-60c-14.667 0 -21.334 -6.33301 -20.001 -19
v-37c0 -12 4.66699 -18 14 -18c15.333 2.66699 76 4.66699 182 6c54.667 0 97 -0.666992 127 -2c28.667 -2.66699 46 -4 52 -4c9.33301 0 14 6 14 18v35c0 14 -7 21 -21 21h-51c-20 0 -33 4.66699 -39 14c-6.66699 9.33301 -10 27 -10 53v424c0 22 3.33301 45.333 10 70
c6 23.333 18.333 46.333 37 69c32.667 32.667 64.667 54.667 96 66c30.667 9.33301 54 14 70 14c26 0 51.333 -1.33301 76 -4c24.667 -4 49.334 -15 74.001 -33c28.667 -20 46.334 -45 53.001 -75c4 -32 6 -68.333 6 -109v-270c0 -57.333 -1.33301 -114.666 -4 -171.999
c0 -18 -3.33301 -29.667 -10 -35c-8.66699 -8 -19 -12 -31 -12h-59c-19.333 0 -28.333 -6.33301 -27 -19v-33c0 -14.667 5.33301 -22 16 -22c16.667 2.66699 78.334 4.66699 185.001 6c58.667 -0 104.334 -0.666992 137.001 -2c32.667 -2.66699 51.667 -4 57 -4
c11.333 0 17 7.33301 17 22v33c0 12.667 -7.66699 19 -23 19h-66c-30 -1.33301 -45 13 -45 43v528z" />
    <glyph glyph-name="ccedilla" unicode="o" horiz-adv-x="1020" 
d="M496 -25c129.333 3.33301 236.335 51.334 321.002 144.001c86 88.667 129.667 191 131 307c0 131.333 -46.333 242.666 -139 333.999c-31.333 32.667 -72.333 60.667 -123 84c-50.667 21.333 -105.334 33 -164.001 35c-32.667 0 -73 -6.33301 -121 -19
c-47.333 -13.333 -98.333 -40 -153 -80c-58.667 -47.333 -102.334 -100.666 -131.001 -159.999c-30 -58.667 -45 -115 -45 -169c0 -70 7.33301 -129.667 22 -179c15.333 -48.667 45.333 -100.334 90 -155.001c45.333 -50.667 96 -87 152 -109s109.333 -33 160 -33v0z
M520.002 37.001c-46 0 -85.6689 9.66504 -119.002 28.998c-31.333 18.667 -59.333 44.334 -84 77.001c-31.333 46.667 -51.666 92.667 -60.999 138c-5.33301 22.667 -9.33301 46.334 -12 71.001s-4 50.667 -4 78c0 76.667 8.66699 140 26 190c16.667 48 44 92 82 132
c24.667 25.333 50.667 43 78 53c27.333 8 54 12 80 12c57.333 -1.33301 116 -34 176 -98c27.333 -32.667 50 -71.667 68 -117c17.333 -45.333 26 -97.333 26 -156c-1.33301 -111.333 -23.666 -206 -66.999 -284c-22 -37.333 -48.667 -67.333 -80 -90
c-32.667 -23.333 -69 -35 -109 -35v0z" />
    <glyph glyph-name="eacute" unicode="p" horiz-adv-x="1053" 
d="M182 -82c0 -196.667 -1.99902 -315.332 -5.99902 -355.999c-1.33301 -15.333 -4 -27 -8 -35c-5.33301 -10.667 -17 -16 -35 -16h-80c-17.333 0 -25.333 -6.33301 -24 -19v-37c-1.33301 -12 4.66699 -18 18 -18c18 2.66699 87 4.66699 207 6
c131.333 -1.33301 201.666 -3.33301 210.999 -6c12 0 18 6 18 18v35c1.33301 14 -4.66699 21 -18 21h-90c-14 0 -25 4.66699 -33 14c-8 8 -12 25.667 -12 53v432c34 -12 69.333 -20.667 106 -26c38.667 -6 71.334 -9 98.001 -9c131.333 3.33301 238 51.333 320 144
c80.667 90 121.667 203.333 123 340c0 78.667 -8.33301 142.667 -25 192c-17.333 48 -46 90.333 -86 127c-28.667 28.667 -61.334 52.667 -98.001 72c-38 19.333 -83 29 -135 29c-68.667 -2 -128 -15.667 -178 -41c-52 -26 -92.333 -58.333 -121 -97h-6l-9 99
c0 27.333 -4.66699 41 -14 41c-14.667 -1.33301 -30.334 -7 -47.001 -17l-197 -98c-9.33301 -4 -14 -8.66699 -14 -14v-17c-1.33301 -5.33301 3.33398 -11.333 14.001 -18l48 -27c30 -14.667 50.333 -30.334 61 -47.001c8 -18 12 -39 12 -63v-662zM330.001 653.002
c54.667 86 127.666 129.668 218.999 131.001c72 0 134 -30.667 186 -92c52 -64 78.667 -167 80 -309c-1.33301 -124 -26 -212 -74 -264c-21.333 -26 -45.666 -45.333 -72.999 -58c-28.667 -13.333 -59 -20 -91 -20c-81.333 -1.33301 -149.333 17 -204 55
c-18 15.333 -29.667 31.666 -35 48.999c-5.33301 16.667 -8 36.667 -8 60v448z" />
    <glyph glyph-name="egrave" unicode="q" horiz-adv-x="1040" 
d="M887 393c0 157.333 1.99609 258.331 5.99609 302.998c2.66699 40 8 85 16 135c5.33301 19.333 5.33301 29.666 0 30.999l-18 14c-5.33301 6 -11.666 7 -18.999 3l-108 -46c-83.333 30.667 -164.666 46 -243.999 46c-94 1.33301 -184 -31.667 -270 -99
c-56 -47.333 -98.333 -106 -127 -176c-31.333 -69.333 -47 -135.666 -47 -198.999c0 -87.333 13 -158.333 39 -213c22.667 -55.333 52.667 -99.666 90 -132.999c38 -30 78.333 -51 121 -63c42 -14 80.667 -21 116 -21c75.333 1.33301 137 13 185 35c46 20.667 82 42 108 64
h4v-51v-273c0 -105.333 -1.33301 -170.666 -4 -195.999c-1.33301 -28.667 -17.666 -43 -48.999 -43h-84c-16.667 0 -24 -5 -22 -15v-41c0 -12 5.33301 -18 16 -18c14.667 2.66699 86.334 4.66699 215.001 6c53.333 0 97.666 -0.666992 132.999 -2
c35.333 -2.66699 57.333 -4 66 -4c9.33301 0 14 5.33301 14 16v45c0 8.66699 -7 13 -21 13h-63c-27.333 1.33301 -41.666 21 -42.999 59c-6.66699 83.333 -10 202 -10 356v467zM738.996 151.998c-18.667 -23.333 -47.332 -43.9971 -85.999 -61.9971
c-36.667 -20.667 -80.334 -31 -131.001 -31c-65.333 0 -125.333 28.667 -180 86c-24.667 27.333 -48 65.666 -70 114.999c-10.667 27.333 -19.334 58 -26.001 92c-8.66699 35.333 -13 76.333 -13 123c0 68 22.667 139.667 68 215c23.333 35.333 52 64.666 86 87.999
c32.667 23.333 71.667 35 117 35c44.667 0 92.334 -13 143.001 -39c23.333 -13.333 44 -32.333 62 -57c16 -24.667 26 -55.334 30 -92.001v-473z" />
    <glyph glyph-name="ecircumflex" unicode="r" horiz-adv-x="698" 
d="M199 352c0 -100.667 -0.666016 -182.666 -1.99902 -245.999c0 -25.333 -15 -38 -45 -38h-80c-16.667 0 -24.334 -6.33301 -23.001 -19v-35c0 -13.333 4 -20 12 -20c18 2.66699 93.333 4.66699 226 6c57.333 0 105.666 -0.666992 144.999 -2
c41.333 -2.66699 65.333 -4 72 -4s10 6 10 18v37c0 12.667 -4.66699 19 -14 19h-97c-20 0 -34.333 6.66699 -43 20c-9.33301 12 -14 33.333 -14 64v430c0 13.333 7 35 21 65c18.667 32.667 39.667 56 63 70c22 10.667 41 16 57 16c27.333 0 50 -5.33301 68 -16
c16.667 -11.333 36.334 -17 59.001 -17c20.667 0 40 9.66699 58 29c17.333 19.333 26.666 43.333 27.999 72c0 26 -8 47 -24 63c-18 18 -44.667 27 -80 27c-44 -1.33301 -87.667 -19 -131 -53c-44 -34.667 -82.333 -76.334 -115 -125.001h-8l-10 141c0 14.667 -5 23 -15 25
c-6.66699 0 -16 -3 -28 -9l-203 -104c-10.667 -5.33301 -16 -11.666 -16 -18.999v-12c0 -6.66699 5.33301 -11.334 16 -14.001l39 -21c28.667 -12 48.334 -28.333 59.001 -49c10 -20.667 15 -56 15 -106v-193z" />
    <glyph glyph-name="edieresis" unicode="s" horiz-adv-x="729" 
d="M340 -25c90 1.33301 163.664 25.998 220.997 73.998s87.333 113.667 90 197c-1.33301 77.333 -23 136 -65 176c-44 38 -104.333 66.667 -181 86c-50 12 -95 29.667 -135 53c-39.333 20.667 -59.666 59.667 -60.999 117c0 44.667 17 78.667 51 102c30 22 65.667 33 107 33
c40.667 -1.33301 72 -9.66602 94 -24.999c22 -14.667 38.333 -33 49 -55l70 -94c5.33301 -9.33301 11.333 -12.666 18 -9.99902l25 8c9.33301 4 14 10 14 18l-31 144c2.66699 10.667 -9.66602 23 -36.999 37c-17.333 10.667 -40.333 20 -69 28c-30 10 -69.667 15 -119 15
c-78 -2 -144.333 -25.333 -199 -70c-57.333 -46.667 -86.666 -106.667 -87.999 -180c1.33301 -78 27.333 -136.667 78 -176c48 -40 102.667 -68 164 -84c76.667 -20.667 129.334 -45.334 158.001 -74.001c26.667 -30 40 -68.333 40 -115c-1.33301 -46 -19 -80.667 -53 -104
c-32.667 -23.333 -68.667 -35 -108 -35c-52 0 -89.667 12.333 -113 37c-24.667 23.333 -46.334 53.333 -65.001 90l-52 100c-4 11.333 -10 15.666 -18 12.999l-27 -7c-9.33301 -1.33301 -13.333 -6.66602 -12 -15.999l35 -195c0 -10.667 4 -20 12 -28
c14 -10 39.333 -21.667 76 -35c38 -15.333 81.667 -23.666 131 -24.999v0z" />
    <glyph glyph-name="iacute" unicode="t" horiz-adv-x="653" 
d="M346 461c0 95.333 2 190.665 6 285.998h264c11.333 0 17.666 5.66699 18.999 17l20 72c4 10.667 -0.666992 16.667 -14 18h-285l11 203c0 18.667 -7 28.667 -21 30c-12 0 -21.667 -6.66699 -29 -20c-16 -39.333 -51.333 -87 -106 -143
c-54.667 -57.333 -97 -95.666 -127 -114.999c-12 -5.33301 -21 -10.666 -27 -15.999c-6.66699 -6 -10 -13 -10 -21c0 -16.667 10.333 -25 31 -25h125c-2.66699 -110 -4 -196.667 -4 -260v-45c-2.66699 -69.333 -5 -167 -7 -293c0 -40.667 21.333 -78.667 64 -114
c19.333 -16.667 40.333 -30.334 63 -41.001c23.333 -12.667 47.333 -19 72 -19c62.667 1.33301 114 13 154 35c20 10 36.333 19 49 27c12 9.33301 20 16 24 20c8.66699 7.33301 10.334 15 5.00098 23l-11 18c-5.33301 8.66699 -13.333 10 -24 4
c-15.333 -8 -35.333 -14 -60 -18c-24.667 -5.33301 -49.667 -8 -75 -8c-20.667 -1.33301 -42.667 10.334 -66 35.001c-26 22.667 -39.667 71 -41 145v205z" />
    <glyph glyph-name="igrave" unicode="u" horiz-adv-x="1036" 
d="M854 567c1.33301 182 5.33105 273.004 11.998 273.004c1.33301 12 -4.66699 18.667 -18 20c-5.33301 -1.33301 -13.666 -2 -24.999 -2c-9.33301 -2.66699 -21 -4 -35 -4h-190c-18 1.33301 -26.333 -4.66699 -25 -18v-35c-1.33301 -10 13.667 -15 45 -15
c26 0 47.333 -4.66699 64 -14c14.667 -9.33301 23 -28.333 25 -57v-488c0 -8 -2.33301 -17.333 -7 -28c-4 -11.333 -8.66699 -20.333 -14 -27c-20.667 -26 -47.334 -48.667 -80.001 -68c-34 -22.667 -66 -34 -96 -34c-27.333 -1.33301 -54.666 2.66699 -81.999 12
c-28.667 8 -56 29.667 -82 65c-16 24.667 -27 50.667 -33 78c-5.33301 27.333 -9.33301 54.666 -12 81.999c-1.33301 56 -1.33301 105.333 0 148v145c0 130 2.66699 208.667 8 236c1.33301 14.667 -6 22.667 -22 24c-7.33301 -1.33301 -15 -2 -23 -2
c-6.66699 -2.66699 -16 -4 -28 -4h-183c-16 0 -23.333 -5.33301 -22 -16v-37c-1.33301 -8.66699 13.667 -13.667 45 -15c24.667 -1.33301 43.667 -7.33301 57 -18c14 -10.667 21 -30.334 21 -59.001v-238c-1.33301 -108 2 -188.667 10 -242
c6.66699 -54.667 29.667 -107.667 69 -159c36 -41.333 70.333 -67.333 103 -78c31.333 -11.333 61.333 -17 90 -17c53.333 1.33301 106 15.666 158 42.999c50 27.333 90 61 120 101h5l16 -119c2.66699 -16.667 8.66699 -25 18 -25c16.667 1.33301 30.334 4.33301 41.001 9
l215 71c8.66699 1.33301 12.334 7.66602 11.001 18.999l-7 26c-1.33301 10 -9.33301 13 -24 9c-28.667 -6 -51.334 -8.33301 -68.001 -7c-12 -1.33301 -22 3 -30 13c-11.333 9.33301 -19 29 -23 59c-2.66699 53.333 -4 134 -4 242v151z" />
    <glyph glyph-name="icircumflex" unicode="v" horiz-adv-x="887" 
d="M350 506c-8 24.667 -20.332 64.999 -36.999 120.999c-5.33301 27.333 -11.333 52.333 -18 75c-6.66699 22 -10 37 -10 45c1.33301 26 13.666 39 36.999 39h40c10 0 15 7 15 21v37c0 10.667 -7 16 -21 16c-17.333 -2.66699 -78.666 -4.66699 -183.999 -6
c-104 2.66699 -161.333 4.66699 -172 6c-15.333 0 -23 -5.33301 -23 -16v-37c0 -14 4.33301 -21 13 -21h41c17.333 0 33 -4.66699 47 -14c12 -10.667 24.333 -31 37 -61c39.333 -102.667 74 -197 104 -283l160 -416c6.66699 -12 12.667 -21.333 18 -28
c7.33301 -8.66699 15.666 -13.667 24.999 -15c19.333 1.33301 35.666 17 48.999 47l88 195c46.667 106.667 78.667 181.667 96 225c19.333 46.667 47.333 108 84 184c16.667 36 32.334 67.667 47.001 95c15.333 26 26.333 42.333 33 49c18 14.667 39.333 22 64 22h39
c6.66699 0 10 7 10 21v35c1.33301 13.333 -5 19.333 -19 18c-17.333 -2.66699 -66.333 -4.66699 -147 -6c-44 0 -79 1.33301 -105 4c-25.333 1.33301 -45 2 -59 2c-8 0 -12 -5.33301 -12 -16v-37c0 -14 2.66699 -21 8 -21h41c38 -1.33301 50.333 -30.666 37 -87.999
c-15.333 -50 -46 -134 -92 -252l-105 -258h-6l-63 162l-60 156v0z" />
    <glyph glyph-name="idieresis" unicode="w" horiz-adv-x="1405" 
d="M850 721c-4 16 -2.66211 29.666 4.00488 40.999c6.66699 8 15 12 25 12h43c9.33301 0 14 5.33301 14 16v43c0 10 -6.33301 15 -19 15c-12 -2.66699 -63.667 -4.66699 -155 -6c-50.667 0 -91.667 1.33301 -123 4c-32.667 1.33301 -53.334 2 -62.001 2
c-12 0 -18 -5.66699 -18 -17v-43c0 -9.33301 4.66699 -14 14 -14h31c27.333 0 45.666 -6.66699 54.999 -20c6 -8.66699 11 -17.667 15 -27c1.33301 -9.33301 2.66602 -22.333 3.99902 -39l-209 -500h-8l-162 543c-9.33301 36.667 -1 55 25 55h18c10.667 0 16 5.66699 16 17
v41c0 10.667 -5.33301 16 -16 16c-26 -2.66699 -83.333 -4.66699 -172 -6c-56 0 -97.667 1.33301 -125 4c-27.333 1.33301 -47.666 2 -60.999 2c-8.66699 0 -13 -5.33301 -13 -16v-39c0 -12.667 5 -19 15 -19h45c46 0 74.667 -18.333 86 -55l268 -721
c8 -26 19.667 -39.667 35 -41c17.333 0 31.666 11 42.999 33l252 590h10l201 -584c9.33301 -24.667 21.333 -37.667 36 -39c18 -1.33301 31 7.66699 39 27l158 389l55 131l45 113c28.667 70.667 46.667 111.667 54 123c6.66699 10.667 16 18.667 28 24
c12.667 6.66699 25 10 37 10h51c10 0 15 5.66699 15 17v43c0 9.33301 -5 14 -15 14c-17.333 -2.66699 -67 -4.66699 -149 -6c-42.667 0 -77.667 1.33301 -105 4c-28.667 1.33301 -46.334 2 -53.001 2c-9.33301 0 -14 -4.66699 -14 -14v-43
c-1.33301 -11.333 2.66699 -17 12 -17h29c43.333 -1.33301 53.666 -38.666 30.999 -111.999l-166 -451h-9z" />
    <glyph glyph-name="ntilde" unicode="x" horiz-adv-x="897" 
d="M311 51c0 10 -3.33008 15.6641 -9.99707 16.9971h-43c-12 0 -19.333 5.33301 -22 16c-4.66699 8 -4.66699 17.667 0 29c12 22.667 39.667 65 83 127l95 129v0l147 -236c10.667 -16 14.667 -31 12 -45c-4 -13.333 -12 -20 -24 -20h-31c-12 0 -17.333 -7 -16 -21v-35
c-1.33301 -10.667 4 -16.667 16 -18c20.667 2.66699 87.667 4.66699 201 6c94 -1.33301 146.333 -3.33301 157 -6c10 1.33301 15 6.66602 15 15.999v41c0 11.333 -3.33301 17 -10 17h-33c-35.333 0 -65.333 14.333 -90 43c-88.667 112 -173.334 230 -254.001 354l131 160
c58.667 70.667 99 116.334 121 137.001c17.333 16 44 24 80 24h32c11.333 0 17 5.66699 17 17v37c1.33301 13.333 -5 20 -19 20c-5.33301 -2.66699 -44 -4.66699 -116 -6c-56 0 -96.333 1.33301 -121 4c-26 1.33301 -44.667 2 -56 2c-6.66699 0 -10 -5.33301 -10 -16v-43
c-1.33301 -10 2.66699 -15 12 -15h25c18 -1.33301 29 -8.66602 33 -21.999c4 -15.333 0.666992 -29.666 -10 -42.999l-156 -205v0l-127 201c-12 18.667 -17.333 35 -16 49c0 13.333 8 20 24 20h19c8 0 12 5.66699 12 17v39c0 12 -4 18 -12 18
c-24.667 -2.66699 -88.334 -4.66699 -191.001 -6c-46.667 0 -84.334 1.33301 -113.001 4c-28.667 1.33301 -47 2 -55 2c-10.667 0 -16 -6 -16 -18v-41c0 -10 4.66699 -15 14 -15h57c32 0 56.667 -9.33301 74 -28c66 -78 146.667 -190.667 242 -338l-129 -164l-80 -100
c-26 -31.333 -44.333 -52.666 -55 -63.999c-14 -16 -42 -24 -84 -24h-54c-10.667 -1.33301 -16 -7.66602 -16 -18.999v-37c0 -10.667 6.33301 -16.667 19 -18c12 2.66699 64.333 4.66699 157 6c45.333 0 81 -0.666992 107 -2c27.333 -2.66699 45 -4 53 -4
c9.33301 1.33301 14 6.66602 14 15.999v41z" />
    <glyph glyph-name="oacute" unicode="y" horiz-adv-x="893" 
d="M115 -557c54.667 1.33301 93.999 17 117.999 47c23.333 28.667 42 57.334 56 86.001c40.667 82 113 243.667 217 485l198 445c57.333 130.667 98.333 212 123 244c23.333 24 47.333 36 72 36h33c6.66699 0 10 6.33301 10 19v39
c1.33301 9.33301 -2.66699 14.666 -12 15.999c-24.667 -2.66699 -66.334 -4.66699 -125.001 -6c-48 0 -84.333 1.33301 -109 4c-26 1.33301 -45.667 2 -59 2c-9.33301 0 -13.333 -5.33301 -12 -16v-41c-1.33301 -11.333 3.33398 -17 14.001 -17h33
c32.667 0 44.334 -25.667 35.001 -77c-12.667 -41.333 -46.334 -128.333 -101.001 -261c-26 -58.667 -48.333 -111.667 -67 -159c-22 -49.333 -36.333 -78.666 -43 -87.999h-9c-16 39.333 -45.333 130 -88 272l-51 172c-16 52 -25.667 84 -29 96c-4 30 5 45 27 45h39
c8 0 12 5.66699 12 17v43c1.33301 9.33301 -4.66699 14 -18 14c-22 -2.66699 -85.667 -4.66699 -191 -6c-58.667 0 -102.334 1.33301 -131.001 4c-28.667 1.33301 -47.667 2 -57 2c-10.667 0 -16 -4.66699 -16 -14v-41c0 -12.667 5.33301 -19 16 -19h53
c26 0 46 -7.33301 60 -22c13.333 -15.333 25.333 -36.666 36 -63.999c18 -44.667 59.667 -165.334 125 -362.001l80 -240c23.333 -69.333 36.333 -113 39 -131c-17.333 -46 -44 -109.333 -80 -190c-16 -38.667 -31.667 -71.334 -47 -98.001
c-14.667 -30.667 -27 -51.334 -37 -62.001c-13.333 -10.667 -27.666 -14.667 -42.999 -12c-8 2.66699 -21 7.33398 -39 14.001c-16 5.33301 -34.333 8 -55 8c-24.667 0 -45.667 -7.33301 -63 -22c-19.333 -15.333 -29.666 -34.666 -30.999 -57.999
c0 -66.667 39 -101.334 117 -104.001v0z" />
    <glyph glyph-name="ograve" unicode="z" horiz-adv-x="889" 
d="M387 0c27.333 0 87.3311 -1.33301 179.998 -4c84.667 0 146.334 -7 185.001 -21l157 279c5.33301 9.33301 4 16 -4 20l-20 15c-10 6.66699 -19 4.66699 -27 -6c-65.333 -86 -122 -145 -170 -177c-46.667 -30 -83.667 -44.333 -111 -43h-290l542 762
c10 18 4 27.667 -18 29h-283c-129.333 0 -218.666 2.66699 -267.999 8c-38 4 -70.667 10.333 -98 19l-135 -287c-4.66699 -9.33301 -3.33398 -16.333 3.99902 -21l26 -12c8.66699 -5.33301 16.334 -2.66602 23.001 8.00098c79.333 101.333 138 165.666 176 192.999
c38 22 86.333 32.333 145 31h217l-526 -758c-16 -23.333 -12 -35 12 -35h283z" />
    <glyph glyph-name="ocircumflex" unicode="{" horiz-adv-x="725" 
d="M86 608c0 -18.667 9.00098 -30.334 27.001 -35.001c26 0 50.333 -7.33301 73 -22c26 -16.667 44 -40.667 54 -72c8 -31.333 12 -64 12 -98c-1.33301 -60 -13 -125 -35 -195c-23.333 -68 -35.666 -137.667 -36.999 -209c0 -62.667 15.667 -114.334 47 -155.001
c27.333 -42.667 62.333 -76 105 -100c23.333 -12.667 45.666 -23 66.999 -31l68 -23c23.333 -5.33301 45.666 -9.33301 66.999 -12c20.667 -4 39.334 -6.66699 56.001 -8c30 -1.33301 52.333 -2 67 -2c10 0 15 9.33301 15 28c0 24.667 -5 37 -15 37
c-13.333 0 -37.666 2.66699 -72.999 8c-49.333 11.333 -101.333 36 -156 74c-24.667 20.667 -45 47.334 -61 80.001c-18 32.667 -27 72.334 -27 119.001c0 65.333 5.33301 132 16 200c10 68.667 15.667 126.334 17 173.001c0 36.667 -5.66699 68.667 -17 96
c-10.667 27.333 -23 47 -37 59c-9.33301 14 -18 25.667 -26 35l-25 22c-13.333 11.333 -20 21.666 -20 30.999c1.33301 15.333 23.666 42 66.999 80c36 28.667 55.333 81.334 58 158.001c-1.33301 54.667 -7 112.667 -17 174c-10.667 62.667 -16 131 -16 205
c0 69.333 24 124.333 72 165c44.667 40 101.334 64 170.001 72c24 1.33301 45.667 2 65 2c16.667 0 25 12.333 25 37c0 19.333 -11.667 29 -35 29c-19.333 0 -51.333 -1.33301 -96 -4c-88.667 -6 -169.334 -34.667 -242.001 -86c-35.333 -24.667 -63.333 -55.667 -84 -93
c-23.333 -38 -35 -83 -35 -135c0 -36.667 5 -72 15 -106c6.66699 -36.667 14 -72.334 22 -107.001c9.33301 -34 17.666 -67.333 24.999 -100c6.66699 -34 10 -68 10 -102c0 -31.333 -5.33301 -60 -16 -86c-12.667 -24.667 -30 -42 -52 -52c-23.333 -8 -47 -12 -71 -12
c-18 0 -27 -13 -27 -39v0z" />
    <glyph glyph-name="odieresis" unicode="|" horiz-adv-x="717" 
d="M403 -532c7.33301 1.33301 11 8 11 20v2048c0 16 -5 24 -15 24h-82c-9.33301 0 -13.333 -6 -12 -18v-2054c-1.33301 -12 2.66699 -18.667 12 -20h86z" />
    <glyph glyph-name="otilde" unicode="}" horiz-adv-x="725" 
d="M639 608c-1.33301 20.667 -11 32.333 -29 35c-23.333 0 -47 7.66699 -71 23c-24.667 17.333 -42 41.666 -52 72.999c-9.33301 31.333 -14 63.666 -14 96.999c1.33301 50 13.666 108 36.999 174c9.33301 32.667 17.333 66 24 100c7.33301 34 11 67.333 11 100
c-1.33301 58.667 -15.666 108.667 -42.999 150c-27.333 39.333 -63 71.333 -107 96c-94 48 -180.667 72 -260 72c-28.667 1.33301 -50.334 2 -65.001 2c-11.333 0 -17 -11 -17 -33c0 -23.333 6.33301 -34.333 19 -33c13.333 0 36.333 -2 69 -6
c52 -5.33301 104.667 -30 158 -74c54.667 -42 83.334 -104.667 86.001 -188c-1.33301 -64 -6.66602 -128.333 -15.999 -193c-11.333 -64 -17 -114.333 -17 -151s6.33301 -68 19 -94c10.667 -26 21.334 -46.667 32.001 -62c23.333 -26 42 -44.333 56 -55
c12 -10.667 18 -21.667 18 -33c-1.33301 -13.333 -24.333 -40 -69 -80c-34.667 -27.333 -53.334 -79.666 -56.001 -156.999c0 -44 5.66699 -97.333 17 -160c9.33301 -60 14.666 -133 15.999 -219c-1.33301 -80.667 -24 -145 -68 -193c-44.667 -47.333 -102.667 -76 -174 -86
c-24.667 -1.33301 -46.334 -2 -65.001 -2c-18 0 -26.333 -11.667 -25 -35c0 -18.667 11.667 -28.667 35 -30c20.667 0 52 1.33301 94 4c90 8 172 42 246 102c75.333 60 114.333 144 117 252c0 44 -3.66699 85 -11 123c-6.66699 36.667 -14.667 71.334 -24 104.001l-23 101
c-9.33301 30 -14 59.333 -14 88c0 34 6 63.333 18 88c12.667 26 29.334 42.333 50.001 49c22.667 8 45.667 12 69 12c18 0 27.667 13 29 39v0z" />
    <glyph glyph-name="uacute" unicode="~" 
d="M799 633c-1.33301 -58.667 -11.6689 -100.334 -31.002 -125.001c-19.333 -26 -42.666 -39 -69.999 -39c-21.333 0 -43.666 8.33301 -66.999 25l-62 36l-86 58c-54.667 34 -109.334 50.333 -164.001 49c-54 0 -100.333 -25.333 -139 -76
c-42 -49.333 -63 -119.666 -63 -210.999h108c0 60 11.667 103 35 129c20.667 23.333 40.334 35 59.001 35c44 0 89.333 -15 136 -45l79 -55c28.667 -19.333 56.667 -35 84 -47c27.333 -14 56 -21 86 -21c54.667 0 102.667 25.333 144 76c38 50.667 57.667 121 59 211h-108z
" />
    <glyph glyph-name="uni00A0" unicode="&#xa0;" horiz-adv-x="520" 
 />
    <glyph glyph-name="fl" unicode="&#xa1;" horiz-adv-x="520" 
d="M268 643c31.333 0 58.667 10.999 82 32.999c22 18.667 33 45.334 33 80.001c-1.33301 39.333 -13 70 -35 92c-23.333 20.667 -50 31 -80 31c-48.667 -2 -82 -16.333 -100 -43c-19.333 -27.333 -29 -51.333 -29 -72c1.33301 -46.667 17.666 -78.667 48.999 -96
c28.667 -18 55.334 -26.333 80.001 -25v0zM268.001 -557.001c28.667 1.33301 52.668 13.667 72.001 37c18 24.667 27 52.667 27 84c-1.33301 60 -11 185.667 -29 377c-16.667 190.667 -27.667 343.334 -33 458.001c0 14 -4.66699 21 -14 21h-37
c-10.667 0 -15.334 -5 -14.001 -15c-6 -116 -18.333 -274.333 -37 -475l-23 -241c-1.33301 -16.667 -2 -31 -2 -43c-1.33301 -14 -3.33301 -26.333 -6 -37c-4 -23.333 -6 -38.333 -6 -45c-1.33301 -42.667 9 -73.334 31 -92.001c20 -19.333 43.667 -29 71 -29v0z" />
    <glyph glyph-name="questiondown" unicode="&#xa2;" 
d="M477 340c-24.667 8 -45.665 18.333 -62.998 31c-20.667 12 -39.334 27.667 -56.001 47c-30 32.667 -54.333 73 -73 121c-22 46 -33 112 -33 198c1.33301 90 27.333 163 78 219c47.333 54.667 106.666 84.667 177.999 90zM526.002 -31c10 0 15.001 9.66504 15.001 28.998
l10 221c78 1.33301 147 17.666 207 48.999c60 28.667 105 61 135 97c9.33301 10.667 9.33301 19.334 0 26.001l-21 21c-6.66699 5.33301 -12 5.33301 -16 0c-32.667 -33.333 -66 -56.666 -100 -69.999c-36 -16.667 -82.667 -25 -140 -25c-14.667 0 -35 1.66699 -61 5l33 724
c44.667 -1.33301 80.667 -25.666 108 -72.999c28.667 -56 65 -83.333 109 -82c46 0 71.333 21.667 76 65c1.33301 24.667 -18 57 -58 97c-22 18.667 -51.333 34.334 -88 47.001c-38 13.333 -85.667 20 -143 20l8 189c0 18.667 -4 28 -12 28h-54
c-9.33301 0 -14 -6.66699 -14 -20l-10 -203c-135.333 -20.667 -237 -74.667 -305 -162c-70 -88.667 -105 -192.334 -105 -311.001c-2.66699 -88.667 29.666 -178.667 96.999 -270c42 -50.667 87.667 -87 137 -109c47.333 -20.667 93 -33.667 137 -39l-10 -221
c-1.33301 -22 2.66699 -33 12 -33h53z" />
    <glyph glyph-name="exclamdown" unicode="&#xa3;" 
d="M57 537c-10.667 0 -15.332 -4.33008 -13.999 -12.9971v-47c0 -10.667 6 -15.334 18 -14.001h150c-12.667 -32.667 -29.667 -71.667 -51 -117c-22 -46.667 -41.333 -78.667 -58 -96c-38 -20.667 -76 -52.667 -114 -96c-18 -20.667 -32.333 -41.334 -43 -62.001
c-12.667 -20.667 -19.667 -40.334 -21 -59.001c0 -20.667 12.333 -31.667 37 -33c23.333 0 45.333 9 66 27c20 16 38.333 35.667 55 59c16 23.333 30.333 46.666 43 69.999c12 22.667 21.667 40.334 29 53.001c44.667 4 86.334 -0.666992 125.001 -14
c36.667 -15.333 72 -44 106 -86c78 -93.333 173 -140 285 -140c50 0 93.667 7.66699 131 23c34 13.333 61.333 29.666 82 48.999c20 22 35 43 45 63c6.66699 20.667 10 38.667 10 54c-1.33301 39.333 -15.666 71.333 -42.999 96c-28.667 23.333 -62 35 -100 35
c-38.667 -1.33301 -64.667 -11 -78 -29c-14 -19.333 -21 -37 -21 -53c0 -41.333 36.333 -63.333 109 -66c20.667 0 33 -2 37 -6c4 -5.33301 2 -16.333 -6 -33c-4.66699 -10.667 -15 -22.667 -31 -36c-16.667 -16.667 -37.334 -25 -62.001 -25
c-62.667 1.33301 -111 24 -145 68c-58.667 68 -117.334 113.667 -176.001 137c-60 22 -139.333 26.667 -238 14l-2 4c20.667 24.667 45.334 56 74.001 94c27.333 37.333 50 72.333 68 105h319c14 0 21 4.66699 21 14v47c0 8.66699 -6.33301 13 -19 13h-287
c16.667 25.333 49 89.333 97 192c44.667 102.667 78.667 194.667 102 276c30 123.333 63.333 209.666 100 258.999c19.333 24 39.333 41.667 60 53c20 9.33301 41 14 63 14c19.333 0 33.666 -2.66699 42.999 -8c10 -6.66699 17.667 -14.334 23 -23.001
c8 -17.333 13.333 -31.666 16 -42.999c27.333 -51.333 68.333 -76.333 123 -75c20.667 2.66699 38.334 10.667 53.001 24c15.333 12.667 23.666 30.334 24.999 53.001c0 27.333 -18.333 56.666 -55 87.999c-19.333 15.333 -43.333 28.333 -72 39
c-28.667 8.66699 -62 13 -100 13c-92 -1.33301 -176 -35.666 -252 -102.999c-76.667 -65.333 -133.334 -147.666 -170.001 -246.999c-26 -75.333 -56.667 -169 -92 -281c-37.333 -113.333 -65.333 -190.333 -84 -231h-181z" />
    <glyph glyph-name="breve" unicode="&#xa4;" 
d="M942 1161c-5.33301 5.33301 -11.3311 4.66797 -17.998 -1.99902l-199 -184v0c-22 18.667 -50.667 34.334 -86 47.001c-35.333 10.667 -71 16 -107 16c-40.667 0 -80 -4.66699 -118 -14c-40 -12.667 -74.333 -31 -103 -55v0l-205 192
c-5.33301 5.33301 -12 4.66602 -20 -2.00098l-39 -41c-6.66699 -8 -7.33398 -14.667 -2.00098 -20l201 -191c-24.667 -24.667 -44.667 -58 -60 -100c-16 -42.667 -24 -85.667 -24 -129c0 -78 23 -144.333 69 -199l-188 -184c-8 -8 -9.33301 -16.333 -4 -25l45 -47
c5.33301 -6.66699 12.666 -5.33398 21.999 3.99902l187 187v0c57.333 -48 128.333 -72.667 213 -74c80.667 0 152.334 21.667 215.001 65v0l203 -184c5.33301 -5.33301 11.333 -5.33301 18 0l43 49c5.33301 7.33301 4 15 -4 23l-191 178c50.667 64 78 141 82 231
c0 41.333 -7.33301 81.666 -22 120.999c-16.667 38.667 -37.334 69.334 -62.001 92.001l193 183c6.66699 8 6.66699 15.333 0 22zM516.002 424.002c-82 1.33301 -142 29.332 -180 83.999c-38 52 -57 112.667 -57 182c0 66.667 19 127.334 57 182.001
c36.667 53.333 96.667 80.666 180 81.999c72.667 -1.33301 130.667 -25 174 -71c42.667 -49.333 64 -113.666 64 -192.999c-1.33301 -82 -24 -146 -68 -192c-44 -49.333 -100.667 -74 -170 -74v0z" />
    <glyph glyph-name="quotedblleft" unicode="&#xa5;" 
d="M426 125c0 -34 -15.0059 -51 -45.0059 -51h-96c-11.333 0 -16.333 -5 -15 -15v-49c-1.33301 -10.667 4.33398 -16 17.001 -16c10.667 2.66699 84.334 4.66699 221.001 6c132.667 -1.33301 203.667 -3.33301 213 -6c10.667 0 16 6 16 18v47c0 10 -5.33301 15 -16 15h-80
c-22 0 -37.667 3.33301 -47 10c-11.333 6.66699 -17 23 -17 49v244h295c12.667 -1.33301 19.667 2.66699 21 12v47c0 10 -7.66699 15 -23 15h-295v145h293c16.667 -1.33301 25 2.66699 25 12v47c0 10 -7.66699 15 -23 15h-284l207 344
c77.333 129.333 126.333 209.666 147 240.999c8 11.333 18.333 21 31 29c10.667 6.66699 24.334 10 41.001 10h43c10.667 0 16 6.33301 16 19v49c0 8 -5.33301 12 -16 12c-18 -2.66699 -69.333 -4.66699 -154 -6c-58.667 0 -105.667 1.33301 -141 4
c-37.333 1.33301 -60 2 -68 2c-10.667 0 -16 -4.66699 -16 -14v-47c-1.33301 -12.667 3.33398 -19 14.001 -19h53c56 0 76.667 -28 62 -84c-15.333 -35.333 -56.333 -111.666 -123 -228.999l-141 -248v0c-23.333 41.333 -65 120.666 -125 237.999l-123 237
c-11.333 23.333 -11.333 44 0 62c10.667 14.667 38 22.667 82 24h43c9.33301 0 14 6.33301 14 19v51c0 6.66699 -4.66699 10 -14 10c-20.667 -2.66699 -105.334 -4.66699 -254.001 -6c-52 0 -95 1.33301 -129 4c-35.333 1.33301 -58.666 2 -69.999 2
c-9.33301 0 -14 -4.66699 -14 -14v-51c0 -10 4.66699 -15 14 -15h43c16.667 0 32.334 -4.66699 47.001 -14c14 -9.33301 24.333 -19.666 31 -30.999c32.667 -46 89.334 -137.333 170.001 -274c79.333 -138 136 -239.667 170 -305h-307c-15.333 0 -22.333 -5 -21 -15v-43
c0 -12 6.33301 -17.333 19 -16h311v-145h-309c-15.333 0 -22.333 -5 -21 -15v-47c-1.33301 -9.33301 5.66699 -13.333 21 -12h307v-252z" />
    <glyph glyph-name="glyph171" unicode="&#xa6;" horiz-adv-x="717" 
d="M324 358c-14 -1.33301 -20.333 -8 -19 -20v-676c-1.33301 -12 2.66699 -18.667 12 -20h78c12.667 1.33301 19 8 19 20v676c0 13.333 -4.33301 20 -13 20h-77zM395 666c12.667 0 19 6.66699 19 20v672c0 16 -5 24 -15 24h-82c-9.33301 0 -13.333 -6 -12 -18v-678
c-1.33301 -13.333 2.66699 -20 12 -20h78z" />
    <glyph glyph-name="logicalnot" unicode="&#xa7;" horiz-adv-x="1106" 
d="M657 1481c-62.667 0 -118.002 -6.33496 -166.002 -19.002c-47.333 -14.667 -91.666 -44.667 -132.999 -90c-20 -24.667 -37.667 -52.667 -53 -84c-16 -32.667 -24 -67.334 -24 -104.001c0 -74 11.333 -134.333 34 -181c-34 -18.667 -67.333 -50 -100 -94
c-34 -43.333 -51.667 -104.666 -53 -183.999c-1.33301 -116 58.667 -224.667 180 -326c45.333 -34 89.666 -65.333 132.999 -94c44 -28.667 83 -58 117 -88c35.333 -27.333 63.333 -59.333 84 -96c20.667 -38.667 31 -83.667 31 -135c0 -40 -5.66699 -72.333 -17 -97
c-12 -25.333 -27.667 -45 -47 -59c-39.333 -23.333 -78.333 -34.333 -117 -33c-44.667 1.33301 -80 22 -106 62c-27.333 42 -63 63 -107 63c-50 -1.33301 -75.667 -28.666 -77 -81.999c1.33301 -35.333 25.666 -63.333 72.999 -84c48 -20 105.333 -30.667 172 -32
c44 0 89 6.66699 135 20c46.667 14 87.667 38 123 72c62.667 64 95 142.333 97 235c0 83.333 -21.333 150.333 -64 201c42.667 18 82.334 48.667 119.001 92c16 22 29.667 49.333 41 82c10.667 31.333 15.334 67.333 14.001 108c2.66699 124.667 -75 238 -233 340l-129 84
c-40 24.667 -74.333 49.334 -103 74.001c-60 48 -90 114.333 -90 199c0 54.667 19 99 57 133c37.333 34 81.333 51 132 51c38 0 69.333 -18.333 94 -55c17.333 -27.333 34.333 -47.333 51 -60c16.667 -14.667 38.334 -22 65.001 -22c18 0 35.333 6 52 18
c14.667 12.667 22.667 31.334 24 56.001c-1.33301 38 -21 68.667 -59 92s-88 35.666 -150 36.999v0zM683.998 701.998c34 -24 61.3359 -47 82.0029 -69c20.667 -24.667 35 -47.334 43 -68.001c9.33301 -20.667 14.666 -39 15.999 -55c1.33301 -18 2 -34.333 2 -49
c-1.33301 -30 -11.333 -60.667 -30 -92c-19.333 -31.333 -42 -53.333 -68 -66c-16.667 22 -54.334 52.667 -113.001 92c-58.667 38.667 -132.334 93.334 -221.001 164.001c-42 36.667 -72.667 73.667 -92 111c-19.333 35.333 -29 72 -29 110
c1.33301 83.333 26 139.333 74 168c28.667 -39.333 140.667 -121.333 336 -246v0z" />
    <glyph glyph-name="nonbreakingspace" unicode="&#xa8;" horiz-adv-x="666" 
d="M166 1225c-40 -1.33301 -67.333 -13 -82 -35c-15.333 -22 -23 -41.333 -23 -58c1.33301 -38 15 -63.667 41 -77c22 -14 43.333 -21 64 -21c58.667 1.33301 89.334 31.333 92.001 90c0 32.667 -9 58 -27 76c-18.667 16.667 -40.334 25 -65.001 25v0zM514 1225
c-39.333 -1.33301 -67.332 -13 -83.999 -35c-14.667 -22 -22 -41.333 -22 -58c1.33301 -38 14.666 -63.667 39.999 -77c23.333 -14 45.333 -21 66 -21c26 0 47 9 63 27c18 14.667 27 35.667 27 63c0 32.667 -9 58 -27 76c-18.667 16.667 -39.667 25 -63 25v0z" />
    <glyph glyph-name="guillemotleft" unicode="&#xa9;" horiz-adv-x="1689" 
d="M860 274c90 0 166.332 21.334 228.999 64.001c63.333 40.667 114 88.334 152 143.001c5.33301 10 6 17 2 21l-16 12c-7.33301 6.66699 -13 8.66699 -17 6c-28.667 -40.667 -69.667 -77.334 -123 -110.001c-52.667 -34.667 -116.667 -52 -192 -52
c-82 -2.66699 -161.333 33.666 -238 108.999c-43.333 49.333 -72.666 101.333 -87.999 156c-14.667 54 -22.667 100.333 -24 139c0 84.667 24.333 164.334 73 239.001c24.667 36 56.334 64 95.001 84c36.667 22 81 33 133 33c87.333 -2.66699 160.333 -34 219 -94
c26 -24.667 46.333 -49.334 61 -74.001c14 -24.667 25 -46.334 33 -65.001c4 -6 9.33301 -7.33301 16 -4l25 6c4 0 6 4 6 12c-2.66699 23.333 -8 65 -16 125c-11.333 57.333 -17 94.333 -17 111c1.33301 14.667 -5.33398 21.334 -20.001 20.001
c-18 0 -28.333 -2.66699 -31 -8l-8 -33c-4 -8 -13 -8 -27 0c-13.333 8 -41.333 21 -84 39c-43.333 16.667 -94.333 25.667 -153 27c-70 -1.33301 -132 -13.666 -186 -36.999c-56 -23.333 -101.333 -52 -136 -86c-88.667 -98.667 -132.334 -207.334 -131.001 -326.001
c0 -142 45.667 -256.667 137 -344c80.667 -75.333 189.334 -113 326.001 -113v0zM845.999 1481c-212 -2.66699 -388.331 -74.333 -528.998 -215c-144.667 -140.667 -218.334 -321 -221.001 -541c1.33301 -216 69.666 -394.333 204.999 -535
c131.333 -144.667 313 -218.334 545 -221.001c230.667 2.66699 413 76.334 547 221.001c133.333 140.667 200.666 319 201.999 535c-2.66699 228 -73 410.333 -211 547c-137.333 138 -316.666 207.667 -537.999 209v0zM846.001 43.002c-67.333 0 -137.667 13 -211 39
c-75.333 24.667 -145 63.667 -209 117c-64 54.667 -116.667 125.667 -158 213c-42 86 -63 190.333 -63 313c1.33301 204.667 64 369 188 493c121.333 124.667 272.333 187.667 453 189c140.667 1.33301 280.667 -52 420 -160c32.667 -26 62.667 -56.667 90 -92
c26 -36.667 49 -76.334 69 -119.001c40 -86 60.667 -189.667 62 -311c1.33301 -157.333 -46.667 -307.666 -144 -450.999c-99.333 -148.667 -265 -225.667 -497 -231v0z" />
    <glyph glyph-name="Ydieresis" unicode="&#xaa;" horiz-adv-x="676" 
d="M530 971c0 24.667 -1.33105 51.999 -3.99805 81.999c-5.33301 30 -19 53.667 -41 71c-6.66699 10 -20.334 19 -41.001 27c-20 9.33301 -55.333 14 -106 14c-60 0 -122 -15 -186 -45c-42.667 -23.333 -70.667 -45 -84 -65c-15.333 -20.667 -23 -38.667 -23 -54
c0 -14.667 5.33301 -27.667 16 -39c8.66699 -12 22.334 -18 41.001 -18c33.333 0 56.666 7 69.999 21c10.667 10.667 16 22.667 16 36c-1.33301 12.667 -2.66602 24.334 -3.99902 35.001c-2.66699 11.333 1.66602 21.666 12.999 30.999c27.333 20.667 57.333 31.667 90 33
c40.667 -1.33301 68.667 -10.333 84 -27c18.667 -30 28 -58 28 -84v-76c-58.667 -20 -118.667 -43 -180 -69c-62.667 -27.333 -105.667 -55.333 -129 -84c-23.333 -30 -34.333 -60.667 -33 -92c0 -32 13.667 -60.667 41 -86c24.667 -27.333 50.667 -41 78 -41
c24.667 0 50 1.33301 76 4c27.333 5.33301 54.666 15.333 81.999 30c26 15.333 49 32 69 50h2c10 -23.333 25.333 -42.666 46 -57.999c20 -17.333 45.667 -26 77 -26c45.333 1.33301 79 13.333 101 36c20 20.667 32.333 38.667 37 54c4 8 2.33301 12 -5 12l-26 10
c-8 2.66699 -13 0 -15 -8c-2.66699 -8 -8 -15.333 -16 -22c-8 -8.66699 -18.333 -13 -31 -13c-10.667 -1.33301 -20 9 -28 31c-10 19.333 -15 59 -15 119v49v162zM399.002 681.999c-9.33301 -15.333 -28.334 -29.668 -57.001 -43.001c-30 -15.333 -57.333 -23 -82 -23
c-13.333 0 -25.666 7 -36.999 21c-13.333 12 -20 29.667 -20 53c0 27.333 8 50 24 68c14 18.667 31.333 34.334 52 47.001c20 13.333 41.667 25 65 35c22 8 40.333 14 55 18v-176z" />
    <glyph glyph-name="Acircumflex" unicode="&#xab;" horiz-adv-x="844" 
d="M63 448c-6.66699 -5.33301 -10.001 -10 -10.001 -14s2.66699 -8 8 -12l318 -320c5.33301 -5.33301 10 -8 14 -8c2.66699 0 5.33398 1.33301 8.00098 4l31 29c4 4 6 7.33301 6 10c0 4 -2 9 -6 15l-188 282l186 281c5.33301 5.33301 8 10 8 14s-2 7.33301 -6 10l-29 29
c-2.66699 4 -6 6 -10 6s-8 -2.66699 -12 -8zM386.999 448c-6.66699 -5.33301 -10 -10 -10 -14s2.66699 -8 8 -12l319 -320c6 -5.33301 11 -8 15 -8l6 4l31 29c4 4 6 7.33301 6 10c0 4 -2 9 -6 15l-189 282l187 281c5.33301 5.33301 8 10 8 14s-2 7.33301 -6 10l-29 29
c-4 4 -6.66699 6 -8 6c-4 0 -8 -2.66699 -12 -8z" />
    <glyph glyph-name="daggerdbl" unicode="&#xac;" 
d="M115 596h671v-346h123v461h-794v-115z" />
    <glyph glyph-name="uni00AD" unicode="&#xad;" 
d="M106 498c-1.33301 -10 5 -13.667 19 -11h571c16.667 -1.33301 25 3.66699 25 15v78c0 14.667 -7.66699 22 -23 22h-573c-14 0 -20.333 -4.66699 -19 -14v-90z" />
    <glyph glyph-name="Delta" unicode="&#xae;" horiz-adv-x="1159" 
d="M405 823c0 -17.333 -3.33203 -28.9971 -9.99902 -34.9971c-8 -5.33301 -19 -8 -33 -8h-18c-4 0 -6 -2.66699 -6 -8v-18c0 -6 3.33301 -9 10 -9c22 0 56.333 0.666992 103 2c47.333 -1.33301 84 -2 110 -2c4 0 6 2.33301 6 7v22c0 4 -2 6 -6 6h-33
c-17.333 1.33301 -26 11.666 -26 30.999c-1.33301 28.667 -2 73.667 -2 135v39h32c24.667 -1.33301 42.667 -11.666 54 -30.999c20 -24.667 37.667 -50.667 53 -78l57 -88l19 -20c6.66699 -10.667 12 -18.334 16 -23.001c30 0 58 0.666992 84 2c30 -1.33301 51.333 -2 64 -2
c5.33301 0 8 2.33301 8 7v22c0 4 -2.66699 6 -8 6c-22 -1.33301 -42.667 3.66699 -62 15c-9.33301 6.66699 -21 18.667 -35 36c-14.667 18 -26.334 33 -35.001 45c-21.333 37.333 -43.666 70.333 -66.999 99c-5.33301 10.667 -16.333 18.667 -33 24v4
c32.667 6 64 21.333 94 46c30 24 45.667 60 47 108c0 31.333 -13.667 60.666 -41 87.999c-30 30 -83 45.667 -159 47c-46.667 -2.66699 -93.334 -4 -140.001 -4c-36.667 1.33301 -70 2.66602 -100 3.99902c-4 0 -6 -2 -6 -6v-25c0 -4 2 -6 6 -6h12c30 0 45 -12.333 45 -37
v-122v-273zM500.001 1251c14.667 1.33301 28.333 2 41 2c42 0 77.333 -10 106 -30c26 -18 39.667 -44.667 41 -80c0 -18 -7.33301 -42 -22 -72c-19.333 -32.667 -57 -49.667 -113 -51c-27.333 0 -45 0.666992 -53 2v229zM580 1481c-142 -1.33301 -257.669 -46 -347.002 -134
c-92.667 -87.333 -139.667 -199.666 -141 -336.999c0 -134 43 -244.667 129 -332c84.667 -88.667 204.334 -134.334 359.001 -137.001c152.667 1.33301 272 47 358 137c84.667 87.333 127.667 198 129 332c-1.33301 142 -45.666 256 -132.999 342
c-88.667 84.667 -206.667 127.667 -354 129v0zM579.998 606.003c-41.333 1.33301 -85.333 9 -132 23c-46 13.333 -89 35 -129 65c-39.333 30 -72 71.667 -98 125c-27.333 52 -41 115.667 -41 191c1.33301 126.667 41 225.667 119 297c74 70.667 167.667 106.667 281 108
c42 0 86.333 -6.66699 133 -20c46 -14 89 -37.333 129 -70c39.333 -30 72 -71 98 -123c26 -53.333 39 -117.333 39 -192c0 -45.333 -7 -91.333 -21 -138c-13.333 -47.333 -36.333 -91 -69 -131c-61.333 -87.333 -164.333 -132.333 -309 -135v0z" />
    <glyph glyph-name="Gbreve" unicode="&#xaf;" horiz-adv-x="608" 
d="M61 1063c-1.33301 -9.33301 4.33301 -14 17 -14h446c14 0 21.667 4.66699 23 14v65c0 10 -6.33301 15 -19 15h-450c-11.333 0 -17 -5 -17 -15v-65z" />
    <glyph glyph-name="oslash" unicode="&#xb0;" horiz-adv-x="614" 
d="M307 1481c-68 -1.33301 -122.667 -21.334 -164 -60.001c-42 -39.333 -63 -88.333 -63 -147c0 -61.333 19.667 -111.333 59 -150c40 -40.667 96 -61 168 -61c71.333 0 127.333 21 168 63c39.333 40 60 89.333 62 148c0 62.667 -20 112.334 -60 149.001
c-39.333 38.667 -96 58 -170 58v0zM307 1415c36.667 0 68.667 -13 96 -39c27.333 -24.667 41.666 -58.667 42.999 -102c-1.33301 -44 -15.666 -79 -42.999 -105c-27.333 -28.667 -59.333 -43 -96 -43c-34 0 -64.667 14.333 -92 43c-30 26 -45 61 -45 105
c0 43.333 15 77.333 45 102c27.333 26 58 39 92 39v0z" />
    <glyph glyph-name="oe" unicode="&#xb1;" 
d="M575 301v291h334v115h-334v280h-122v-280h-338v-115h338v-291h122zM115 133v-115h794v115h-794z" />
    <glyph glyph-name="uni00B2" unicode="&#xb2;" horiz-adv-x="686" 
d="M416 559c21.333 0 36.998 -0.666992 46.998 -2c9.33301 -1.33301 15.333 -6 18 -14c6.66699 -10 16.334 -14.333 29.001 -13c13.333 -1.33301 22.333 3 27 13l83 182c7.33301 13.333 2 22.333 -16 27c-14.667 8 -26.334 5.66699 -35.001 -7
c-13.333 -21.333 -31 -39.666 -53 -54.999c-22 -16 -52.667 -24 -92 -24h-227v4c42 28.667 114.333 95.334 217 200.001c108.667 117.333 162.334 222 161.001 314c-1.33301 73.333 -25 127.666 -71 162.999c-45.333 34.667 -98 52 -158 52
c-43.333 0 -81.666 -7 -114.999 -21c-32.667 -12 -60.667 -29 -84 -51c-21.333 -19.333 -38.333 -39 -51 -59c-13.333 -20.667 -23.333 -38.667 -30 -54c-3.33301 -8 -2 -12.667 4 -14l26 -14c8.66699 -4 16.334 -0.666992 23.001 10c13.333 20.667 35 41.667 65 63
c28.667 22 67.667 33.667 117 35c30 0 59.333 -11 88 -33c28.667 -24 43.667 -63.333 45 -118c-2.66699 -98.667 -52.334 -197 -149.001 -295c-119.333 -122.667 -213 -209.334 -281 -260.001c-4 -5.33301 -5.33301 -11.666 -4 -18.999c-0 -9.33301 3.33301 -14 10 -14
c23.333 1.33301 62.333 2.66602 117 3.99902h289z" />
    <glyph glyph-name="uni00B3" unicode="&#xb3;" horiz-adv-x="686" 
d="M47 637c-1.33301 -19.333 13.6641 -39.3311 44.9971 -59.998c28.667 -22.667 85.334 -34.667 170.001 -36c97.333 0 176.666 24.333 237.999 73c62.667 48 94.667 113.667 96 197c-1.33301 56 -22 103 -62 141c-39.333 38.667 -82.333 62 -129 70
c37.333 20.667 71 48.667 101 84c28.667 34 43.667 77.667 45 131c0 34 -14.333 68.667 -43 104c-31.333 37.333 -84.666 56.666 -159.999 57.999c-42 0 -78.667 -6.33301 -110 -19c-32 -12 -58 -28.333 -78 -49c-40 -40.667 -63.333 -84.334 -70 -131.001
c-2.66699 -10.667 0 -17.334 8 -20.001l27 -7c9.33301 -2.66699 16 2.33301 20 15c28.667 77.333 82.667 117 162 119c38.667 -2 68 -14.333 88 -37c22 -26 33 -54.667 33 -86c-1.33301 -48 -17.666 -85.667 -48.999 -113c-31.333 -28.667 -65.666 -45.667 -102.999 -51
c-13.333 -2.66699 -20.666 -10.334 -21.999 -23.001c-1.33301 -14.667 8.33398 -24 29.001 -28c50 -10 90.667 -32.667 122 -68c32 -35.333 48.667 -80.333 50 -135c0 -38 -15.667 -73.667 -47 -107c-33.333 -35.333 -78 -53.666 -134 -54.999c-38 0 -64.333 6.33301 -79 19
c-18 9.33301 -28.333 16.666 -31 21.999c-2.66699 10.667 -8.33398 24.334 -17.001 41.001c-6.66699 16.667 -22.334 25.667 -47.001 27c-34 -1.33301 -51.667 -26.666 -53 -75.999v0z" />
    <glyph glyph-name="ellipsis" unicode="&#xb4;" horiz-adv-x="676" 
d="M291 995c4 -4 8 -4.00098 12 -0.000976562l268 193c20.667 14.667 33.667 30.334 39 47.001c5.33301 16 6 30.333 2 43c-10.667 28.667 -31.667 43.667 -63 45c-18 0 -33.667 -4.66699 -47 -14c-14 -10 -27 -22.333 -39 -37l-197 -244c-4 -4 -4 -8 0 -12z" />
    <glyph glyph-name="quotedblright" unicode="&#xb5;" horiz-adv-x="1065" 
d="M719 233c-1.33301 -20 -8.33301 -37.6689 -21 -53.002c-20 -27.333 -48 -52 -84 -74c-35.333 -24 -72.666 -36 -111.999 -36c-44 0 -79 11.333 -105 34c-26 20.667 -45 44 -57 70c-14 35.333 -21.667 79 -23 131c-2.66699 50.667 -4 103.334 -4 158.001v127
c0 65.333 1.33301 117.666 4 156.999v68c0 26 -9.33301 39 -28 39h-105c-17.333 0 -26 -13 -26 -39c2.66699 -35.333 4.66699 -116 6 -242l2 -1118c-1.33301 -8 4.66699 -12 18 -12l109 27c13.333 2.66699 20 9.33398 20 20.001c0 20.667 -3.33301 83.667 -10 189
c-8 104.667 -12 231.334 -12 380.001h4c23.333 -31.333 48.666 -53 75.999 -65c27.333 -12.667 51.666 -19 72.999 -19c50.667 1.33301 101.334 16.333 152.001 45s91 65 121 109h4c5.33301 -32.667 17.666 -66 36.999 -100c17.333 -34.667 47.333 -52.667 90 -54
c36.667 0 68 7.66699 94 23c26 12 51.333 30.333 76 55c10.667 8.66699 14 17 10 25l-12 22c-4 11.333 -11.667 12.666 -23 3.99902c-18.667 -14.667 -41.667 -22.667 -69 -24c-30 -1.33301 -48.667 30 -56 94c-1.33301 53.333 -2 134 -2 242v151
c0 72.667 1.33301 132 4 178c2.66699 46.667 4 74 4 82c0 18 -12.667 27 -38 27h-103c-16 -1.33301 -23.333 -13.666 -22 -36.999c2.66699 -35.333 5.33398 -83 8.00098 -143v-441z" />
    <glyph glyph-name="florin" unicode="&#xb6;" horiz-adv-x="1178" 
d="M733 1370c53.333 5.33301 103.997 8.66699 151.997 10v-1626c-1.33301 -21.333 3.33398 -31.333 14.001 -30h51c10 0 15 5.33301 15 16v1644h120c18 0 26.333 5.66699 25 17v35c0 9.33301 -7.66699 14 -23 14h-194c-121.333 0 -230.666 -6.33301 -327.999 -19
c-96.667 -13.333 -180 -38.333 -250 -75c-140.667 -68.667 -211.667 -201.334 -213 -398.001c0 -100.667 20 -181.667 60 -243c38 -63.333 86.333 -110.666 145 -141.999s119.334 -53 182.001 -65c62 -14 116.667 -22.333 164 -25v-727c-1.33301 -21.333 3.66699 -32 15 -32
h51c9.33301 0 14 9.33301 14 28v1618z" />
    <glyph glyph-name="scedilla" unicode="&#xb8;" horiz-adv-x="668" 
d="M317 0l-159.003 -194.999c90 -17.333 135 -52 135 -104c-1.33301 -38 -20.333 -66.667 -57 -86c-37.333 -19.333 -73.666 -29 -108.999 -29c-16.667 1.33301 -31.667 0 -45 -4c-14 -4 -21 -12 -21 -24c-1.33301 -26 12.334 -39.667 41.001 -41
c72.667 1.33301 141.667 19.666 207 54.999c31.333 19.333 57.333 41.333 78 66c19.333 24 29 52 29 84c-1.33301 34 -13.666 63.333 -36.999 88c-26 25.333 -56 42.333 -90 51l119 139h-91z" />
    <glyph glyph-name="uni00B9" unicode="&#xb9;" horiz-adv-x="686" 
d="M428 1020c1.33301 189.333 2.66797 309.333 4.00098 360c0 11.333 -5.33301 17.666 -16 18.999c-8.66699 0 -21 -5 -37 -15l-283 -153c-8 -4 -10.667 -8.33301 -8 -13l23 -40c1.33301 -4.66699 8 -4 20 2l80 32c23.333 8.66699 41 13 53 13
c20.667 -1.33301 31 -18 31 -50c2.66699 -66.667 4 -124 4 -172v-61c-1.33301 -109.333 -2 -192.666 -2 -249.999c1.33301 -27.333 -3.33398 -45 -14.001 -53c-10 -9.33301 -36.667 -14 -80 -14h-60c-12 0 -18 -3 -18 -9v-53c0 -6.66699 4.66699 -10 14 -10
c48 2.66699 119.667 4.66699 215 6c36 0 78.333 -0.666992 127 -2c49.333 -2.66699 78 -4 86 -4c10 0 15 3.33301 15 10v49c0 8.66699 -4.33301 13 -13 13h-47c-40.667 0 -66.667 4.66699 -78 14c-12 9.33301 -17.333 28.333 -16 57v324z" />
    <glyph glyph-name="fraction" unicode="&#xba;" horiz-adv-x="758" 
d="M365 541c104.667 0 188.333 30.002 251 90.002c64.667 57.333 97.667 134.333 99 231c0 90 -31.667 165 -95 225c-48.667 49.333 -127 75.333 -235 78c-32.667 0 -69 -4 -109 -12c-20 -4 -40.333 -11.667 -61 -23c-22 -12 -44.667 -27 -68 -45
c-38 -34 -64.333 -72 -79 -114c-16.667 -42.667 -25 -81 -25 -115c0 -92.667 25.333 -164.334 76 -215.001c34 -32.667 73 -57.334 117 -74.001c43.333 -17.333 86.333 -26 129 -26v0zM374.999 602.002c-16.667 0 -38 6.00098 -64 18.001c-26 12.667 -49.667 32.667 -71 60
c-15.333 23.333 -27 52 -35 86c-10 34 -15 78.333 -15 133c0 62.667 26 118.667 78 168c22 16.667 43.333 27.667 64 33c20 2.66699 36.333 4 49 4c46.667 0 88.334 -22.667 125.001 -68c35.333 -44.667 53.666 -114.334 54.999 -209.001c0 -62.667 -15 -115 -45 -157
c-30 -44 -77 -66.667 -141 -68v0z" />
    <glyph glyph-name="Ecircumflex" unicode="&#xbb;" horiz-adv-x="844" 
d="M457 420c6.66699 5.33301 10.001 10 10.001 14s-2.66699 8 -8 12l-320 318c-5.33301 6.66699 -10 10 -14 10c-2.66699 0 -5.33398 -1.33301 -8.00098 -4l-29 -31c-4 -2.66699 -6 -6 -6 -10s2 -8.66699 6 -14l188 -281l-186 -282c-5.33301 -4.66699 -8 -9.66699 -8 -15
c0 -2.66699 2 -6 6 -10l27 -27c4 -4 7.33301 -6 10 -6c4 0 8 2.66699 12 8zM780.001 420c6.66699 5.33301 10 10 10 14s-2.66699 8 -8 12l-317 318c-5.33301 6.66699 -10 10 -14 10c-3.33301 0 -6.33301 -1.33301 -9 -4l-30 -31c-4.66699 -2.66699 -7 -6 -7 -10
s2.33301 -8.66699 7 -14l188 -281l-186 -282c-6 -4.66699 -9 -9.66699 -9 -15c0 -2.66699 2.33301 -6 7 -10l28 -27c4 -4 7.66699 -6 11 -6c4 0 8 2.66699 12 8z" />
    <glyph glyph-name="glyph160" unicode="&#xbc;" horiz-adv-x="1520" 
d="M1290 0c14 0 20.999 7.66797 20.999 23.001v192h127c13.333 0 20 5.33301 20 16v62c0 12 -4.66699 18 -14 18h-133v482c-1.33301 31.333 -11.666 47 -30.999 47c-8 0 -15 -3 -21 -9l-16 -16l-457 -547c-9.33301 -9.33301 -14 -19.333 -14 -30c0 -15.333 6 -23 18 -23h396
v-195c0 -14.667 5.33301 -21.334 16 -20.001h88zM1186 311.001l-251.999 0.000976562c-20.667 0 -23.334 11 -8.00098 33l231 270c8 10 15.667 13.667 23 11c4 -4.66699 6 -12.334 6 -23.001v-291zM1235 1339c5.33301 8.66699 7.99902 15 7.99902 19
c2.66699 4 -9 13.333 -35 28c-17.333 8.66699 -28.333 13 -33 13c-6.66699 -1.33301 -12 -7 -16 -17l-831 -1347c-7.33301 -10 -11 -18.333 -11 -25c-1.33301 -5.33301 8.33398 -13.333 29.001 -24c22 -11.333 34.333 -17 37 -17c5.33301 0 12 9 20 27zM388.999 1020
c1.33301 189.333 2.66797 309.333 4.00098 360c0 11.333 -5.33301 17.666 -16 18.999c-8 0 -20.333 -5 -37 -15l-283 -153c-8 -4 -10.667 -8.33301 -8 -13l23 -40c1.33301 -4.66699 8 -4 20 2l80 32c23.333 8.66699 41 13 53 13c20.667 -1.33301 31 -18 31 -50
c2.66699 -66.667 4 -124 4 -172v-61c-1.33301 -109.333 -2 -192.666 -2 -249.999c1.33301 -27.333 -3.33398 -45 -14.001 -53c-10 -9.33301 -36.667 -14 -80 -14h-60c-12 0 -18 -3 -18 -9v-53c0 -6.66699 4.66699 -10 14 -10c48 2.66699 119.667 4.66699 215 6
c36 0 78.333 -0.666992 127 -2c49.333 -2.66699 78 -4 86 -4c10 0 15 3.33301 15 10v49c0 8.66699 -4.33301 13 -13 13h-47c-40.667 0 -66.667 4.66699 -78 14c-12 9.33301 -17.333 28.333 -16 57v324z" />
    <glyph glyph-name="glyph163" unicode="&#xbd;" horiz-adv-x="1520" 
d="M1190 1339c5.33301 8.66699 7.99902 15 7.99902 19c2.66699 4 -9 13.333 -35 28c-17.333 8.66699 -28.333 13 -33 13c-6.66699 -1.33301 -12 -7 -16 -17l-831 -1347c-7.33301 -10 -11 -18.333 -11 -25c-1.33301 -5.33301 8.33398 -13.333 29.001 -24
c22 -11.333 34.333 -17 37 -17c5.33301 0 12 9 20 27zM1233 0c22 0 37.6699 -0.666016 47.0029 -1.99902s15.333 -6 18 -14c7.33301 -8.66699 17 -13 29 -13c13.333 0 22.333 4.33301 27 13l84 182c6.66699 13.333 1 22 -17 26c-14.667 8.66699 -26.334 6.66699 -35.001 -6
c-13.333 -21.333 -31 -39.666 -53 -54.999c-22 -16.667 -52.667 -25 -92 -25h-227v5c42 28.667 114.333 95.334 217 200.001c109.333 117.333 163.333 222 162 314c-2 73.333 -26 127.666 -72 162.999c-45.333 34.667 -98 52 -158 52c-43.333 0 -81.333 -7 -114 -21
c-33.333 -12 -61.333 -29 -84 -51c-22 -19.333 -39.333 -39 -52 -59c-13.333 -20.667 -23.333 -38.667 -30 -54c-2.66699 -8 -1.33398 -12.667 3.99902 -14l26 -14c8.66699 -4.66699 16.334 -1.33398 23.001 9.99902c13.333 20.667 35 41.667 65 63
c28.667 22 67.667 33.667 117 35c30 0 59.333 -11 88 -33c28.667 -24 43.667 -63.333 45 -118c-2.66699 -98.667 -52.334 -197 -149.001 -295c-54.667 -60 -107.334 -112 -158.001 -156l-123 -108c-5.33301 -4.66699 -8 -10.334 -8 -17.001c0 -8 4.66699 -12 14 -12
c23.333 2.66699 62.333 4 117 4h289zM375.002 1020c1.33301 189.333 2.66699 309.333 4 360c0 11.333 -5.66699 17.666 -17 18.999c-8 0 -20 -5 -36 -15l-283 -153c-8 -4 -10.667 -8.33301 -8 -13l22 -40c1.33301 -4.66699 8.33301 -4 21 2l80 32
c22.667 8.66699 40.334 13 53.001 13c20.667 -1.33301 31 -18 31 -50c2.66699 -66.667 4 -124 4 -172v-61c-1.33301 -109.333 -2 -192.666 -2 -249.999c1.33301 -27.333 -3.66699 -45 -15 -53c-9.33301 -9.33301 -36 -14 -80 -14h-59c-12 0 -18 -3 -18 -9v-53
c0 -6.66699 4.66699 -10 14 -10c48 2.66699 119.667 4.66699 215 6c35.333 0 77.666 -0.666992 126.999 -2c49.333 -2.66699 78 -4 86 -4c9.33301 0 14 3.33301 14 10v49c0 8.66699 -4 13 -12 13h-47c-40.667 0 -66.667 4.66699 -78 14c-12 9.33301 -17.333 28.333 -16 57
v324z" />
    <glyph glyph-name="glyph209" unicode="&#xbe;" horiz-adv-x="1520" 
d="M1231 1339c5.33301 8.66699 7.99902 15 7.99902 19c2.66699 4 -9 13.333 -35 28c-17.333 8.66699 -28.333 13 -33 13c-6.66699 -1.33301 -12 -7 -16 -17l-831 -1347c-7.33301 -10 -11 -18.333 -11 -25c-1.33301 -5.33301 8.33398 -13.333 29.001 -24
c22 -11.333 34.333 -17 37 -17c5.33301 0 12 9 20 27zM52.999 637c-1.33301 -19.333 13.6641 -39.3311 44.9971 -59.998c28.667 -22.667 85.334 -34.667 170.001 -36c97.333 0 176.666 24.333 237.999 73c62.667 48 94.667 113.667 96 197
c-1.33301 56 -21.666 103 -60.999 141c-40 38.667 -83 62 -129 70c36.667 20.667 70 48.667 100 84c28.667 34 43.667 77.667 45 131c0 34 -14.333 68.667 -43 104c-31.333 37.333 -84.666 56.666 -159.999 57.999c-42 0 -78.667 -6.33301 -110 -19
c-31.333 -12 -57.333 -28.333 -78 -49c-40 -40.667 -63.333 -84.334 -70 -131.001c-2.66699 -10.667 0 -17.334 8 -20.001l27 -7c9.33301 -2.66699 16.333 2.33301 21 15c28.667 77.333 82.334 117 161.001 119c38.667 -2 68 -14.333 88 -37c22 -26 33 -54.667 33 -86
c-1.33301 -48 -17.666 -85.667 -48.999 -113c-31.333 -28.667 -65.333 -45.667 -102 -51c-14 -2.66699 -21.667 -10.334 -23 -23.001c-1.33301 -14.667 8.33398 -24 29.001 -28c50.667 -10 91.667 -32.667 123 -68s47.666 -80.333 48.999 -135
c0 -38 -15.667 -73.667 -47 -107c-32.667 -35.333 -77 -53.666 -133 -54.999c-38.667 0 -65.334 6.33301 -80.001 19c-18 9.33301 -28.333 16.666 -31 21.999c-2.66699 10.667 -8 24.334 -16 41.001c-7.33301 16.667 -23.333 25.667 -48 27
c-34 -1.33301 -51.667 -26.666 -53 -75.999v0zM1270 0.00195312c13.333 0 19.999 7.66797 19.999 23.001v192h127c14 0 21 5.33301 21 16v62c0 12 -5 18 -15 18h-133v482c-1.33301 31.333 -11.666 47 -30.999 47c-8 0 -14.667 -3 -20 -9l-16 -16l-457 -547
c-9.33301 -9.33301 -14 -19.333 -14 -30c0 -15.333 6 -23 18 -23h395v-195c0 -14.667 5.66699 -21.334 17 -20.001h88zM1165 311.003l-252 0.000976562c-20 0 -22.667 11 -8 33l232 270c8 10 15.333 13.667 22 11c4 -4.66699 6 -12.334 6 -23.001v-291z" />
    <glyph glyph-name="fi" unicode="&#xbf;" horiz-adv-x="758" 
d="M541 -557c21.333 0 38.999 3.99902 52.999 11.999c12 7.33301 21.667 15 29 23c10.667 22 16 37 16 45c0 28.667 -13 52.667 -39 72c-27.333 18.667 -62.666 28 -105.999 28c-41.333 0 -78.333 6.33301 -111 19c-35.333 13.333 -77.666 40 -126.999 80
c-28.667 22.667 -54 49 -76 79c-23.333 28.667 -35 63.667 -35 105c0 32.667 9 60 27 82c15.333 20 34.333 36.333 57 49c23.333 12 47.333 20 72 24c23.333 4.66699 43 7 59 7c41.333 1.33301 86.666 -1 135.999 -7c14.667 -5.33301 22 1 22 19v387
c0 9.33301 -4.66699 14 -14 14h-39c-11.333 0 -16 -4.66699 -14 -14v-219c0 -11.333 -5.66699 -17 -17 -17c-28.667 0 -64 -0.666992 -106 -2c-42.667 -2.66699 -83.667 -12 -123 -28c-40 -14 -74.333 -38 -103 -72c-28.667 -35.333 -43 -86 -43 -152
c0 -61.333 18 -123.333 54 -186c34 -64 76.333 -122 127 -174c50 -52 102.333 -93.667 157 -125c53.333 -31.333 101.333 -47.666 144 -48.999v0zM476.999 658.999c36.667 0 65.332 11.666 85.999 34.999c20.667 22 31 46.667 31 74c0 31.333 -11 58 -33 80
c-23.333 18.667 -50 29 -80 31c-35.333 -2 -62.666 -12.333 -81.999 -31c-21.333 -20.667 -32 -48 -32 -82c0 -31.333 11.333 -56.666 34 -75.999c22 -20.667 47.333 -31 76 -31v0z" />
    <glyph glyph-name="Egrave" unicode="&#xc0;" horiz-adv-x="1522" 
d="M952 569c8.66699 -20 19 -49.332 31 -87.999c13.333 -38 26.333 -79 39 -123c28.667 -92.667 48.334 -161.334 59.001 -206.001c15.333 -53.333 -5 -79.333 -61 -78h-51c-12.667 0 -19 -5 -19 -15v-47c0 -12 5.66699 -18 17 -18c35.333 2.66699 131.333 4.66699 288 6
c82 -0 140 -0.666992 174 -2c33.333 -2.66699 57.333 -4 72 -4c14 0 21 4.66699 21 14v51c0 10 -5.66699 15 -17 15h-67c-54.667 -1.33301 -101.334 29.334 -140.001 92.001c-17.333 42 -49.333 130 -96 264c-22 62.667 -42.333 124 -61 184l-52 152l-237 719
c-4 23.333 -11.667 35 -23 35c-8 -2 -16.667 -8.33301 -26 -19c-12.667 -16 -36.667 -35 -72 -57c-34 -22 -66.667 -37 -98 -45c-14 -6 -20.333 -12.333 -19 -19c0 -8 5 -16.667 15 -26c8 -11.333 10.667 -23 8 -35c-2.66699 -12.667 -6 -24.334 -10 -35.001l-199 -537
c-96.667 -260.667 -171 -453.667 -223 -579c-14 -32.667 -29.667 -56 -47 -70c-18 -16 -42 -24 -72 -24h-72c-9.33301 0 -14.666 -5 -15.999 -15v-49c0 -10.667 4.66699 -16 14 -16c14 2.66699 88.667 4.66699 224 6c61.333 -0 112.333 -0.666992 153 -2
c39.333 -2.66699 66 -4 80 -4c10.667 0 16 6 16 18v47c0 10 -6.66699 15 -20 15h-96c-46.667 0 -70 15 -70 45c0 13.333 2 28.333 6 45c9.33301 32.667 32.666 99.667 69.999 201c16 46 31.667 88 47 126c13.333 38.667 22 64.667 26 78h504zM475 643.001l113 311.001
l106 291c6.66699 19.333 14.334 29.666 23.001 30.999c5.33301 -1.33301 10.666 -11 15.999 -29l195 -604h-453zM838 1603c6.66699 7.33301 6.66699 13.666 0 18.999l-285 233c-30 27.333 -58 41 -84 41c-20.667 0 -37.667 -6.66699 -51 -20
c-15.333 -15.333 -23 -32.333 -23 -51c0 -33.333 20 -60.666 60 -81.999l342 -168c8 -2.66699 13.333 -2.66699 16 0z" />
    <glyph glyph-name="zcaron" unicode="&#xc1;" horiz-adv-x="1522" 
d="M952 569c8.66699 -20 19 -49.332 31 -87.999c13.333 -38 26.333 -79 39 -123c28.667 -92.667 48.334 -161.334 59.001 -206.001c15.333 -53.333 -5 -79.333 -61 -78h-51c-12.667 0 -19 -5 -19 -15v-47c0 -12 5.66699 -18 17 -18c35.333 2.66699 131.333 4.66699 288 6
c82 -0 140 -0.666992 174 -2c33.333 -2.66699 57.333 -4 72 -4c14 0 21 4.66699 21 14v51c0 10 -5.66699 15 -17 15h-67c-54.667 -1.33301 -101.334 29.334 -140.001 92.001c-17.333 42 -49.333 130 -96 264c-22 62.667 -42.333 124 -61 184l-52 152l-237 719
c-4 23.333 -11.667 35 -23 35c-8 -2 -16.667 -8.33301 -26 -19c-12.667 -16 -36.667 -35 -72 -57c-34 -22 -66.667 -37 -98 -45c-14 -6 -20.333 -12.333 -19 -19c0 -8 5 -16.667 15 -26c8 -11.333 10.667 -23 8 -35c-2.66699 -12.667 -6 -24.334 -10 -35.001l-199 -537
c-96.667 -260.667 -171 -453.667 -223 -579c-14 -32.667 -29.667 -56 -47 -70c-18 -16 -42 -24 -72 -24h-72c-9.33301 0 -14.666 -5 -15.999 -15v-49c0 -10.667 4.66699 -16 14 -16c14 2.66699 88.667 4.66699 224 6c61.333 -0 112.333 -0.666992 153 -2
c39.333 -2.66699 66 -4 80 -4c10.667 0 16 6 16 18v47c0 10 -6.66699 15 -20 15h-96c-46.667 0 -70 15 -70 45c0 13.333 2 28.333 6 45c9.33301 32.667 32.666 99.667 69.999 201c16 46 31.667 88 47 126c13.333 38.667 22 64.667 26 78h504zM475 643.001l113 311.001
l106 291c6.66699 19.333 14.334 29.666 23.001 30.999c5.33301 -1.33301 10.666 -11 15.999 -29l195 -604h-453zM678 1575c2.66699 -2.66699 7.33203 -2.66699 13.999 0l344 168c40 21.333 60 48.666 60 81.999c0 18.667 -6.33301 35.667 -19 51
c-13.333 13.333 -31.666 20 -54.999 20c-26 0 -54 -13.667 -84 -41l-281 -231c-6.66699 -5.33301 -8 -10.666 -4 -15.999z" />
    <glyph glyph-name="scaron" unicode="&#xc2;" horiz-adv-x="1522" 
d="M952 569c8.66699 -20 19 -49.332 31 -87.999c13.333 -38 26.333 -79 39 -123c28.667 -92.667 48.334 -161.334 59.001 -206.001c15.333 -53.333 -5 -79.333 -61 -78h-51c-12.667 0 -19 -5 -19 -15v-47c0 -12 5.66699 -18 17 -18c35.333 2.66699 131.333 4.66699 288 6
c82 -0 140 -0.666992 174 -2c33.333 -2.66699 57.333 -4 72 -4c14 0 21 4.66699 21 14v51c0 10 -5.66699 15 -17 15h-67c-54.667 -1.33301 -101.334 29.334 -140.001 92.001c-17.333 42 -49.333 130 -96 264c-22 62.667 -42.333 124 -61 184l-52 152l-237 719
c-4 23.333 -11.667 35 -23 35c-8 -2 -16.667 -8.33301 -26 -19c-12.667 -16 -36.667 -35 -72 -57c-34 -22 -66.667 -37 -98 -45c-14 -6 -20.333 -12.333 -19 -19c0 -8 5 -16.667 15 -26c8 -11.333 10.667 -23 8 -35c-2.66699 -12.667 -6 -24.334 -10 -35.001l-199 -537
c-96.667 -260.667 -171 -453.667 -223 -579c-14 -32.667 -29.667 -56 -47 -70c-18 -16 -42 -24 -72 -24h-72c-9.33301 0 -14.666 -5 -15.999 -15v-49c0 -10.667 4.66699 -16 14 -16c14 2.66699 88.667 4.66699 224 6c61.333 -0 112.333 -0.666992 153 -2
c39.333 -2.66699 66 -4 80 -4c10.667 0 16 6 16 18v47c0 10 -6.66699 15 -20 15h-96c-46.667 0 -70 15 -70 45c0 13.333 2 28.333 6 45c9.33301 32.667 32.666 99.667 69.999 201c16 46 31.667 88 47 126c13.333 38.667 22 64.667 26 78h504zM475 643.001l113 311.001
l106 291c6.66699 19.333 14.334 29.666 23.001 30.999c5.33301 -1.33301 10.666 -11 15.999 -29l195 -604h-453zM774 1694l262.001 -117c8.66699 -4 15 -3.33301 19 2l14 18c4 6 3.33301 11.667 -2 17l-260 229c-11.333 10.667 -21 16.667 -29 18
c-6.66699 -1.33301 -15.334 -7.33301 -26.001 -18l-252 -227c-8.66699 -6.66699 -10.667 -13 -6 -19l16 -20c5.33301 -5.33301 12 -5.33301 20 0l244 117v0z" />
    <glyph glyph-name="Iacute" unicode="&#xc3;" horiz-adv-x="1522" 
d="M952 569c8.66699 -20 19 -49.332 31 -87.999c13.333 -38 26.333 -79 39 -123c28.667 -92.667 48.334 -161.334 59.001 -206.001c15.333 -53.333 -5 -79.333 -61 -78h-51c-12.667 0 -19 -5 -19 -15v-47c0 -12 5.66699 -18 17 -18c35.333 2.66699 131.333 4.66699 288 6
c82 -0 140 -0.666992 174 -2c33.333 -2.66699 57.333 -4 72 -4c14 0 21 4.66699 21 14v51c0 10 -5.66699 15 -17 15h-67c-54.667 -1.33301 -101.334 29.334 -140.001 92.001c-17.333 42 -49.333 130 -96 264c-22 62.667 -42.333 124 -61 184l-52 152l-237 719
c-4 23.333 -11.667 35 -23 35c-8 -2 -16.667 -8.33301 -26 -19c-12.667 -16 -36.667 -35 -72 -57c-34 -22 -66.667 -37 -98 -45c-14 -6 -20.333 -12.333 -19 -19c0 -8 5 -16.667 15 -26c8 -11.333 10.667 -23 8 -35c-2.66699 -12.667 -6 -24.334 -10 -35.001l-199 -537
c-96.667 -260.667 -171 -453.667 -223 -579c-14 -32.667 -29.667 -56 -47 -70c-18 -16 -42 -24 -72 -24h-72c-9.33301 0 -14.666 -5 -15.999 -15v-49c0 -10.667 4.66699 -16 14 -16c14 2.66699 88.667 4.66699 224 6c61.333 -0 112.333 -0.666992 153 -2
c39.333 -2.66699 66 -4 80 -4c10.667 0 16 6 16 18v47c0 10 -6.66699 15 -20 15h-96c-46.667 0 -70 15 -70 45c0 13.333 2 28.333 6 45c9.33301 32.667 32.666 99.667 69.999 201c16 46 31.667 88 47 126c13.333 38.667 22 64.667 26 78h504zM475 643.001l113 311.001
l106 291c6.66699 19.333 14.334 29.666 23.001 30.999c5.33301 -1.33301 10.666 -11 15.999 -29l195 -604h-453zM528 1601c7.33301 0 12.3311 3.66895 14.998 11.002c6.66699 27.333 17.334 47.666 32.001 60.999c15.333 14 31.333 21 48 21c40.667 0 83 -7 127 -21l88 -22
c25.333 -10 52.333 -15 81 -15c45.333 0 81.666 17 108.999 51c24.667 33.333 41 69.666 49 108.999c5.33301 26 3.33301 38.333 -6 37h-35c-8 0 -12.667 -4 -14 -12c-2.66699 -15.333 -9 -30.666 -19 -45.999c-9.33301 -16 -25.666 -24 -48.999 -24
c-44.667 0 -91 9 -139 27l-80 22c-26 6.66699 -54 10 -84 10c-87.333 -2.66699 -142.666 -60.667 -165.999 -174c-5.33301 -24.667 -3.33301 -36.334 6 -35.001h37z" />
    <glyph glyph-name="ucircumflex" unicode="&#xc4;" horiz-adv-x="1522" 
d="M952 569c8.66699 -20 19 -49.332 31 -87.999c13.333 -38 26.333 -79 39 -123c28.667 -92.667 48.334 -161.334 59.001 -206.001c15.333 -53.333 -5 -79.333 -61 -78h-51c-12.667 0 -19 -5 -19 -15v-47c0 -12 5.66699 -18 17 -18c35.333 2.66699 131.333 4.66699 288 6
c82 -0 140 -0.666992 174 -2c33.333 -2.66699 57.333 -4 72 -4c14 0 21 4.66699 21 14v51c0 10 -5.66699 15 -17 15h-67c-54.667 -1.33301 -101.334 29.334 -140.001 92.001c-17.333 42 -49.333 130 -96 264c-22 62.667 -42.333 124 -61 184l-52 152l-237 719
c-4 23.333 -11.667 35 -23 35c-8 -2 -16.667 -8.33301 -26 -19c-12.667 -16 -36.667 -35 -72 -57c-34 -22 -66.667 -37 -98 -45c-14 -6 -20.333 -12.333 -19 -19c0 -8 5 -16.667 15 -26c8 -11.333 10.667 -23 8 -35c-2.66699 -12.667 -6 -24.334 -10 -35.001l-199 -537
c-96.667 -260.667 -171 -453.667 -223 -579c-14 -32.667 -29.667 -56 -47 -70c-18 -16 -42 -24 -72 -24h-72c-9.33301 0 -14.666 -5 -15.999 -15v-49c0 -10.667 4.66699 -16 14 -16c14 2.66699 88.667 4.66699 224 6c61.333 -0 112.333 -0.666992 153 -2
c39.333 -2.66699 66 -4 80 -4c10.667 0 16 6 16 18v47c0 10 -6.66699 15 -20 15h-96c-46.667 0 -70 15 -70 45c0 13.333 2 28.333 6 45c9.33301 32.667 32.666 99.667 69.999 201c16 46 31.667 88 47 126c13.333 38.667 22 64.667 26 78h504zM475 643.001l113 311.001
l106 291c6.66699 19.333 14.334 29.666 23.001 30.999c5.33301 -1.33301 10.666 -11 15.999 -29l195 -604h-453zM575 1802c-39.333 -1.33301 -67.335 -13.001 -84.002 -35.001c-14.667 -21.333 -22 -39.666 -22 -54.999c1.33301 -38 15 -64 41 -78
c10.667 -6.66699 22.334 -12 35.001 -16c12 -4 22 -6 30 -6c26 0 47.333 8.66699 64 26c18 16.667 27 38.667 27 66c0 31.333 -9 56 -27 74c-19.333 16 -40.666 24 -63.999 24v0zM982.998 1802c-39.333 -1.33301 -67.334 -13.001 -84.001 -35.001
c-15.333 -21.333 -23 -39.666 -23 -54.999c2 -38 15.667 -64 41 -78c11.333 -6.66699 23 -12 35 -16c12.667 -4 23 -6 31 -6c58.667 1.33301 89.334 32 92.001 92c0 31.333 -8.66699 56 -26 74c-19.333 16 -41.333 24 -66 24v0z" />
    <glyph glyph-name="udieresis" unicode="&#xc5;" horiz-adv-x="1522" 
d="M952 569c8.66699 -20 19 -49.3311 31 -87.998c13.333 -38 26.333 -79 39 -123c28.667 -92.667 48.334 -161.334 59.001 -206.001c15.333 -53.333 -5 -79.333 -61 -78h-51c-12.667 0 -19 -5 -19 -15v-47c0 -12 5.66699 -18 17 -18c35.333 2.66699 131.333 4.66699 288 6
c82 0 140 -0.666992 174 -2c33.333 -2.66699 57.333 -4 72 -4c14 0 21 4.66699 21 14v51c0 10 -5.66699 15 -17 15h-67c-54.667 -1.33301 -101.334 29.334 -140.001 92.001c-17.333 42 -49.333 130 -96 264c-22 62.667 -42.333 124 -61 184l-52 152l-210 639
c-2 10.667 -5 21 -9 31c-4 9.33301 -10 14 -18 14c-14 -1.33301 -36 -9 -66 -23c-40.667 -10.667 -91.667 -20.667 -153 -30c-14 -2.66699 -20.333 -8.33398 -19 -17.001c0 -8 5 -16.667 15 -26c8 -11.333 10.667 -23 8 -35c-2.66699 -12.667 -6 -24.334 -10 -35.001
l-199 -537c-96.667 -260.667 -171 -453.667 -223 -579c-14 -32.667 -29.667 -56 -47 -70c-18 -16 -42 -24 -72 -24h-72c-9.33301 0 -14.666 -5 -15.999 -15v-49c0 -10.667 4.66699 -16 14 -16c14 2.66699 88.667 4.66699 224 6c61.333 -0 112.333 -0.666992 153 -2
c39.333 -2.66699 66 -4 80 -4c10.667 0 16 6 16 18v47c0 10 -6.66699 15 -20 15h-96c-46.667 0 -70 15 -70 45c0 13.333 2 28.333 6 45c9.33301 32.667 32.666 99.667 69.999 201c16 46 31.667 88 47 126c13.333 38.667 22 64.667 26 78h504zM475 643.002l113 311.001
l106 291c5.33301 19.333 13 29.666 23 30.999c8 -1.33301 13.333 -11 16 -29l195 -604h-453zM756 1546c44.667 0 90.333 11.665 137 34.998c23.333 12 41.666 29 54.999 51c14 20.667 21 47.334 21 80.001c0 40.667 -15.667 74.667 -47 102
c-33.333 26 -82.666 39 -147.999 39c-57.333 -1.33301 -106.333 -15.666 -147 -42.999c-42.667 -28.667 -64 -68 -64 -118c0 -45.333 20 -80.333 60 -105c36.667 -27.333 81 -41 133 -41v0zM765.999 1597c-31.333 0 -55.334 10.334 -72.001 31.001c-16 19.333 -24 44 -24 74
c0 23.333 8.66699 45.666 26 66.999c16.667 20.667 41.334 31.667 74.001 33c24.667 0 46.667 -8 66 -24c17.333 -18 26 -43.333 26 -76c-1.33301 -68.667 -33.333 -103.667 -96 -105v0z" />
    <glyph glyph-name="Atilde" unicode="&#xc6;" horiz-adv-x="1892" 
d="M1003 1384l355 -6.00195c20 0 43.667 -4 71 -12c26 -9.33301 48 -25 66 -47l194 -232c6 -6.66699 13 -8 21 -4l25 15c9.33301 2.66699 11.333 8.66699 6 18l-103 332c-2.66699 6.66699 -8 10 -16 10c-15.333 -2.66699 -43.333 -4.66699 -84 -6
c-169.333 -1.33301 -339.333 -2 -510 -2h-139c-118.667 2.66699 -207.334 5.33398 -266.001 8.00098c-15.333 1.33301 -23 -4.66699 -23 -18v-43c-1.33301 -12.667 4.66699 -19 18 -19h37c45.333 1.33301 55 -30.667 29 -96c-19.333 -36.667 -63.666 -116 -132.999 -238
l-174 -299l-182 -337l-86 -156c-24.667 -44 -42 -72 -52 -84c-16 -23.333 -33 -44.666 -51 -63.999c-19.333 -20 -39 -30 -59 -30h-70c-9.33301 0 -14 -6.33301 -14 -19v-35c0 -16 4.66699 -24.667 14 -26c23.333 2.66699 97.666 4.66699 222.999 6
c76.667 -0 131.334 -0.666992 164.001 -2c32.667 -2.66699 54.667 -4 66 -4c13.333 0 19.333 8.66699 18 26v37c0 10 -6.66699 15.667 -20 17h-99c-13.333 0 -25.666 4 -36.999 12c-13.333 8 -20 19.667 -20 35c0 22 7.66699 51.333 23 88c40.667 86 115 233.333 223 442
h407v-487c0 -35.333 -3.33301 -59.333 -10 -72c-6.66699 -13.333 -23 -19.333 -49 -18h-117c-12 0 -18 -6.33301 -18 -19v-43c-1.33301 -12 5.33398 -18 20.001 -18c31.333 2.66699 115.333 4.66699 252 6c308.667 -0 515 -0.666992 619 -2c103.333 -2.66699 157 -4 161 -4
c16.667 0 27.667 10.333 33 31l113 309c2.66699 9.33301 -1.66602 16 -12.999 20l-24 15c-11.333 8 -21.666 5 -30.999 -9l-160 -215c-20 -26 -45 -43.667 -75 -53c-31.333 -10.667 -61.333 -16.667 -90 -18c-59.333 -4 -112 -6 -158 -6c-60 0 -116.667 4 -170 12
c-32.667 6.66699 -57.334 21.667 -74.001 45c-17.333 22 -26 61 -26 117c-3.33301 82 -5 198.667 -5 350v59c63.333 0 157.666 -2 282.999 -6c49.333 -6.66699 77.333 -32.667 84 -78l27 -100c1.33301 -10.667 6.66602 -14.667 15.999 -12l41 6c12 0 17.333 5.33301 16 16
c-6.66699 54.667 -10.667 125.667 -12 213c0 20.667 0.666992 59.667 2 117c0 26 1.33301 49 4 69v46c1.33301 9.33301 -4 14 -16 14l-45 4c-12.667 4 -19 -0.666992 -19 -14l-18 -101c-5.33301 -31.333 -14.333 -52.333 -27 -63c-13.333 -14 -34.333 -22.333 -63 -25
c-20.667 -1.33301 -66.334 -3.33301 -137.001 -6c-72.667 -4 -118 -6 -136 -6v659zM461 724.998l313 565c10.667 18 21.667 26.333 33 25c12 -1.33301 18 -12.333 18 -33v-557h-364z" />
    <glyph glyph-name="dagger" unicode="&#xc7;" horiz-adv-x="1528" 
d="M620 -195c88 -18.667 131.996 -53.3369 131.996 -104.004c-1.33301 -38 -20 -66.667 -56 -86c-35.333 -19.333 -70.666 -29 -105.999 -29c-16.667 1.33301 -31.667 0 -45 -4c-14 -4 -21 -12 -21 -24c-1.33301 -26 12.334 -39.667 41.001 -41
c74 1.33301 145 19.666 213 54.999c34 19.333 61.333 41.333 82 66c19.333 24 29 52 29 84c0 34 -13 63.333 -39 88c-27.333 22.667 -60 39.667 -98 51l86 108c143.333 2.66699 265.333 38.334 366 107.001c100 66.667 180.667 145.667 242 237c5.33301 10 4 16.333 -4 19
l-27 20c-5.33301 6.66699 -10.666 4.66699 -15.999 -6c-48 -68 -115 -127.333 -201 -178c-86 -53.333 -187.667 -80.666 -305 -81.999c-66.667 -1.33301 -131.667 8.33398 -195 29.001c-62.667 20 -128.667 67.667 -198 143c-78 91.333 -130.667 187 -158 287
c-27.333 96.667 -40.333 176.334 -39 239.001c-1.33301 157.333 38.334 299.333 119.001 426c80.667 128.667 211.667 195 393 199c80.667 0 150.334 -15 209.001 -45c56 -28.667 105 -66.334 147 -113.001c41.333 -40.667 75.666 -84.334 102.999 -131.001
c26 -46 45 -86.333 57 -121c5.33301 -17.333 12.333 -23.333 21 -18l30 8c8.66699 2.66699 11.334 9.66699 8.00098 21l-28 206c-15.333 98.667 -23 162.334 -23 191.001c0 13.333 -0.666992 23 -2 29c-4 2.66699 -10.667 4 -20 4c-16.667 1.33301 -25.667 -3 -27 -13
l-16 -59c-2.66699 -15.333 -16.334 -15.333 -41.001 0c-36.667 24.667 -90.667 49.334 -162 74.001c-72.667 24.667 -156.667 37.667 -252 39c-112 -1.33301 -211.667 -21.333 -299 -60c-88.667 -40.667 -159.667 -89.667 -213 -147c-142 -164 -211.667 -345 -209 -543
c0 -100.667 18.667 -203 56 -307c36.667 -105.333 91 -194 163 -266c54.667 -49.333 117 -89.666 187 -120.999c68 -32.667 150.667 -54 248 -64z" />
    <glyph glyph-name="Eth" unicode="&#xc8;" horiz-adv-x="1413" 
d="M487 1384l364.997 -8.00195c58.667 -5.33301 110.667 -23.666 156 -54.999c13.333 -6.66699 31.666 -21.667 54.999 -45c20.667 -23.333 42.334 -49.333 65.001 -78c49.333 -62.667 77.333 -99.667 84 -111c4 -5.33301 9.66699 -7.33301 17 -6l30 17
c7.33301 4 9.66602 10 6.99902 18l-105 330c-1.33301 6.66699 -6.66602 10 -15.999 10c-16.667 -2.66699 -44 -4 -82 -4c-202 -1.33301 -404.667 -2 -608 -2h-90c-128.667 2.66699 -212.667 4.66699 -252 6c-10 0 -15 -3.33301 -15 -10v-56
c0 -10.667 5.66699 -15.334 17 -14.001h73c38.667 0 65.334 -4.66699 80.001 -14c8.66699 -5.33301 15 -13.666 19 -24.999c2.66699 -10.667 4.66699 -24.334 6 -41.001c2.66699 -16 4.66699 -71.333 6 -166v-280v-201v-485c0 -35.333 -4.66699 -59.333 -14 -72
c-12.667 -13.333 -42 -19.333 -88 -18h-82c-14 0 -21 -3.66699 -21 -11v-55c0 -9.33301 6.33301 -14 19 -14c28.667 2.66699 116 4.66699 262 6c312.667 0 527 -0.666992 643 -2c114.667 -2.66699 173.334 -4 176.001 -4c24.667 1.33301 39.667 11.666 45 30.999l108 301
c7.33301 14.667 6 24 -4 28l-32 19c-11.333 4 -19.666 -0.333008 -24.999 -13c-18 -27.333 -46 -66 -84 -116c-39.333 -50.667 -67.333 -83.667 -84 -99c-28.667 -21.333 -60 -37.666 -94 -48.999c-35.333 -12 -63.333 -19.333 -84 -22c-64 -4 -124 -6 -180 -6
s-106.667 4.66699 -152 14c-31.333 5.33301 -58 20.333 -80 45c-21.333 24.667 -33.666 63 -36.999 115c-2.66699 82 -4 198.667 -4 350v127c58.667 0 149 -3.33301 271 -10c27.333 -1.33301 47.666 -9.66602 60.999 -24.999c12.667 -13.333 21.667 -31.666 27 -54.999
c8 -30 15.333 -62.333 22 -97c1.33301 -13.333 7 -19.333 17 -18l45 6c8 1.33301 12 7 12 17c-6.66699 57.333 -10.667 128.333 -12 213c0 21.333 0.666992 60 2 116c0 14 1.33301 27 4 39v33v45c2.66699 9.33301 -1.33301 14.666 -12 15.999l-52 2
c-9.33301 0 -14 -4.66699 -14 -14c-2.66699 -42 -8 -75.333 -16 -100c-11.333 -56 -43 -86 -95 -90c-20 -1.33301 -63.667 -3.66602 -131 -6.99902c-69.333 -4 -112.333 -6 -129 -6v600zM843.997 1603c6.66699 7.33301 6.66699 13.666 0 18.999l-285 233
c-30 27.333 -58 41 -84 41c-20.667 0 -37.667 -6.66699 -51 -20c-15.333 -15.333 -23 -32.333 -23 -51c0 -33.333 20 -60.666 60 -81.999l342 -168c8 -2.66699 13.333 -2.66699 16 0z" />
    <glyph glyph-name="degree" unicode="&#xc9;" horiz-adv-x="1413" 
d="M487 1384l364.997 -8.00195c58.667 -5.33301 110.667 -23.666 156 -54.999c13.333 -6.66699 31.666 -21.667 54.999 -45c20.667 -23.333 42.334 -49.333 65.001 -78c49.333 -62.667 77.333 -99.667 84 -111c4 -5.33301 9.66699 -7.33301 17 -6l30 17
c7.33301 4 9.66602 10 6.99902 18l-105 330c-1.33301 6.66699 -6.66602 10 -15.999 10c-16.667 -2.66699 -44 -4 -82 -4c-202 -1.33301 -404.667 -2 -608 -2h-90c-128.667 2.66699 -212.667 4.66699 -252 6c-10 0 -15 -3.33301 -15 -10v-56
c0 -10.667 5.66699 -15.334 17 -14.001h73c38.667 0 65.334 -4.66699 80.001 -14c8.66699 -5.33301 15 -13.666 19 -24.999c2.66699 -10.667 4.66699 -24.334 6 -41.001c2.66699 -16 4.66699 -71.333 6 -166v-280v-201v-485c0 -35.333 -4.66699 -59.333 -14 -72
c-12.667 -13.333 -42 -19.333 -88 -18h-82c-14 0 -21 -3.66699 -21 -11v-55c0 -9.33301 6.33301 -14 19 -14c28.667 2.66699 116 4.66699 262 6c312.667 0 527 -0.666992 643 -2c114.667 -2.66699 173.334 -4 176.001 -4c24.667 1.33301 39.667 11.666 45 30.999l108 301
c7.33301 14.667 6 24 -4 28l-32 19c-11.333 4 -19.666 -0.333008 -24.999 -13c-18 -27.333 -46 -66 -84 -116c-39.333 -50.667 -67.333 -83.667 -84 -99c-28.667 -21.333 -60 -37.666 -94 -48.999c-35.333 -12 -63.333 -19.333 -84 -22c-64 -4 -124 -6 -180 -6
s-106.667 4.66699 -152 14c-31.333 5.33301 -58 20.333 -80 45c-21.333 24.667 -33.666 63 -36.999 115c-2.66699 82 -4 198.667 -4 350v127c58.667 0 149 -3.33301 271 -10c27.333 -1.33301 47.666 -9.66602 60.999 -24.999c12.667 -13.333 21.667 -31.666 27 -54.999
c8 -30 15.333 -62.333 22 -97c1.33301 -13.333 7 -19.333 17 -18l45 6c8 1.33301 12 7 12 17c-6.66699 57.333 -10.667 128.333 -12 213c0 21.333 0.666992 60 2 116c0 14 1.33301 27 4 39v33v45c2.66699 9.33301 -1.33301 14.666 -12 15.999l-52 2
c-9.33301 0 -14 -4.66699 -14 -14c-2.66699 -42 -8 -75.333 -16 -100c-11.333 -56 -43 -86 -95 -90c-20 -1.33301 -63.667 -3.66602 -131 -6.99902c-69.333 -4 -112.333 -6 -129 -6v600zM613.997 1575c2.66699 -2.66699 7.66699 -2.66699 15 0l344 168
c39.333 21.333 59 48.666 59 81.999c0 18.667 -6 35.667 -18 51c-14 13.333 -32.667 20 -56 20c-26 0 -54 -13.667 -84 -41l-280 -231c-6.66699 -5.33301 -8 -10.666 -4 -15.999z" />
    <glyph glyph-name="Zcaron" unicode="&#xca;" horiz-adv-x="1413" 
d="M487 1384l364.997 -8.00195c58.667 -5.33301 110.667 -23.666 156 -54.999c13.333 -6.66699 31.666 -21.667 54.999 -45c20.667 -23.333 42.334 -49.333 65.001 -78c49.333 -62.667 77.333 -99.667 84 -111c4 -5.33301 9.66699 -7.33301 17 -6l30 17
c7.33301 4 9.66602 10 6.99902 18l-105 330c-1.33301 6.66699 -6.66602 10 -15.999 10c-16.667 -2.66699 -44 -4 -82 -4c-202 -1.33301 -404.667 -2 -608 -2h-90c-128.667 2.66699 -212.667 4.66699 -252 6c-10 0 -15 -3.33301 -15 -10v-56
c0 -10.667 5.66699 -15.334 17 -14.001h73c38.667 0 65.334 -4.66699 80.001 -14c8.66699 -5.33301 15 -13.666 19 -24.999c2.66699 -10.667 4.66699 -24.334 6 -41.001c2.66699 -16 4.66699 -71.333 6 -166v-280v-201v-485c0 -35.333 -4.66699 -59.333 -14 -72
c-12.667 -13.333 -42 -19.333 -88 -18h-82c-14 0 -21 -3.66699 -21 -11v-55c0 -9.33301 6.33301 -14 19 -14c28.667 2.66699 116 4.66699 262 6c312.667 0 527 -0.666992 643 -2c114.667 -2.66699 173.334 -4 176.001 -4c24.667 1.33301 39.667 11.666 45 30.999l108 301
c7.33301 14.667 6 24 -4 28l-32 19c-11.333 4 -19.666 -0.333008 -24.999 -13c-18 -27.333 -46 -66 -84 -116c-39.333 -50.667 -67.333 -83.667 -84 -99c-28.667 -21.333 -60 -37.666 -94 -48.999c-35.333 -12 -63.333 -19.333 -84 -22c-64 -4 -124 -6 -180 -6
s-106.667 4.66699 -152 14c-31.333 5.33301 -58 20.333 -80 45c-21.333 24.667 -33.666 63 -36.999 115c-2.66699 82 -4 198.667 -4 350v127c58.667 0 149 -3.33301 271 -10c27.333 -1.33301 47.666 -9.66602 60.999 -24.999c12.667 -13.333 21.667 -31.666 27 -54.999
c8 -30 15.333 -62.333 22 -97c1.33301 -13.333 7 -19.333 17 -18l45 6c8 1.33301 12 7 12 17c-6.66699 57.333 -10.667 128.333 -12 213c0 21.333 0.666992 60 2 116c0 14 1.33301 27 4 39v33v45c2.66699 9.33301 -1.33301 14.666 -12 15.999l-52 2
c-9.33301 0 -14 -4.66699 -14 -14c-2.66699 -42 -8 -75.333 -16 -100c-11.333 -56 -43 -86 -95 -90c-20 -1.33301 -63.667 -3.66602 -131 -6.99902c-69.333 -4 -112.333 -6 -129 -6v600zM730.997 1694l262.001 -117c8 -4 14.333 -3.33301 19 2l14 18
c4 6 3.33301 11.667 -2 17l-260 229c-11.333 10.667 -21 16.667 -29 18c-6.66699 -1.33301 -15.334 -7.33301 -26.001 -18l-252 -227c-8.66699 -6.66699 -10.667 -13 -6 -19l16 -20c5.33301 -5.33301 12 -5.33301 20 0l244 117v0z" />
    <glyph glyph-name="brokenbar" unicode="&#xcb;" horiz-adv-x="1413" 
d="M487 1384l364.997 -8.00195c58.667 -5.33301 110.667 -23.666 156 -54.999c13.333 -6.66699 31.666 -21.667 54.999 -45c20.667 -23.333 42.334 -49.333 65.001 -78c49.333 -62.667 77.333 -99.667 84 -111c4 -5.33301 9.66699 -7.33301 17 -6l30 17
c7.33301 4 9.66602 10 6.99902 18l-105 330c-1.33301 6.66699 -6.66602 10 -15.999 10c-16.667 -2.66699 -44 -4 -82 -4c-202 -1.33301 -404.667 -2 -608 -2h-90c-128.667 2.66699 -212.667 4.66699 -252 6c-10 0 -15 -3.33301 -15 -10v-56
c0 -10.667 5.66699 -15.334 17 -14.001h73c38.667 0 65.334 -4.66699 80.001 -14c8.66699 -5.33301 15 -13.666 19 -24.999c2.66699 -10.667 4.66699 -24.334 6 -41.001c2.66699 -16 4.66699 -71.333 6 -166v-280v-201v-485c0 -35.333 -4.66699 -59.333 -14 -72
c-12.667 -13.333 -42 -19.333 -88 -18h-82c-14 0 -21 -3.66699 -21 -11v-55c0 -9.33301 6.33301 -14 19 -14c28.667 2.66699 116 4.66699 262 6c312.667 0 527 -0.666992 643 -2c114.667 -2.66699 173.334 -4 176.001 -4c24.667 1.33301 39.667 11.666 45 30.999l108 301
c7.33301 14.667 6 24 -4 28l-32 19c-11.333 4 -19.666 -0.333008 -24.999 -13c-18 -27.333 -46 -66 -84 -116c-39.333 -50.667 -67.333 -83.667 -84 -99c-28.667 -21.333 -60 -37.666 -94 -48.999c-35.333 -12 -63.333 -19.333 -84 -22c-64 -4 -124 -6 -180 -6
s-106.667 4.66699 -152 14c-31.333 5.33301 -58 20.333 -80 45c-21.333 24.667 -33.666 63 -36.999 115c-2.66699 82 -4 198.667 -4 350v127c58.667 0 149 -3.33301 271 -10c27.333 -1.33301 47.666 -9.66602 60.999 -24.999c12.667 -13.333 21.667 -31.666 27 -54.999
c8 -30 15.333 -62.333 22 -97c1.33301 -13.333 7 -19.333 17 -18l45 6c8 1.33301 12 7 12 17c-6.66699 57.333 -10.667 128.333 -12 213c0 21.333 0.666992 60 2 116c0 14 1.33301 27 4 39v33v45c2.66699 9.33301 -1.33301 14.666 -12 15.999l-52 2
c-9.33301 0 -14 -4.66699 -14 -14c-2.66699 -42 -8 -75.333 -16 -100c-11.333 -56 -43 -86 -95 -90c-20 -1.33301 -63.667 -3.66602 -131 -6.99902c-69.333 -4 -112.333 -6 -129 -6v600zM529.997 1802c-39.333 -1.33301 -67.335 -13.001 -84.002 -35.001
c-14.667 -21.333 -22 -39.666 -22 -54.999c1.33301 -38 15 -64 41 -78c10.667 -6.66699 22.334 -12 35.001 -16c12 -4 22 -6 30 -6c26 0 47.333 8.66699 64 26c17.333 16.667 26 38.667 26 66c0 31.333 -8.66699 56 -26 74c-19.333 16 -40.666 24 -63.999 24v0z
M937.995 1802c-39.333 -1.33301 -67.333 -13.001 -84 -35.001c-15.333 -21.333 -23 -39.666 -23 -54.999c1.33301 -38 15 -64 41 -78c11.333 -6.66699 23 -12 35 -16c12.667 -4 23 -6 31 -6c58.667 1.33301 89.334 32 92.001 92c0 31.333 -9 56 -27 74
c-18.667 16 -40.334 24 -65.001 24v0z" />
    <glyph glyph-name="Thorn" unicode="&#xcc;" horiz-adv-x="760" 
d="M287 715c0 -68.667 -0.666016 -174.666 -1.99902 -317.999c-2.66699 -144.667 -5.66699 -232.667 -9 -264c-4 -26 -14.667 -42.333 -32 -49c-18 -6.66699 -38 -10 -60 -10h-114c-11.333 0 -17 -4.33301 -17 -13v-55c0 -8 5.66699 -12 17 -12
c16 2.66699 117.667 4.66699 305 6c90 0 156.667 -0.666992 200 -2c45.333 -2.66699 73.333 -4 84 -4c12.667 0 19 4 19 12v53c0 10 -5.66699 15 -17 15h-84c-31.333 0 -55 4.66699 -71 14c-16.667 9.33301 -25 29 -25 59c-2.66699 174 -4.66699 346.333 -6 517v157
c2.66699 168 4.66699 334 6 498c0 20.667 7.66699 35.667 23 45c12 8 28.333 12 49 12h96c11.333 0 17 4.66699 17 14v52c0 9.33301 -5 14 -15 14c-14.667 -2.66699 -106.667 -4.66699 -276 -6c-94.667 0 -168.334 1.33301 -221.001 4c-53.333 1.33301 -86.333 2 -99 2
c-9.33301 0 -14 -4 -14 -12v-56c0 -8 5.33301 -12 16 -12h119c38 0 64.667 -4.66699 80 -14c13.333 -12.667 21 -31 23 -55c4 -140.667 6.66699 -290.334 8 -449.001v-143zM477.001 1603c6.66699 7.33301 6.66699 13.666 0 18.999l-285 233c-30 27.333 -57.667 41 -83 41
c-20.667 0 -38 -6.66699 -52 -20c-14.667 -15.333 -22 -32.333 -22 -51c0 -33.333 19.667 -60.666 59 -81.999l342 -168c8 -2.66699 13.667 -2.66699 17 0z" />
    <glyph glyph-name="eth" unicode="&#xcd;" horiz-adv-x="760" 
d="M287 715c0 -68.667 -0.666016 -174.666 -1.99902 -317.999c-2.66699 -144.667 -5.66699 -232.667 -9 -264c-4 -26 -14.667 -42.333 -32 -49c-18 -6.66699 -38 -10 -60 -10h-114c-11.333 0 -17 -4.33301 -17 -13v-55c0 -8 5.66699 -12 17 -12
c16 2.66699 117.667 4.66699 305 6c90 0 156.667 -0.666992 200 -2c45.333 -2.66699 73.333 -4 84 -4c12.667 0 19 4 19 12v53c0 10 -5.66699 15 -17 15h-84c-31.333 0 -55 4.66699 -71 14c-16.667 9.33301 -25 29 -25 59c-2.66699 174 -4.66699 346.333 -6 517v157
c2.66699 168 4.66699 334 6 498c0 20.667 7.66699 35.667 23 45c12 8 28.333 12 49 12h96c11.333 0 17 4.66699 17 14v52c0 9.33301 -5 14 -15 14c-14.667 -2.66699 -106.667 -4.66699 -276 -6c-94.667 0 -168.334 1.33301 -221.001 4c-53.333 1.33301 -86.333 2 -99 2
c-9.33301 0 -14 -4 -14 -12v-56c0 -8 5.33301 -12 16 -12h119c38 0 64.667 -4.66699 80 -14c13.333 -12.667 21 -31 23 -55c4 -140.667 6.66699 -290.334 8 -449.001v-143zM307.001 1575c2.66699 -2.66699 7.66602 -2.66699 14.999 0l344 168
c39.333 21.333 59 48.666 59 81.999c0 18.667 -6 35.667 -18 51c-14 13.333 -32.667 20 -56 20c-26 0 -54 -13.667 -84 -41l-280 -231c-7.33301 -5.33301 -8.66602 -10.666 -3.99902 -15.999z" />
    <glyph glyph-name="Yacute" unicode="&#xce;" horiz-adv-x="760" 
d="M287 715c0 -68.667 -0.666016 -174.666 -1.99902 -317.999c-2.66699 -144.667 -5.66699 -232.667 -9 -264c-4 -26 -14.667 -42.333 -32 -49c-18 -6.66699 -38 -10 -60 -10h-114c-11.333 0 -17 -4.33301 -17 -13v-55c0 -8 5.66699 -12 17 -12
c16 2.66699 117.667 4.66699 305 6c90 0 156.667 -0.666992 200 -2c45.333 -2.66699 73.333 -4 84 -4c12.667 0 19 4 19 12v53c0 10 -5.66699 15 -17 15h-84c-31.333 0 -55 4.66699 -71 14c-16.667 9.33301 -25 29 -25 59c-2.66699 174 -4.66699 346.333 -6 517v157
c2.66699 168 4.66699 334 6 498c0 20.667 7.66699 35.667 23 45c12 8 28.333 12 49 12h96c11.333 0 17 4.66699 17 14v52c0 9.33301 -5 14 -15 14c-14.667 -2.66699 -106.667 -4.66699 -276 -6c-94.667 0 -168.334 1.33301 -221.001 4c-53.333 1.33301 -86.333 2 -99 2
c-9.33301 0 -14 -4 -14 -12v-56c0 -8 5.33301 -12 16 -12h119c38 0 64.667 -4.66699 80 -14c13.333 -12.667 21 -31 23 -55c4 -140.667 6.66699 -290.334 8 -449.001v-143zM373.001 1694l262 -117c8 -4 14 -3.33301 18 2l15 18c4 6 3.33301 11.667 -2 17l-261 229
c-10.667 10.667 -20 16.667 -28 18c-6.66699 -1.33301 -15.667 -7.33301 -27 -18l-252 -227c-8 -6.66699 -10 -13 -6 -19l17 -20c5.33301 -5.33301 12 -5.33301 20 0l244 117v0z" />
    <glyph glyph-name="yacute" unicode="&#xcf;" horiz-adv-x="760" 
d="M287 715c0 -68.667 -0.666016 -174.666 -1.99902 -317.999c-2.66699 -144.667 -5.66699 -232.667 -9 -264c-4 -26 -14.667 -42.333 -32 -49c-18 -6.66699 -38 -10 -60 -10h-114c-11.333 0 -17 -4.33301 -17 -13v-55c0 -8 5.66699 -12 17 -12
c16 2.66699 117.667 4.66699 305 6c90 0 156.667 -0.666992 200 -2c45.333 -2.66699 73.333 -4 84 -4c12.667 0 19 4 19 12v53c0 10 -5.66699 15 -17 15h-84c-31.333 0 -55 4.66699 -71 14c-16.667 9.33301 -25 29 -25 59c-2.66699 174 -4.66699 346.333 -6 517v157
c2.66699 168 4.66699 334 6 498c0 20.667 7.66699 35.667 23 45c12 8 28.333 12 49 12h96c11.333 0 17 4.66699 17 14v52c0 9.33301 -5 14 -15 14c-14.667 -2.66699 -106.667 -4.66699 -276 -6c-94.667 0 -168.334 1.33301 -221.001 4c-53.333 1.33301 -86.333 2 -99 2
c-9.33301 0 -14 -4 -14 -12v-56c0 -8 5.33301 -12 16 -12h119c38 0 64.667 -4.66699 80 -14c13.333 -12.667 21 -31 23 -55c4 -140.667 6.66699 -290.334 8 -449.001v-143zM184.001 1802c-39.333 -1.33301 -67.335 -13.001 -84.002 -35.001
c-14.667 -21.333 -22 -39.666 -22 -54.999c1.33301 -38 15 -64 41 -78c10.667 -6.66699 22.334 -12 35.001 -16c12 -4 22 -6 30 -6c26 0 47.333 8.66699 64 26c17.333 16.667 26 38.667 26 66c0 31.333 -8.66699 56 -26 74c-19.333 16 -40.666 24 -63.999 24v0z
M591.999 1802c-40 -1.33301 -68 -13.001 -84 -35.001c-15.333 -21.333 -23 -39.666 -23 -54.999c1.33301 -38 15 -64 41 -78c11.333 -6.66699 23 -12 35 -16c12.667 -4 23 -6 31 -6c58.667 1.33301 89.334 32 92.001 92c0 31.333 -9 56 -27 74
c-18.667 16 -40.334 24 -65.001 24v0z" />
    <glyph glyph-name="glyph210" unicode="&#xd0;" horiz-adv-x="1665" 
d="M481 887c0 102 0.666992 230.997 2 386.997c0 46 13 78 39 96c20.667 10.667 47.334 16.667 80.001 18s60.667 2 84 2c232 -4 403.333 -69.333 514 -196c108 -126 164 -277 168 -453c-4 -193.333 -54 -346.666 -150 -459.999c-107.333 -143.333 -267 -217.333 -479 -222
c-52 0 -97 6.33301 -135 19c-39.333 10.667 -67.333 26.334 -84 47.001c-24.667 38 -36.334 76.333 -35.001 115c-2.66699 186.667 -4 337.334 -4 452.001h348c12.667 -1.33301 19 5 19 19v41c1.33301 12 -5 18 -19 18h-348v117zM59 9.99707
c-1.33301 -10.667 4.33398 -15.999 17.001 -15.999c18.667 2.66699 114 4.66699 286 6c153.333 -1.33301 279 -3.33301 377 -6c40 0 86.667 1.33301 140 4c51.333 2.66699 106.333 11 165 25c119.333 21.333 230 84 332 188c135.333 135.333 203 315 203 539
c-5.33301 236 -81 410 -227 522c-90.667 76 -191 126.333 -301 151c-110.667 23.333 -232.334 34.333 -365.001 33c-82 -2.66699 -183.667 -4.66699 -305 -6c-190 2.66699 -289.667 4.66699 -299 6c-12.667 0 -18 -5.33301 -16 -16v-45c-2 -14 2 -20.333 12 -19h117
c54 0 83.333 -19 88 -57c2.66699 -27.333 5.33398 -88 8.00098 -182c1.33301 -94.667 2 -160.334 2 -197.001v-170h-199c-13.333 0 -19.333 -6 -18 -18v-41c-1.33301 -12.667 4.66699 -19 18 -19h199v-55c0 -104 -1.33301 -208.333 -4 -313
c-2.66699 -105.333 -5.33398 -168.333 -8.00098 -189c-7.33301 -42 -30 -62.333 -68 -61h-139c-11.333 0 -16.333 -5 -15 -15v-49z" />
    <glyph glyph-name="cent" unicode="&#xd1;" horiz-adv-x="1628" 
d="M276 836c0 -376 -2.66699 -588.333 -8 -637c-4 -48 -12.667 -81 -26 -99c-14 -18.667 -36 -27.334 -66 -26.001h-70c-9.33301 -1.33301 -13.333 -5.66602 -12 -12.999v-53c0 -9.33301 3.33301 -14 10 -14c57.333 2.66699 125.666 4.66699 204.999 6
c32.667 -0 71 -0.666992 115 -2c42 -2.66699 70 -4 84 -4c10.667 0 16 5.33301 16 16v45c0 12.667 -5.33301 19 -16 19h-62c-48.667 0 -73.667 39.333 -75 118c-11.333 113.333 -18.333 302 -21 566v454h12l203 -252l139 -170c41.333 -48.667 64.666 -78 69.999 -88
c9.33301 -9.33301 44.333 -51 105 -125l200 -253l174 -215c48 -62 73.333 -95.667 76 -101c4 -5.33301 10 -11.333 18 -18c8.66699 -8.66699 19 -13.667 31 -15c6.66699 1.33301 10 18 10 50v765c-1.33301 156 1.66699 314 9 474c1.33301 74.667 28 112 80 112h55
c8 0 12 4.66699 12 14v52c0 9.33301 -5.33301 14 -16 14c-18 -2.66699 -84.333 -4.66699 -199 -6c-65.333 0 -115 1.33301 -149 4c-37.333 1.33301 -62.666 2 -75.999 2c-8 0 -12 -4 -12 -12v-54c0 -9.33301 4 -14 12 -14h65c58.667 -1.33301 96.334 -28 113.001 -80
c6.66699 -23.333 12.667 -69.666 18 -138.999c4.66699 -70.667 7 -129.334 7 -176.001c4 -88.667 6 -217 6 -385v-244h-9l-417 518l-430 557c-15.333 18 -35.333 27 -60 27c-23.333 -2.66699 -69 -4 -137 -4s-116.333 1.33301 -145 4c-28.667 0 -48 0.666992 -58 2
c-9.33301 0 -13.333 -4 -12 -12v-54c-1.33301 -9.33301 2.66699 -14 12 -14l84 -2c38.667 0 71 -16.333 97 -49c25.333 -32.667 38 -79.667 38 -141v-348zM602 1601c6.66699 0 11.332 3.66895 13.999 11.002c7.33301 27.333 18.333 47.666 33 60.999c15.333 14 31 21 47 21
c41.333 0 83.666 -7 126.999 -21l88 -22c26 -10 53.333 -15 82 -15c45.333 0 81.666 17 108.999 51c24.667 33.333 41 69.666 49 108.999c5.33301 26 3.33301 38.333 -6 37h-35c-8 0 -12.667 -4 -14 -12c-2.66699 -15.333 -9 -30.666 -19 -45.999
c-9.33301 -16 -25.666 -24 -48.999 -24c-45.333 0 -91.666 9 -138.999 27l-80 22c-26 6.66699 -54 10 -84 10c-87.333 -2.66699 -142.666 -60.667 -165.999 -174c-5.33301 -24.667 -3.33301 -36.334 6 -35.001h37z" />
    <glyph glyph-name="onesuperior" unicode="&#xd2;" horiz-adv-x="1681" 
d="M840 -31c140.667 1.33301 259.333 29.334 356 84.001c95.333 53.333 173 121.666 233 204.999c104 146 155.333 295.667 154 449c-1.33301 140 -29.333 261.333 -84 364c-53.333 102.667 -119 185.334 -197 248.001c-80 65.333 -159.667 109.666 -239 132.999
c-80.667 19.333 -153.667 29 -219 29c-86 1.33301 -177 -14.667 -273 -48c-96.667 -34 -190.667 -104.667 -282 -212c-75.333 -96 -126.666 -189 -153.999 -279c-26 -88.667 -38.333 -165.667 -37 -231c1.33301 -150.667 33.666 -277.667 96.999 -381
c61.333 -105.333 129.333 -181.333 204 -228c84.667 -47.333 166.667 -81.333 246 -102c78 -20.667 143 -31 195 -31v0zM855.999 47.001c-44 0 -96.668 12.998 -158.001 38.998s-121.333 67.667 -180 125s-107.667 133 -147 227c-42.667 92.667 -64 205.334 -64 338.001
c0 86 17.667 175.333 53 268c33.333 90.667 84 170 152 238c39.333 36.667 77 64 113 82c35.333 17.333 67.333 29 96 35c30 5.33301 55.333 8 76 8c18.667 -2.66699 31.667 -4 39 -4c122.667 -1.33301 242.667 -63.666 360 -186.999c120 -124 182 -299.333 186 -526
c0 -46.667 -5.33301 -104.667 -16 -174c-14 -70.667 -39.333 -141.667 -76 -213c-35.333 -70.667 -88.666 -130 -159.999 -178c-70.667 -50.667 -162 -76.667 -274 -78v0zM957.998 1603c7.33301 7.33301 7.33203 13.666 -0.000976562 18.999l-284 233
c-30 27.333 -58 41 -84 41c-20.667 0 -37.667 -6.66699 -51 -20c-15.333 -15.333 -23 -32.333 -23 -51c0 -33.333 19.667 -60.666 59 -81.999l342 -168c8.66699 -2.66699 14.334 -2.66699 17.001 0z" />
    <glyph glyph-name="thorn" unicode="&#xd3;" horiz-adv-x="1681" 
d="M840 -31c140.667 1.33301 259.333 29.334 356 84.001c95.333 53.333 173 121.666 233 204.999c104 146 155.333 295.667 154 449c-1.33301 140 -29.333 261.333 -84 364c-53.333 102.667 -119 185.334 -197 248.001c-80 65.333 -159.667 109.666 -239 132.999
c-80.667 19.333 -153.667 29 -219 29c-86 1.33301 -177 -14.667 -273 -48c-96.667 -34 -190.667 -104.667 -282 -212c-75.333 -96 -126.666 -189 -153.999 -279c-26 -88.667 -38.333 -165.667 -37 -231c1.33301 -150.667 33.666 -277.667 96.999 -381
c61.333 -105.333 129.333 -181.333 204 -228c84.667 -47.333 166.667 -81.333 246 -102c78 -20.667 143 -31 195 -31v0zM855.999 47.001c-44 0 -96.668 12.998 -158.001 38.998s-121.333 67.667 -180 125s-107.667 133 -147 227c-42.667 92.667 -64 205.334 -64 338.001
c0 86 17.667 175.333 53 268c33.333 90.667 84 170 152 238c39.333 36.667 77 64 113 82c35.333 17.333 67.333 29 96 35c30 5.33301 55.333 8 76 8c18.667 -2.66699 31.667 -4 39 -4c122.667 -1.33301 242.667 -63.666 360 -186.999c120 -124 182 -299.333 186 -526
c0 -46.667 -5.33301 -104.667 -16 -174c-14 -70.667 -39.333 -141.667 -76 -213c-35.333 -70.667 -88.666 -130 -159.999 -178c-70.667 -50.667 -162 -76.667 -274 -78v0zM726.998 1575c2.66699 -2.66699 7.33203 -2.66699 13.999 0l344 168c40 21.333 60 48.666 60 81.999
c0 18.667 -6.33301 35.667 -19 51c-13.333 13.333 -31.666 20 -54.999 20c-26 0 -54 -13.667 -84 -41l-280 -231c-7.33301 -5.33301 -9 -10.666 -5 -15.999z" />
    <glyph glyph-name="minus" unicode="&#xd4;" horiz-adv-x="1681" 
d="M840 -31c140.667 1.33301 259.333 29.334 356 84.001c95.333 53.333 173 121.666 233 204.999c104 146 155.333 295.667 154 449c-1.33301 140 -29.333 261.333 -84 364c-53.333 102.667 -119 185.334 -197 248.001c-80 65.333 -159.667 109.666 -239 132.999
c-80.667 19.333 -153.667 29 -219 29c-86 1.33301 -177 -14.667 -273 -48c-96.667 -34 -190.667 -104.667 -282 -212c-75.333 -96 -126.666 -189 -153.999 -279c-26 -88.667 -38.333 -165.667 -37 -231c1.33301 -150.667 33.666 -277.667 96.999 -381
c61.333 -105.333 129.333 -181.333 204 -228c84.667 -47.333 166.667 -81.333 246 -102c78 -20.667 143 -31 195 -31v0zM855.999 47.001c-44 0 -96.668 12.998 -158.001 38.998s-121.333 67.667 -180 125s-107.667 133 -147 227c-42.667 92.667 -64 205.334 -64 338.001
c0 86 17.667 175.333 53 268c33.333 90.667 84 170 152 238c39.333 36.667 77 64 113 82c35.333 17.333 67.333 29 96 35c30 5.33301 55.333 8 76 8c18.667 -2.66699 31.667 -4 39 -4c122.667 -1.33301 242.667 -63.666 360 -186.999c120 -124 182 -299.333 186 -526
c0 -46.667 -5.33301 -104.667 -16 -174c-14 -70.667 -39.333 -141.667 -76 -213c-35.333 -70.667 -88.666 -130 -159.999 -178c-70.667 -50.667 -162 -76.667 -274 -78v0zM832.998 1694l263 -117c8 -4 14 -3.33301 18 2l14 18c4.66699 6 4 11.667 -2 17l-260 229
c-10.667 10.667 -20 16.667 -28 18c-7.33301 -1.33301 -16.333 -7.33301 -27 -18l-252 -227c-8 -6.66699 -10 -13 -6 -19l16 -20c5.33301 -5.33301 12.333 -5.33301 21 0l243 117v0z" />
    <glyph glyph-name="Icircumflex" unicode="&#xd5;" horiz-adv-x="1681" 
d="M840 -31c140.667 1.33301 259.333 29.334 356 84.001c95.333 53.333 173 121.666 233 204.999c104 146 155.333 295.667 154 449c-1.33301 140 -29.333 261.333 -84 364c-53.333 102.667 -119 185.334 -197 248.001c-80 65.333 -159.667 109.666 -239 132.999
c-80.667 19.333 -153.667 29 -219 29c-86 1.33301 -177 -14.667 -273 -48c-96.667 -34 -190.667 -104.667 -282 -212c-75.333 -96 -126.666 -189 -153.999 -279c-26 -88.667 -38.333 -165.667 -37 -231c1.33301 -150.667 33.666 -277.667 96.999 -381
c61.333 -105.333 129.333 -181.333 204 -228c84.667 -47.333 166.667 -81.333 246 -102c78 -20.667 143 -31 195 -31v0zM855.999 47.001c-44 0 -96.668 12.998 -158.001 38.998s-121.333 67.667 -180 125s-107.667 133 -147 227c-42.667 92.667 -64 205.334 -64 338.001
c0 86 17.667 175.333 53 268c33.333 90.667 84 170 152 238c39.333 36.667 77 64 113 82c35.333 17.333 67.333 29 96 35c30 5.33301 55.333 8 76 8c18.667 -2.66699 31.667 -4 39 -4c122.667 -1.33301 242.667 -63.666 360 -186.999c120 -124 182 -299.333 186 -526
c0 -46.667 -5.33301 -104.667 -16 -174c-14 -70.667 -39.333 -141.667 -76 -213c-35.333 -70.667 -88.666 -130 -159.999 -178c-70.667 -50.667 -162 -76.667 -274 -78v0zM587.998 1601c6.66699 0 11.3291 3.66895 13.9961 11.002c6.66699 27.333 17.667 47.666 33 60.999
c14.667 14 30.334 21 47.001 21c40.667 0 83 -7 127 -21l88 -22c26 -10 53.333 -15 82 -15c44.667 0 80.667 17 108 51c24.667 33.333 41.334 69.666 50.001 108.999c5.33301 26 3 38.333 -7 37h-34c-8.66699 0 -13.667 -4 -15 -12
c-2.66699 -15.333 -8.66699 -30.666 -18 -45.999c-9.33301 -16 -25.666 -24 -48.999 -24c-45.333 0 -92 9 -140 27l-79 22c-26 6.66699 -54 10 -84 10c-87.333 -2.66699 -142.666 -60.667 -165.999 -174c-5.33301 -24.667 -3.33301 -36.334 6 -35.001h37z" />
    <glyph glyph-name="sterling" unicode="&#xd6;" horiz-adv-x="1681" 
d="M840 -31c140.667 1.33301 259.333 29.334 356 84.001c95.333 53.333 173 121.666 233 204.999c104 146 155.333 295.667 154 449c-1.33301 140 -29.333 261.333 -84 364c-53.333 102.667 -119 185.334 -197 248.001c-80 65.333 -159.667 109.666 -239 132.999
c-80.667 19.333 -153.667 29 -219 29c-86 1.33301 -177 -14.667 -273 -48c-96.667 -34 -190.667 -104.667 -282 -212c-75.333 -96 -126.666 -189 -153.999 -279c-26 -88.667 -38.333 -165.667 -37 -231c1.33301 -150.667 33.666 -277.667 96.999 -381
c61.333 -105.333 129.333 -181.333 204 -228c84.667 -47.333 166.667 -81.333 246 -102c78 -20.667 143 -31 195 -31v0zM855.999 47.001c-44 0 -96.668 12.998 -158.001 38.998s-121.333 67.667 -180 125s-107.667 133 -147 227c-42.667 92.667 -64 205.334 -64 338.001
c0 86 17.667 175.333 53 268c33.333 90.667 84 170 152 238c39.333 36.667 77 64 113 82c35.333 17.333 67.333 29 96 35c30 5.33301 55.333 8 76 8c18.667 -2.66699 31.667 -4 39 -4c122.667 -1.33301 242.667 -63.666 360 -186.999c120 -124 182 -299.333 186 -526
c0 -46.667 -5.33301 -104.667 -16 -174c-14 -70.667 -39.333 -141.667 -76 -213c-35.333 -70.667 -88.666 -130 -159.999 -178c-70.667 -50.667 -162 -76.667 -274 -78v0zM644.998 1802c-39.333 -1.33301 -67.334 -13.001 -84.001 -35.001
c-14.667 -21.333 -22 -39.666 -22 -54.999c1.33301 -38 15 -64 41 -78c10.667 -6.66699 22 -12 34 -16c12.667 -4 23 -6 31 -6c26 0 47.333 8.66699 64 26c17.333 16.667 26 38.667 26 66c0 31.333 -8.66699 56 -26 74c-19.333 16 -40.666 24 -63.999 24v0zM1053 1802
c-40 -1.33301 -68.002 -13.001 -84.002 -35.001c-15.333 -21.333 -23 -39.666 -23 -54.999c1.33301 -38 15 -64 41 -78c10.667 -6.66699 22.334 -12 35.001 -16c12 -4 22.333 -6 31 -6c58.667 1.33301 89.334 32 92.001 92c0 31.333 -9 56 -27 74c-19.333 16 -41 24 -65 24
v0z" />
    <glyph glyph-name="multiply" unicode="&#xd7;" 
d="M803 121l84 86l-297 293l295 290l-78 76v0l-293 -295v0l-293 295v0l-82 -84l291 -286l-293 -289l72 -86v0l297 299v0l297 -299v0z" />
    <glyph glyph-name="Otilde" unicode="&#xd8;" horiz-adv-x="1681" 
d="M147 -20c7.33301 -7.33301 12.9971 -10.999 16.9971 -10.999s9.33301 4.33301 16 13l162 163c20.667 -17.333 39.667 -31.666 57 -42.999c84.667 -47.333 166.667 -81.333 246 -102c78 -20.667 143 -31 195 -31c140.667 1.33301 259.334 29.333 356.001 84
c95.333 53.333 173 121.666 233 204.999c104 146 155.333 295.667 154 449c-4 218 -64.667 388.333 -182 511l186 191c2.66699 4 4.66699 7.33301 6 10c-1.33301 4 -4.66602 8 -9.99902 12l-51 41c-4 6 -7.33301 9 -10 9c-4.66699 0 -9 -3 -13 -9l-178 -180
c-9.33301 10 -19 19 -29 27c-80 65.333 -159.667 109.666 -239 132.999c-80.667 19.333 -153.667 29 -219 29c-86 1.33301 -177 -14.667 -273 -48c-96.667 -34 -190.667 -104.667 -282 -212c-75.333 -96 -126.666 -189 -153.999 -279c-26 -88.667 -38.333 -165.667 -37 -231
c4 -212 61.333 -376.667 172 -494l-164 -166c-5.33301 -8 -8 -14 -8 -18s2.66699 -9 8 -15zM1280 1096c66.667 -109.333 100.666 -244.667 101.999 -406c0 -46.667 -5.33301 -104.667 -16 -174c-14 -70.667 -39.333 -141.667 -76 -213
c-35.333 -70.667 -88.666 -130 -159.999 -178c-70.667 -50.667 -162 -76.667 -274 -78c-52 0 -114 17.667 -186 53c-74 34.667 -143 90.667 -207 168zM407.996 356c-66 108 -99.666 248 -100.999 420c0 86 17.667 175.333 53 268c33.333 92 84.666 170.667 153.999 236
c39.333 36.667 76.333 64 111 82c35.333 17.333 67.333 29 96 35c30 5.33301 55.333 8 76 8c18.667 -1.33301 31.667 -2 39 -2c62.667 0 128.667 -18.667 198 -56c67.333 -36.667 130.333 -91.667 189 -165z" />
    <glyph glyph-name="onehalf" unicode="&#xd9;" horiz-adv-x="1528" 
d="M758 -31c176 1.33301 304.336 42.333 385.003 123c109.333 97.333 166.666 229 171.999 395c6.66699 182 10 337.667 10 467c0 26 0.666992 84 2 174c0 41.333 0.666992 77.666 2 108.999v57c2.66699 14 9.66699 31 21 51c9.33301 19.333 31.666 29.666 66.999 30.999h84
c8 0 12 7 12 21v45c1.33301 8 -5.33398 12.667 -20.001 14c-14 -2.66699 -89 -4.66699 -225 -6c-68.667 0 -124.667 1.33301 -168 4c-45.333 1.33301 -73.333 2 -84 2c-11.333 0 -16.333 -4.66699 -15 -14v-49c-1.33301 -11.333 3.66699 -17 15 -17h90
c54.667 -1.33301 85.334 -31.333 92.001 -90c6.66699 -56 10 -164.667 10 -326v-438c1.33301 -152.667 -34 -272.667 -106 -360c-35.333 -37.333 -80.333 -64.666 -135 -81.999c-54.667 -20.667 -112 -31 -172 -31c-60.667 0 -120.334 11 -179.001 33
s-107.667 60.333 -147 115c-22 35.333 -38.333 76 -49 122c-10 44 -15.667 90 -17 138c-5.33301 122.667 -8.66602 267.334 -9.99902 434.001v135c0 132.667 1.33301 221.334 4 266.001c5.33301 53.333 38.333 81.333 99 84h102c10.667 0 16 4.66699 16 14v54
c1.33301 8 -4.66699 12 -18 12c-24.667 -2.66699 -118.334 -4.66699 -281.001 -6c-78.667 0 -142 1.33301 -190 4c-49.333 1.33301 -79.333 2 -90 2c-14 0 -20.333 -5.33301 -19 -16v-45c-1.33301 -14 3.66699 -20.333 15 -19h96c54.667 0 80.667 -34.667 78 -104v-488
c-1.33301 -254 9.66699 -419.667 33 -497c28.667 -128.667 109.667 -220.334 243 -275.001c72.667 -28.667 165 -43 277 -43v0zM901.003 1603c6.66699 7.33301 6.66699 13.666 0 18.999l-285 233c-30 27.333 -58 41 -84 41c-20 0 -37 -6.66699 -51 -20
c-14.667 -15.333 -22 -32.333 -22 -51c0 -33.333 19.667 -60.666 59 -81.999l342 -168c8 -2.66699 13.333 -2.66699 16 0z" />
    <glyph glyph-name="twosuperior" unicode="&#xda;" horiz-adv-x="1528" 
d="M758 -31c176 1.33301 304.336 42.333 385.003 123c109.333 97.333 166.666 229 171.999 395c6.66699 182 10 337.667 10 467c0 26 0.666992 84 2 174c0 41.333 0.666992 77.666 2 108.999v57c2.66699 14 9.66699 31 21 51c9.33301 19.333 31.666 29.666 66.999 30.999h84
c8 0 12 7 12 21v45c1.33301 8 -5.33398 12.667 -20.001 14c-14 -2.66699 -89 -4.66699 -225 -6c-68.667 0 -124.667 1.33301 -168 4c-45.333 1.33301 -73.333 2 -84 2c-11.333 0 -16.333 -4.66699 -15 -14v-49c-1.33301 -11.333 3.66699 -17 15 -17h90
c54.667 -1.33301 85.334 -31.333 92.001 -90c6.66699 -56 10 -164.667 10 -326v-438c1.33301 -152.667 -34 -272.667 -106 -360c-35.333 -37.333 -80.333 -64.666 -135 -81.999c-54.667 -20.667 -112 -31 -172 -31c-60.667 0 -120.334 11 -179.001 33
s-107.667 60.333 -147 115c-22 35.333 -38.333 76 -49 122c-10 44 -15.667 90 -17 138c-5.33301 122.667 -8.66602 267.334 -9.99902 434.001v135c0 132.667 1.33301 221.334 4 266.001c5.33301 53.333 38.333 81.333 99 84h102c10.667 0 16 4.66699 16 14v54
c1.33301 8 -4.66699 12 -18 12c-24.667 -2.66699 -118.334 -4.66699 -281.001 -6c-78.667 0 -142 1.33301 -190 4c-49.333 1.33301 -79.333 2 -90 2c-14 0 -20.333 -5.33301 -19 -16v-45c-1.33301 -14 3.66699 -20.333 15 -19h96c54.667 0 80.667 -34.667 78 -104v-488
c-1.33301 -254 9.66699 -419.667 33 -497c28.667 -128.667 109.667 -220.334 243 -275.001c72.667 -28.667 165 -43 277 -43v0zM754.003 1575c2.66699 -2.66699 7.33301 -2.66699 14 0l344 168c39.333 21.333 59 48.666 59 81.999c0 18.667 -6 35.667 -18 51
c-14 13.333 -32.333 20 -55 20c-26 0 -54 -13.667 -84 -41l-281 -231c-6.66699 -5.33301 -8 -10.666 -4 -15.999z" />
    <glyph glyph-name="threesuperior" unicode="&#xdb;" horiz-adv-x="1528" 
d="M758 -31c176 1.33301 304.336 42.333 385.003 123c109.333 97.333 166.666 229 171.999 395c6.66699 182 10 337.667 10 467c0 26 0.666992 84 2 174c0 41.333 0.666992 77.666 2 108.999v57c2.66699 14 9.66699 31 21 51c9.33301 19.333 31.666 29.666 66.999 30.999h84
c8 0 12 7 12 21v45c1.33301 8 -5.33398 12.667 -20.001 14c-14 -2.66699 -89 -4.66699 -225 -6c-68.667 0 -124.667 1.33301 -168 4c-45.333 1.33301 -73.333 2 -84 2c-11.333 0 -16.333 -4.66699 -15 -14v-49c-1.33301 -11.333 3.66699 -17 15 -17h90
c54.667 -1.33301 85.334 -31.333 92.001 -90c6.66699 -56 10 -164.667 10 -326v-438c1.33301 -152.667 -34 -272.667 -106 -360c-35.333 -37.333 -80.333 -64.666 -135 -81.999c-54.667 -20.667 -112 -31 -172 -31c-60.667 0 -120.334 11 -179.001 33
s-107.667 60.333 -147 115c-22 35.333 -38.333 76 -49 122c-10 44 -15.667 90 -17 138c-5.33301 122.667 -8.66602 267.334 -9.99902 434.001v135c0 132.667 1.33301 221.334 4 266.001c5.33301 53.333 38.333 81.333 99 84h102c10.667 0 16 4.66699 16 14v54
c1.33301 8 -4.66699 12 -18 12c-24.667 -2.66699 -118.334 -4.66699 -281.001 -6c-78.667 0 -142 1.33301 -190 4c-49.333 1.33301 -79.333 2 -90 2c-14 0 -20.333 -5.33301 -19 -16v-45c-1.33301 -14 3.66699 -20.333 15 -19h96c54.667 0 80.667 -34.667 78 -104v-488
c-1.33301 -254 9.66699 -419.667 33 -497c28.667 -128.667 109.667 -220.334 243 -275.001c72.667 -28.667 165 -43 277 -43v0zM799.003 1694l262 -117c8 -4 14 -3.33301 18 2l15 18c4 6 3.33301 11.667 -2 17l-261 229c-10.667 10.667 -20 16.667 -28 18
c-6.66699 -1.33301 -15.667 -7.33301 -27 -18l-252 -227c-8 -6.66699 -10 -13 -6 -19l16 -20c6 -5.33301 13 -5.33301 21 0l244 117v0z" />
    <glyph glyph-name="section" unicode="&#xdc;" horiz-adv-x="1528" 
d="M758 -31c176 1.33301 304.336 42.333 385.003 123c109.333 97.333 166.666 229 171.999 395c6.66699 182 10 337.667 10 467c0 26 0.666992 84 2 174c0 41.333 0.666992 77.666 2 108.999v57c2.66699 14 9.66699 31 21 51c9.33301 19.333 31.666 29.666 66.999 30.999h84
c8 0 12 7 12 21v45c1.33301 8 -5.33398 12.667 -20.001 14c-14 -2.66699 -89 -4.66699 -225 -6c-68.667 0 -124.667 1.33301 -168 4c-45.333 1.33301 -73.333 2 -84 2c-11.333 0 -16.333 -4.66699 -15 -14v-49c-1.33301 -11.333 3.66699 -17 15 -17h90
c54.667 -1.33301 85.334 -31.333 92.001 -90c6.66699 -56 10 -164.667 10 -326v-438c1.33301 -152.667 -34 -272.667 -106 -360c-35.333 -37.333 -80.333 -64.666 -135 -81.999c-54.667 -20.667 -112 -31 -172 -31c-60.667 0 -120.334 11 -179.001 33
s-107.667 60.333 -147 115c-22 35.333 -38.333 76 -49 122c-10 44 -15.667 90 -17 138c-5.33301 122.667 -8.66602 267.334 -9.99902 434.001v135c0 132.667 1.33301 221.334 4 266.001c5.33301 53.333 38.333 81.333 99 84h102c10.667 0 16 4.66699 16 14v54
c1.33301 8 -4.66699 12 -18 12c-24.667 -2.66699 -118.334 -4.66699 -281.001 -6c-78.667 0 -142 1.33301 -190 4c-49.333 1.33301 -79.333 2 -90 2c-14 0 -20.333 -5.33301 -19 -16v-45c-1.33301 -14 3.66699 -20.333 15 -19h96c54.667 0 80.667 -34.667 78 -104v-488
c-1.33301 -254 9.66699 -419.667 33 -497c28.667 -128.667 109.667 -220.334 243 -275.001c72.667 -28.667 165 -43 277 -43v0zM588.003 1802c-40 -1.33301 -68 -13.001 -84 -35.001c-15.333 -21.333 -23 -39.666 -23 -54.999c1.33301 -38 15 -64 41 -78
c11.333 -6.66699 23 -12 35 -16s22.333 -6 31 -6c26 0 47 8.66699 63 26c18 16.667 27 38.667 27 66c0 31.333 -9 56 -27 74c-18.667 16 -39.667 24 -63 24v0zM995.003 1802c-39.333 -1.33301 -67.335 -13.001 -84.002 -35.001c-14.667 -21.333 -22 -39.666 -22 -54.999
c1.33301 -38 15 -64 41 -78c10.667 -6.66699 22.334 -12 35.001 -16c12 -4 22 -6 30 -6c58.667 1.33301 89.334 32 92.001 92c0 31.333 -8.66699 56 -26 74c-19.333 16 -41.333 24 -66 24v0z" />
    <glyph glyph-name="glyph203" unicode="&#xdd;" horiz-adv-x="1362" 
d="M756 649l258.004 370.996l147 207c42.667 60 69.334 94.667 80.001 104c35.333 30 68.666 45 99.999 45h52c10.667 0 16 6.33301 16 19v49c0 8 -5.33301 12 -16 12c-10 -2.66699 -71.667 -4.66699 -185 -6c-68 0 -122.667 1.33301 -164 4
c-40.667 1.33301 -66.334 2 -77.001 2c-11.333 0 -16.333 -4 -15 -12v-49c-1.33301 -12.667 3.66699 -19 15 -19h55c40.667 -1.33301 64.667 -9.33301 72 -24c4 -18 2.33301 -36.667 -5 -56c-2.66699 -9.33301 -19 -38.666 -49 -87.999l-110 -170l-211 -323v0l-178 329
l-95 177c-27.333 48.667 -43 78 -47 88c-5.33301 24 -3.33301 41.667 6 53c7.33301 9.33301 26 14 56 14h67c10 0 15 6.33301 15 19v51c0 6.66699 -5 10 -15 10c-6.66699 -2.66699 -108.334 -4.66699 -305.001 -6c-132 2.66699 -211.667 4.66699 -239 6
c-10 0 -15 -4 -15 -12v-54c0 -9.33301 5 -14 15 -14h51c38 -1.33301 73.333 -17.666 106 -48.999c18 -19.333 48 -62.333 90 -129l138 -227c107.333 -183.333 173.333 -298.666 198 -345.999v-119c-1.33301 -207.333 -3.33301 -334.333 -6 -381
c0 -15.333 -4.66699 -27 -14 -35c-12.667 -10.667 -32 -16 -58 -16h-100c-10.667 0 -15.334 -5 -14.001 -15v-49c0 -10.667 4 -16 12 -16c9.33301 2.66699 99.333 4.66699 270 6c86 0 151 -0.666992 195 -2c43.333 -2.66699 70.666 -4 81.999 -4
c10.667 0 15.334 6 14.001 18v47c1.33301 10 -3.33398 15 -14.001 15h-80c-26 -1.33301 -46.333 2.66699 -61 12c-7.33301 5.33301 -13 13 -17 23c-5.33301 8 -9.33301 20 -12 36c-5.33301 50.667 -8 129.334 -8 236.001v268zM721.004 1575
c2.66699 -2.66699 7.33203 -2.66699 13.999 0l344 168c40 21.333 60 48.666 60 81.999c0 18.667 -6.33301 35.667 -19 51c-13.333 13.333 -31.666 20 -54.999 20c-26 0 -54 -13.667 -84 -41l-281 -231c-6.66699 -5.33301 -8 -10.666 -4 -15.999z" />
    <glyph glyph-name="glyph225" unicode="&#xde;" horiz-adv-x="1243" 
d="M461 377c69.333 -6.66699 143.672 -9.99902 223.005 -9.99902c155.333 0 277.666 37.333 366.999 112c87.333 71.333 131.666 169 132.999 293c0 116 -48.667 212.333 -146 289c-54.667 39.333 -115.334 66.666 -182.001 81.999c-66.667 12 -154.667 18 -264 18
c-32.667 0 -76.334 -1.33301 -131.001 -4c0 91.333 2 154 6 188c0 22 23.333 32.333 70 31h122c14 -1.33301 21 6.33398 21 23.001v41c0 10.667 -5.33301 16 -16 16c-22 -2.66699 -118.333 -4.66699 -289 -6c-194 2.66699 -293.667 4.66699 -299 6
c-10 0 -14.333 -4.66699 -13 -14v-49c-1.33301 -11.333 3.66699 -17 15 -17h106c32.667 0 56 -2.66699 70 -8c12 -8 18 -20.333 18 -37c2.66699 -14.667 4 -63 4 -145v-234v-235c0 -127.333 -0.666992 -250.333 -2 -369v-141c-1.33301 -38.667 -3.33301 -61.334 -6 -68.001
c-1.33301 -26 -7.33301 -43 -18 -51c-11.333 -9.33301 -33.333 -14 -66 -14h-94c-9.33301 0 -13.333 -5 -12 -15v-51c-1.33301 -8 4 -12.667 16 -14c6.66699 2.66699 101 4.66699 283 6c95.333 -0 163.666 -0.666992 204.999 -2c40.667 -2.66699 67 -4 79 -4
c14 0 20.333 5.33301 19 16v49c0 10 -5.33301 15 -16 15h-127c-45.333 0 -69.333 21.667 -72 65c-2.66699 49.333 -4 106 -4 170v68zM461.006 1083c50.667 8.66699 103.668 13.001 159.001 13.001c60.667 1.33301 132.667 -21.334 216 -68.001c38 -24.667 70 -58 96 -100
c26 -45.333 39 -100.666 39 -165.999c-1.33301 -98.667 -32 -177.334 -92 -236.001c-60.667 -62.667 -137.334 -94 -230.001 -94c-82 0 -144.667 7 -188 21v630z" />
    <glyph glyph-name="approxequal" unicode="&#xdf;" horiz-adv-x="1132" 
d="M367 895c-1.33301 72 1.33105 146.999 7.99805 224.999c5.33301 76.667 28.333 139.667 69 189c45.333 46 98 69 158 69c50.667 -1.33301 91.667 -17.666 123 -48.999c31.333 -34 47.666 -74.333 48.999 -121c0 -91.333 -19 -164.333 -57 -219l-90 -123
c-16.667 -24.667 -30.334 -51.334 -41.001 -80.001c-14 -31.333 -21 -63.333 -21 -96c1.33301 -69.333 27.333 -124 78 -164c24.667 -20 52.667 -39 84 -57c28.667 -18 58.667 -35 90 -51c57.333 -28.667 97 -63 119 -103c20.667 -39.333 31 -82.333 31 -129
c-1.33301 -50 -18.666 -86 -51.999 -108c-32.667 -24.667 -66 -37 -100 -37c-35.333 0 -65.333 11 -90 33c-24.667 20 -45 46 -61 78l-25 57c-5.33301 13.333 -10.666 18 -15.999 14l-37 -8c-8.66699 -1.33301 -11.667 -9 -9 -23l17 -129c0 -10.667 4 -20 12 -28
c14 -10 38 -21.667 72 -35c32.667 -15.333 64.667 -23.666 96 -24.999c96.667 1.33301 172.334 29.333 227.001 84c54.667 53.333 82 117.666 82 192.999c1.33301 82 -15 145.333 -49 190c-35.333 44 -83.666 81.667 -144.999 113c-57.333 28.667 -105.333 56.667 -144 84
c-42 24.667 -63 59.334 -63 104.001c0 44 11 83 33 117c21.333 34 46.333 67.333 75 100c79.333 83.333 119.666 181 120.999 293c-1.33301 72.667 -26.333 128.667 -75 168c-50.667 40 -106 60 -166 60c-98.667 -1.33301 -202 -56 -310 -164
c-43.333 -46.667 -77.333 -104 -102 -172c-26 -68.667 -39 -154 -39 -256v-76l-117 -10c-10.667 0 -16 -5 -16 -15v-38c-1.33301 -10 2.66699 -15.667 12 -17l121 -6v-203v-383c2.66699 -50 -14.333 -74.333 -51 -73h-96c-15.333 0 -22.333 -5 -21 -15v-45
c0 -9.33301 5.66699 -14 17 -14c47.333 2.66699 125 4.66699 233 6c40.667 -0 80.334 -0.666992 119.001 -2c36.667 -2.66699 59 -4 67 -4c10 0 15 8 15 24v33c0 11.333 -7.66699 17 -23 17h-65c-31.333 -1.33301 -46.333 15 -45 49c-1.33301 44.667 -2 196.667 -2 456v322z
" />
    <glyph glyph-name="paragraph" unicode="&#xe0;" horiz-adv-x="874" 
d="M688 365l-0.00488281 312.997c0 28.667 -1.33301 55.334 -4 80.001c-5.33301 23.333 -19 45 -41 65c-13.333 15.333 -31.666 28.333 -54.999 39c-23.333 11.333 -59.666 17 -108.999 17c-86 0 -169.333 -24 -250 -72c-40.667 -24.667 -74 -54 -100 -88
c-27.333 -35.333 -41 -70.333 -41 -105c0 -44.667 16.333 -66.334 49 -65.001c42.667 0 71.334 11 86.001 33c15.333 20 23 48 23 84c-1.33301 18.667 -2.66602 36.334 -3.99902 53.001c-2.66699 14.667 2 28.334 14 41.001c16.667 13.333 37.667 24.333 63 33
c26 6.66699 49.333 10 70 10c60 -1.33301 101 -16.333 123 -45c6.66699 -7.33301 12 -15 16 -23c2.66699 -9.33301 4.66699 -19.666 6 -30.999c3.33301 -9.33301 5.66602 -19.333 6.99902 -30v-31v-131c-18 -15.333 -49 -33 -93 -53
c-43.333 -23.333 -89.666 -45.333 -138.999 -66c-78 -35.333 -132 -73.333 -162 -114c-30 -41.333 -44.333 -86 -43 -134c1.33301 -62.667 15.666 -107 42.999 -133c27.333 -24.667 54 -37 80 -37c44 0 84.333 4.33301 121 13c92.667 31.333 160.334 73 203.001 125h4
c10.667 -42.667 28.334 -75.667 53.001 -99c24.667 -24.667 55.334 -37.667 92.001 -39c53.333 1.33301 91.666 15 114.999 41c12 11.333 22.333 22.333 31 33c5.33301 11.333 10 20.333 14 27c9.33301 18.667 10 31 2 37l-20 16
c-7.33301 5.33301 -14.333 2.66602 -21 -8.00098c-12 -19.333 -35.667 -29.666 -71 -30.999c-18 0 -32.333 11.667 -43 35c-12.667 22 -19 61.667 -19 119v121zM538.995 450.997l0.000976562 -252c-1.33301 -28.667 -21.333 -56 -60 -82c-38 -30 -74 -45 -108 -45
c-68.667 0 -104.334 37.333 -107.001 112c0 42.667 11.667 79 35 109c22 28.667 47.333 51.667 76 69c31.333 19.333 62 36 92 50c28.667 13.333 52.667 26.333 72 39v0zM554.996 1018c4 2.66699 4.66699 6 2 10l-197 244c-8 12 -18.667 23.667 -32 35
c-14 10.667 -31.333 16 -52 16c-31.333 -1.33301 -52.333 -16.333 -63 -45c-12 -28.667 -0.333008 -58.667 35 -90l270 -193c4 -4 8 -4 12 0z" />
    <glyph glyph-name="bullet" unicode="&#xe1;" horiz-adv-x="874" 
d="M688 365l-0.00488281 312.997c0 28.667 -1.33301 55.334 -4 80.001c-5.33301 23.333 -19 45 -41 65c-13.333 15.333 -31.666 28.333 -54.999 39c-23.333 11.333 -59.666 17 -108.999 17c-86 0 -169.333 -24 -250 -72c-40.667 -24.667 -74 -54 -100 -88
c-27.333 -35.333 -41 -70.333 -41 -105c0 -44.667 16.333 -66.334 49 -65.001c42.667 0 71.334 11 86.001 33c15.333 20 23 48 23 84c-1.33301 18.667 -2.66602 36.334 -3.99902 53.001c-2.66699 14.667 2 28.334 14 41.001c16.667 13.333 37.667 24.333 63 33
c26 6.66699 49.333 10 70 10c60 -1.33301 101 -16.333 123 -45c6.66699 -7.33301 12 -15 16 -23c2.66699 -9.33301 4.66699 -19.666 6 -30.999c3.33301 -9.33301 5.66602 -19.333 6.99902 -30v-31v-131c-18 -15.333 -49 -33 -93 -53
c-43.333 -23.333 -89.666 -45.333 -138.999 -66c-78 -35.333 -132 -73.333 -162 -114c-30 -41.333 -44.333 -86 -43 -134c1.33301 -62.667 15.666 -107 42.999 -133c27.333 -24.667 54 -37 80 -37c44 0 84.333 4.33301 121 13c92.667 31.333 160.334 73 203.001 125h4
c10.667 -42.667 28.334 -75.667 53.001 -99c24.667 -24.667 55.334 -37.667 92.001 -39c53.333 1.33301 91.666 15 114.999 41c12 11.333 22.333 22.333 31 33c5.33301 11.333 10 20.333 14 27c9.33301 18.667 10 31 2 37l-20 16
c-7.33301 5.33301 -14.333 2.66602 -21 -8.00098c-12 -19.333 -35.667 -29.666 -71 -30.999c-18 0 -32.333 11.667 -43 35c-12.667 22 -19 61.667 -19 119v121zM538.995 450.997l0.000976562 -252c-1.33301 -28.667 -21.333 -56 -60 -82c-38 -30 -74 -45 -108 -45
c-68.667 0 -104.334 37.333 -107.001 112c0 42.667 11.667 79 35 109c22 28.667 47.333 51.667 76 69c31.333 19.333 62 36 92 50c28.667 13.333 52.667 26.333 72 39v0zM349.996 994.997c4 -4 7.99902 -4.00098 11.999 -0.000976562l269 193c20 14.667 33 30.334 39 47.001
c5.33301 16 6 30.333 2 43c-11.333 28.667 -32.666 43.667 -63.999 45c-17.333 0 -33 -4.66699 -47 -14c-13.333 -10 -26.333 -22.333 -39 -37l-196 -244c-4.66699 -4 -4.66699 -8 0 -12z" />
    <glyph glyph-name="germandbls" unicode="&#xe2;" horiz-adv-x="874" 
d="M688 365l-0.00488281 312.997c0 28.667 -1.33301 55.334 -4 80.001c-5.33301 23.333 -19 45 -41 65c-13.333 15.333 -31.666 28.333 -54.999 39c-23.333 11.333 -59.666 17 -108.999 17c-86 0 -169.333 -24 -250 -72c-40.667 -24.667 -74 -54 -100 -88
c-27.333 -35.333 -41 -70.333 -41 -105c0 -44.667 16.333 -66.334 49 -65.001c42.667 0 71.334 11 86.001 33c15.333 20 23 48 23 84c-1.33301 18.667 -2.66602 36.334 -3.99902 53.001c-2.66699 14.667 2 28.334 14 41.001c16.667 13.333 37.667 24.333 63 33
c26 6.66699 49.333 10 70 10c60 -1.33301 101 -16.333 123 -45c6.66699 -7.33301 12 -15 16 -23c2.66699 -9.33301 4.66699 -19.666 6 -30.999c3.33301 -9.33301 5.66602 -19.333 6.99902 -30v-31v-131c-18 -15.333 -49 -33 -93 -53
c-43.333 -23.333 -89.666 -45.333 -138.999 -66c-78 -35.333 -132 -73.333 -162 -114c-30 -41.333 -44.333 -86 -43 -134c1.33301 -62.667 15.666 -107 42.999 -133c27.333 -24.667 54 -37 80 -37c44 0 84.333 4.33301 121 13c92.667 31.333 160.334 73 203.001 125h4
c10.667 -42.667 28.334 -75.667 53.001 -99c24.667 -24.667 55.334 -37.667 92.001 -39c53.333 1.33301 91.666 15 114.999 41c12 11.333 22.333 22.333 31 33c5.33301 11.333 10 20.333 14 27c9.33301 18.667 10 31 2 37l-20 16
c-7.33301 5.33301 -14.333 2.66602 -21 -8.00098c-12 -19.333 -35.667 -29.666 -71 -30.999c-18 0 -32.333 11.667 -43 35c-12.667 22 -19 61.667 -19 119v121zM538.995 450.997l0.000976562 -252c-1.33301 -28.667 -21.333 -56 -60 -82c-38 -30 -74 -45 -108 -45
c-68.667 0 -104.334 37.333 -107.001 112c0 42.667 11.667 79 35 109c22 28.667 47.333 51.667 76 69c31.333 19.333 62 36 92 50c28.667 13.333 52.667 26.333 72 39v0zM421.996 1157l223 -158.001c8 -5.33301 14.333 -4.66602 19 2.00098l16 19c4 4 2.66699 9.33301 -4 16
l-225 268c-8.66699 12.667 -17.667 19.667 -27 21c-8 -1.33301 -16.333 -7.33301 -25 -18l-215 -269c-8 -8 -10 -14.667 -6 -20l19 -19c6.66699 -4 12.667 -3.33301 18 2l207 156v0z" />
    </font>
</defs>
</svg>
